<svg id="Lager_1" data-name="Lager 1" xmlns="http://www.w3.org/2000/svg" width="500" height="301" viewBox="0 0 500 301"><title>logo_fb</title><path id="Lager_1-2" data-name="Lager 1" d="M0,0H500V301H0Z" style="fill:#fff"/><path id="Layer" d="M79.9,175.2a24.7,24.7,0,1,1,24.7-24.7A24.68,24.68,0,0,1,79.9,175.2Z" style="fill:red"/><g id="Lager_2" data-name="Lager 2"><path id="Border" d="M75.4,156.6h9.2v2.6H75.4Zm8.8.3H75.7v1.9h8.5Z" style="fill:#ff0"/><path id="Layer-2" data-name="Layer" d="M82.2,156.8V159" style="fill:none;stroke:#ff0;stroke-width:0.30000001192092896px"/><path id="Layer-3" data-name="Layer" d="M79.9,156.8v2.1" style="fill:none;stroke:#ff0;stroke-width:0.30000001192092896px"/><path id="Layer-4" data-name="Layer" d="M77.7,156.8v2.1" style="fill:none;stroke:#ff0;stroke-width:0.30000001192092896px"/><path id="Layer-5" data-name="Layer" d="M76.4,157.2h.5c0,.1-.1.2-.1.3h-.2C76.5,157.5,76.4,157.3,76.4,157.2Zm-.1.9a.22.22,0,0,1-.2.2l-.3-.3a.37.37,0,0,1,.3-.1h0l.2.2Zm.7.5c-.1-.1-.1-.2-.2-.3h0v-.1l.1-.1h0c.1,0,.3.1.3.2.2,0-.2.3-.2.3Zm-.7-.8H76l.2-.5c.1,0,.2.2.2.3h0v.1l-.1.1Zm.5.8h-.5c0-.1.1-.2.2-.3h.2c0-.1.1.2.1.3Zm.6-1a.6.6,0,0,1-.4.1l-.1-.1h0c0-.1.1-.2.1-.3s.4.3.4.3Zm-.6,0a.37.37,0,0,1,.1.3c0,.1-.2.2-.3.2s-.3-.1-.3-.2.1-.2.1-.3h.4Zm.5.5c-.1,0-.2-.1-.3-.1h0v-.1h0c.1,0,.2-.1.3-.1s.1.3,0,.3Z" style="fill:#ff0"/><path id="Layer-6" data-name="Layer" d="M82.8,157.2s.5-.2.5-.1a.37.37,0,0,1-.1.3h-.3C83,157.5,82.9,157.4,82.8,157.2Zm.2,1c0,.1-.1.2-.1.3l-.4-.3c.1-.1.2-.1.3-.2h0l.2.2Zm.8.1c-.1,0-.2-.2-.3-.2h0V158l.1-.1h.3c.2,0,0,.5-.1.4Zm-1-.4h-.3s.1-.5.2-.5.2.1.3.2h0v.1l-.2.2Zm.9.6-.5.1a.37.37,0,0,1,.1-.3h.2Zm.3-.9c-.1.1-.4.1-.4.1l-.1-.1h0c0-.1.1-.2.2-.3s.3.3.3.3Zm-.8.5c-.1-.1-.2-.2-.2-.3a.22.22,0,0,1,.2-.2c.1,0,.3,0,.3.1a.37.37,0,0,1-.1.3h0l-.2.1Z" style="fill:#ff0"/><path id="Layer-7" data-name="Layer" d="M80.8,157.1h.6c0,.1-.1.2-.2.3h-.4C80.9,157.4,80.8,157.2,80.8,157.1Zm0,1.1c0,.1-.1.2-.2.3l-.3-.4a.37.37,0,0,1,.3-.1h0l.2.2Zm.7.2c-.1-.1-.1-.2-.2-.3h0V158l.1-.1h0a.37.37,0,0,1,.3.1C81.9,158.1,81.6,158.5,81.5,158.4Zm-.8-.6h-.3s.2-.5.3-.5.2.2.2.3h0v.1l-.2.1Zm.6.8s-.5.1-.5,0,.1-.2.2-.3h.2A1,1,0,0,1,81.3,158.6Zm.5-.8c-.1.1-.4,0-.4,0l-.1-.2h0c.1-.1.1-.2.2-.3s.4.5.3.5Zm-.9.2a.37.37,0,0,1-.1-.3c0-.1.2-.2.3-.2s.3.1.3.2a.37.37,0,0,1-.1.3l-.1.1-.3-.1Z" style="fill:#ff0"/><path id="Layer-8" data-name="Layer" d="M78.4,157.2l.5-.2v.3h0l-.2.1h-.1C78.6,157.5,78.4,157.3,78.4,157.2Zm.1,1c0,.1-.1.2-.2.3l-.3-.4a.37.37,0,0,1,.3-.1h0l.2.2Zm.8.4c-.1-.1-.1-.2-.2-.3h0v-.1l.1-.1h0a.37.37,0,0,1,.3.1c.1,0-.2.4-.2.4Zm-.9-.7h-.3l.2-.5c.1,0,.2.2.2.3h0v.1l-.1.1Zm.7.7h-.5c0-.1.1-.2.2-.3H79c-.1-.1.1.2.1.3Zm.6-.6h-.4l-.1-.2h0l.3-.3Zm-.7-.3a.37.37,0,0,1,.1.3c0,.1-.2.1-.3.1s-.2,0-.2-.1.1-.2.1-.3l.1-.1.2.1Zm.5-.3a.37.37,0,0,1-.3.1h-.1l-.1-.1h0c0-.1.1-.2.2-.3l.3.3Z" style="fill:#ff0"/><path id="Sun" d="M83,149.1a3.1,3.1,0,1,1-3.1-3A3,3,0,0,1,83,149.1Z" style="fill:#fff"/><path id="Eagle" d="M77.1,156.6l.1-2.7.5.4v2.4Zm1.5-2,.6.1v1.9h-.6Zm1.1-1.3h.4v1.1h-.4Zm-.6,1.1.2-1.2h.4l-.1,1.2Zm-2.5-.5.2-.6.3.4v.4Zm1.9.5.3-1.1.4.1-.3,1.2Zm-2.4-.7.3-.7.4.3-.3.6Zm1.2,0,.4-.9.4.2-.4,1Zm-1.8-.1.4-.9.4.3-.3.7Zm-10.2-.2,1.9-1.9.9.1-1.3,1.7Zm2.9-1.7h1l-1.1,1.6H67Zm0,1.6,1.1-1.6h.9l-1.1,1.6Zm6.5-1.2.5.2-.5,1.1h-.6Zm-5.3,1.2,1-1.6h.8l-1,1.5ZM74,152l.6.1-.6,1.3h-.7Zm2.9,1.2.4-.7.4.3-.4.8Zm-.5-.4.4-.7.3.3-.3.7Zm2.9.3.2-.8h.3l-.2.8Zm.5-.7h.3l.1.8h-.4Zm-1.5.5.3-.8.3.1-.3.8Zm-2.4-.4.5-.7.3.2-.4.7Zm1.5-.1.5-.8.3.2-.4.8Zm-2-.2.5-.7.4.3-.5.7Zm1.1-.5.6-.8.2.3-.5.8Zm-2.4.1.6-.8.6.2-.7.7Zm-1-.1h-.7l.7-.9.7.1Zm3-.4.8-.9.2.4-.7.8Zm-6.6.2,1.1-1.1.8.1-1,1Zm-10.2.8-.7-1,4.2-1.7.7.6Zm7.9-1,1.4-1.1.7.1-1.2,1.2Zm8.2-.3,1.2-1.1.1.4-.8,1Zm-9.5.1,1.7-1,.8.1L67,151.3Zm8.9-.3,1.1-1.1.6.2-1.2,1Zm-9.9-.1,1.8-.9.7.2-1.7,1Zm9-.1L75,149.42l.42.09.3.09-1.1,1.1ZM75,149.42h0l-.09,0c-.15-.08,0,0-.47-.12l.3.07-.62-.15c-.2,0-.6-.1-1.2-.2-.4-.1-.8-.1-1.3-.2-.2,0-.7-.1-.8-.1h-.2l-1.8,1.4-.8-.2,1.9-1.2h.6l-.3-.1s-.7-.1-1-.1-.4-.1-.7-.1a3.23,3.23,0,0,1-1.2-.2,2,2,0,0,1-.8-.4.85.85,0,0,1-.3-.5l.5-.1a2.77,2.77,0,0,1,.9-.1h3.7c.5.1.5,0,1.6.1.1,0,.9.1,1.4.2.3.1.7.1,1,.2a3.15,3.15,0,0,1,.8.2,1.09,1.09,0,0,0,.4.2c.1.1.2.1.2.3s-.1.4-.1.6v1c-.2-.1-.4-.1-.9-.3l-.3-.09-.4-.11Zm-16.58.68,3.8-1.2.5.6-4.1,1.6Zm14.5.4,1.3-1.2.6.1-1.1,1.2Zm.4-1.4.7.1-1.3,1.2h-.8ZM71,150.3l1.4-1.3.7.1-1.4,1.2Zm-1.1-.1,1.7-1.3.6.1-1.4,1.3Zm-6.9-.6,1.9-.5.6.3-1.8.7Zm6,.5,1.7-1.3.7.1-1.6,1.3Zm5.9-.7Zm-.18,0,.17,0h0ZM58.2,148.9l3.6-.6.4.6L58.4,150Zm4.2.1,1.9-.4.5.4-1.9.5Zm3.7.5,1.8-.8.8.1-1.9.9-.32-.09-1.68,1-1-.4,1.8-.8.68.15Zm-.8-.4,1.9-.7.5.1-1.8.8Zm-3.4-.8,2-.2.3.4-1.9.4Zm-3.3-.7,2.9-.1.1.6-3.5.6V148C58.1,147.9,58.5,147.6,58.6,147.6Zm7.6.3.2.3-2,.4-.3-.5Zm-4.5-.3,1.9-.1.2.4-2,.2Zm2.3.3-.2-.4h2.3l.1.3Zm15.4,6.8h.5v1.9h-.5Zm-1.5-.3.6.2v2H78ZM67,149.7l1.9-1h.6l-1.8,1.1Zm6.3,2.2.6.1-.7,1.4h-.8Zm0-.2.6-.9.5.1-.6.9Zm-1.8,1.6.9-1.4h.7l-.8,1.4Zm-1,0,1-1.5h.7l-.9,1.5Zm-2.2-1.8,1.2-1.2.8.1-1.1,1.1Zm3.2.1.8-1,.6.1-.7.9Zm-1,0,1-1,.6.1-.9,1Zm8.6.7.3.1-.2.7h-.4Zm-15.7,1.3H60.8l4-2.7.9.3Zm11.4-.2.5-1.1.5.2-.4,1Zm0-1.4.6-.8.4.2-.6.7Zm3.1.8.4-.8.3.1-.4.8Zm0,1.3.4-1.1.4.1-.3,1.1Zm-14.3-.5,2.2-2.3,1.2.2-1.9,1.9Zm1-2.8-4,2.7-1.3-1.1,4.2-2.1ZM77,152.1l.5-.8.3.3-.4.8Zm-12.4-3.5,2-.4.4.2-1.8.6Z" style="fill:#ff0"/><path id="Eagle-2" d="M82.2,156.6v-2.4l.5-.4.1,2.7Zm-.9,0h-.6v-1.9l.6-.1Zm-1.1-2.1h-.4v-1.1h.4Zm.2,0-.1-1.2h.4l.2,1.2Zm2.4-.3v-.4l.3-.4.2.5Zm-1.8.2-.3-1.2.4-.1.3,1.1Zm2.4-.5-.3-.6.4-.3.3.7Zm-1.2.1-.4-1,.4-.2.4.9Zm1.7-.3-.3-.8.4-.3.4.9Zm9.2-.4-1.3-1.7.9-.1,1.9,1.9Zm-.1,0H91.9l-1.1-1.6h1Zm-2.3,0-1.1-1.6h1l1.1,1.6Zm-6-1,.5-.2.6,1.3h-.6Zm4.8,1-1-1.5h.8l1,1.6Zm-2.9.1h-.7l-.6-1.3.6-.1Zm-3.9.2-.4-.8.4-.3.4.7Zm.4-.5-.4-.7.3-.3.4.7Zm-2.8,0-.1-.8h.3l.1.8Zm-.2.1h-.4l.1-.8h.3Zm1.1-1.1.3.8-.3.1-.5.1-.1-.8Zm2.4.6-.4-.7.3-.2.5.7Zm-1.5,0-.4-.8.3-.2.5.8Zm2-.3-.5-.7.4-.3.5.7ZM83,152l-.5-.8.2-.3.6.8Zm2.2-.1-.5-.8.6-.2.6.8Zm.9-1.1.7-.1.7.9h-.7Zm-2.6.8-.7-.8.2-.4.8.9Zm6.1-.1-1-1,.8-.1,1.1,1.1Zm6.8-1.3.7-.6,4.2,1.7-.7,1Zm-4.6,1.3-1.2-1.2.7-.1,1.4,1.1Zm-7.9-.2-.8-1,.1-.4,1.2,1.1Zm8.9,0-1.4-1.1.8-.1,1.7,1Zm-8.2-.4-1.2-1,.6-.2,1.1,1.1Zm9.6.1-1.7-1,.7-.2,1.8.9Zm-8.9-.3-1.1-1.1.7-.2,1.1,1.2Zm16,.4-4.1-1.6.5-.6,3.8,1.2Zm-15.1-.5-1.1-1.2.6-.1,1.3,1.2Zm-.3-1.3.7-.1,1.4,1.3h-.8Zm2.2,1.1-1.3-1.3.7-.1,1.4,1.3Zm1-.1L87.7,149l.6-.1,1.7,1.3Zm7.1-.2-1.8-.7.6-.3,1.9.5Zm-6,.1-1.6-1.3.7-.1,1.7,1.3Zm1.9-.3-1.8-1.1h.6l1.9,1Zm9.5.1-3.8-1.1.4-.6,3.6.6Zm-4.6-.5-1.9-.5.5-.4,1.9.4Zm-3.9.1-1.9-.9.8-.1,1.8.8Zm.8-.2-1.8-.8.5-.1,2,.6Zm3.7-.5-1.9-.4.3-.4,2,.2Zm3.7-1.3a.7.7,0,0,1,.5.4v.7l-3.6-.6.1-.6Zm-5.5.5-.4.4-2-.4.2-.3Zm2.3,0-2-.2.2-.4,1.9.1Zm-4.4-.3.1-.3h2.3l-.2.4Zm-13.1,8.8h-.5v-1.9h.5Zm1.4,0h-.5v-2l.6-.2Zm7.3-8H89c-.1,0-.6.1-.8.1-.6.1-.9.1-1.3.2-.6.1-1,.2-1.2.2-.8.2-.6.2-.8.2a7.35,7.35,0,0,0-.8.2c-.6.2-.7.3-.9.3v-1c0-.2-.1-.5-.1-.6s.2-.1.3-.1l.4-.2a3.15,3.15,0,0,1,.8-.2c.3-.1.7-.1,1-.2.5-.1,1.3-.2,1.4-.2a14.75,14.75,0,0,1,1.6-.1h3.7c.3,0,.6.1.9.1l.5.1c-.1.1-.2.4-.3.5a1.2,1.2,0,0,1-.8.4,3,3,0,0,1-1.2.2,2.25,2.25,0,0,1-.7.1,4.59,4.59,0,0,1-1,.1Zm-1.8,4.7h-.8l-.7-1.4.6-.1ZM86,151.7l-.6-.9.5-.1.6.9Zm1.6,1.6-.8-1.4h.7l.9,1.4Zm1,0-.9-1.5h.7l1,1.5Zm2-1.8-1-1.1.8-.1,1.2,1.2Zm-2.9.1-.7-.9.6-.1.8,1Zm.9,0-.9-1,.6-.1,1,1Zm5.7-.4.9-.3,4,2.7H96.6Zm-9.8,2.3-.4-1,.5-.2.5,1.1Zm.1-1.4-.6-.7.4-.2.6.8Zm10.5-1.4-1.7-1,.9-.2,1.8.8Zm-4-.6-1.7-1.3h.7L92,150Zm-9.4,2.8-.4-.8.3-.1.4.8Zm-.1,1.4-.3-1.1.3-.1.4,1.1Zm13.2-.9-1.9-1.9,1.2-.2,2.2,2.3Zm.5-2.6,1-.5,4.2,2.1-1.3,1.1Zm-12.7,1.6-.4-.8.3-.3.5.8ZM94.8,149l-1.8-.6.4-.2,2,.4Z" style="fill:#ff0"/></g><path id="Aramean" d="M149.93,166.3h-6.64l-2.85-8.49H128.23l-2.85,8.49h-6.71l11.69-33.24h7.92ZM134.8,139.81l-.48-1.63-.13.52q-.23.85-.55,1.94t-3.91,11.93h9.21L135.78,143Zm26.57,26.49H155V146.77q0-2.1-.07-3.49t-.12-2.5h6.1q.07.42.18,2.59t.12,2.86h.09a17.93,17.93,0,0,1,1.66-3.78,4.66,4.66,0,0,1,1.73-1.63,5.22,5.22,0,0,1,2.5-.54,4.61,4.61,0,0,1,2,.36v5.54a12.59,12.59,0,0,0-2.73-.35,4.25,4.25,0,0,0-3.73,2,10.89,10.89,0,0,0-1.32,5.94Zm18,.47a7.56,7.56,0,0,1-5.58-2,7.76,7.76,0,0,1-2-5.69,7.44,7.44,0,0,1,2.48-6q2.5-2.07,7.24-2.12l5.3-.09v-1.3a6.51,6.51,0,0,0-.84-3.7,3.1,3.1,0,0,0-2.76-1.23,3.53,3.53,0,0,0-2.61.85,4.54,4.54,0,0,0-1,2.76l-6.66-.33a8.23,8.23,0,0,1,3.27-5.64,12.32,12.32,0,0,1,7.31-1.93q4.66,0,7.19,2.38a8.86,8.86,0,0,1,2.52,6.77v9.29a6.66,6.66,0,0,0,.46,3,1.68,1.68,0,0,0,1.57.81,6.53,6.53,0,0,0,1.41-.15V166l-1,.26a9.22,9.22,0,0,1-.91.19l-1,.12q-.5,0-1.19,0a4.71,4.71,0,0,1-3.57-1.22,6,6,0,0,1-1.36-3.61h-.14A8.68,8.68,0,0,1,179.36,166.77Zm7.44-11v-1.3l-3.28,0a9.11,9.11,0,0,0-3.16.52,3,3,0,0,0-1.43,1.25,4.59,4.59,0,0,0-.48,2.26,4,4,0,0,0,.79,2.72,2.84,2.84,0,0,0,2.17.87,4.69,4.69,0,0,0,2.73-.85,5.68,5.68,0,0,0,1.95-2.34A7.38,7.38,0,0,0,186.8,155.78ZM221,166.3h-6.35V152q0-6.72-3.73-6.72a3.63,3.63,0,0,0-3.16,2,10.35,10.35,0,0,0-1.21,5.31V166.3h-6.39V146.49q0-2.06-.07-3.35t-.12-2.36h6.1q.07.45.18,2.4t.12,2.67h.09a9.67,9.67,0,0,1,2.94-4.25,6.88,6.88,0,0,1,4.23-1.32q5.64,0,6.85,5.57h.13a10,10,0,0,1,3-4.27,7.28,7.28,0,0,1,4.46-1.3,6.4,6.4,0,0,1,5.48,2.55q1.89,2.52,1.89,7.26V166.3h-6.35V152q0-6.72-3.73-6.72a3.55,3.55,0,0,0-3.07,1.89,10.18,10.18,0,0,0-1.3,5.16Zm31.23.47q-5.55,0-8.53-3.39t-3-10q0-6.32,3-9.72t8.57-3.39q5.31,0,8.1,3.65t2.8,10.66v.19H247.42a9.93,9.93,0,0,0,1.32,5.64,4.38,4.38,0,0,0,3.8,1.89,4,4,0,0,0,4.28-3l6,.55Q260.23,166.77,252.22,166.77Zm0-22.29a4.1,4.1,0,0,0-3.48,1.63,7.88,7.88,0,0,0-1.27,4.55H257a8,8,0,0,0-1.43-4.62A4.09,4.09,0,0,0,252.22,144.48Zm22.09,22.29a7.56,7.56,0,0,1-5.58-2,7.76,7.76,0,0,1-2-5.69,7.44,7.44,0,0,1,2.48-6q2.5-2.07,7.24-2.12l5.3-.09v-1.3a6.51,6.51,0,0,0-.84-3.7,3.11,3.11,0,0,0-2.76-1.23,3.53,3.53,0,0,0-2.61.85,4.54,4.54,0,0,0-1,2.76l-6.66-.33a8.23,8.23,0,0,1,3.27-5.64,12.32,12.32,0,0,1,7.31-1.93q4.66,0,7.19,2.38a8.86,8.86,0,0,1,2.52,6.77v9.29a6.66,6.66,0,0,0,.46,3,1.68,1.68,0,0,0,1.57.81,6.53,6.53,0,0,0,1.41-.15V166l-1,.26a8.48,8.48,0,0,1-.91.19l-1,.12q-.5,0-1.19,0a4.71,4.71,0,0,1-3.57-1.22,6,6,0,0,1-1.37-3.61h-.13A8.68,8.68,0,0,1,274.31,166.77Zm7.44-11v-1.3l-3.28,0a9.11,9.11,0,0,0-3.16.52,3,3,0,0,0-1.43,1.25,4.59,4.59,0,0,0-.48,2.26,4,4,0,0,0,.79,2.72,2.84,2.84,0,0,0,2.17.87,4.69,4.69,0,0,0,2.73-.85A5.68,5.68,0,0,0,281,159,7.38,7.38,0,0,0,281.75,155.78Zm35.67,10.52H311V152q0-6.72-4.39-6.72a4.38,4.38,0,0,0-3.76,2.07,9.17,9.17,0,0,0-1.41,5.29V166.3H295.1V146.49q0-2.06-.07-3.35t-.12-2.36H301q.07.45.18,2.4t.12,2.67h.09a9.7,9.7,0,0,1,3.25-4.25,8.16,8.16,0,0,1,4.67-1.32,7.38,7.38,0,0,1,6,2.5q2.1,2.5,2.1,7.31Z" style="fill:#444"/><path id="Center" d="M343.41,136.76a8.85,8.85,0,0,0-7.46,3.5q-2.66,3.48-2.66,9.55t2.76,9.67a9,9,0,0,0,7.52,3.64q6.06,0,9.12-6.79l3.19,1.81a14.14,14.14,0,0,1-5,6.42,12.89,12.89,0,0,1-7.47,2.2,13.73,13.73,0,0,1-7.56-2,13,13,0,0,1-4.85-5.86,22.64,22.64,0,0,1-1.66-9.05q0-7.81,3.72-12.24t10.33-4.43a13.69,13.69,0,0,1,7.7,2,11.82,11.82,0,0,1,4.55,6.05l-3.71,1.4a8.46,8.46,0,0,0-3.24-4.36A9.1,9.1,0,0,0,343.41,136.76Zm36,17.88H363.64a11.89,11.89,0,0,0,1.57,6.65,5.21,5.21,0,0,0,4.61,2.34,6.16,6.16,0,0,0,3.83-1.09,5.32,5.32,0,0,0,2-2.76l3.23,1q-2,5.93-9,5.93a9,9,0,0,1-7.5-3.31q-2.56-3.32-2.56-9.86,0-6.21,2.56-9.53a8.8,8.8,0,0,1,7.36-3.31q9.77,0,9.77,13.33Zm-15.77-3.2h12q-.31-4-1.78-5.78a5.64,5.64,0,0,0-8.5.21A9.45,9.45,0,0,0,363.68,151.44Zm38.74,14.86h-3.71V150.39a13.45,13.45,0,0,0-.43-3.85,3.49,3.49,0,0,0-1.37-2,5.17,5.17,0,0,0-2.76-.6,5,5,0,0,0-4.2,2.06,9.42,9.42,0,0,0-1.54,5.73V166.3h-3.69V146.57q0-4.38-.12-5.36h3.48q0,.12,0,.63t0,1.18q0,.65.09,2.48h.06a8.75,8.75,0,0,1,2.93-3.66,7.47,7.47,0,0,1,4.15-1.09q3.65,0,5.33,2.06t1.7,6.77ZM417,163v3.08a12.58,12.58,0,0,1-3.72.56q-4.43,0-4.43-5.68V144.25h-2.56v-3H409l1.08-5.61h2.46v5.61h4.1v3h-4.1v15.84a4.73,4.73,0,0,0,.51,2.55,2.11,2.11,0,0,0,1.82.72A10,10,0,0,0,417,163Zm22.28-8.39H423.46a11.83,11.83,0,0,0,1.58,6.65,5.19,5.19,0,0,0,4.6,2.34,6.16,6.16,0,0,0,3.83-1.09,5.32,5.32,0,0,0,2-2.76l3.24,1q-2,5.93-9,5.93a8.93,8.93,0,0,1-7.49-3.31q-2.56-3.32-2.56-9.86,0-6.21,2.56-9.53a8.77,8.77,0,0,1,7.35-3.31q9.77,0,9.77,13.33Zm-15.77-3.2h12q-.31-4-1.78-5.78a5.64,5.64,0,0,0-8.5.21A9.45,9.45,0,0,0,423.5,151.44Zm24.73,14.86h-3.68V147q0-2.64-.13-5.84h3.49q.16,4.27.16,5.13h.08a10.49,10.49,0,0,1,2-4.41,4.32,4.32,0,0,1,3.24-1.18,5.13,5.13,0,0,1,1.49.23v3.83a6.57,6.57,0,0,0-2-.24,3.8,3.8,0,0,0-3.5,2.25,13.66,13.66,0,0,0-1.21,6.4Z" style="fill:#555"/></svg>