<?xml version="1.0" encoding="utf-8"?>
<!-- Generator: Adobe Illustrator 21.0.0, SVG Export Plug-In . SVG Version: 6.00 Build 0)  -->
<svg version="1.1" id="svg548" xmlns="http://www.w3.org/2000/svg" xmlns:xlink="http://www.w3.org/1999/xlink" x="0px" y="0px"
	 viewBox="0 0 428.5 93.6" style="enable-background:new 0 0 428.5 93.6;" xml:space="preserve">
<style type="text/css">
	.st0{fill:#FF0000;}
	.st1{fill:#FFFF00;}
	.st2{fill:none;stroke:#FFFF00;stroke-width:0.3;stroke-miterlimit:10;}
	.st3{fill:#FFFFFF;}
	.st4{fill:#4F4F4F;}
	.st5{font-family:'MyriadPro-Regular';}
	.st6{font-size:45.0869px;}
</style>
<circle class="st0" cx="39.5" cy="45.2" r="24.7"/>
<title>syriac_aramean_tell_halaf_flag</title>
<g id="Lager_2">
	<path id="Border" class="st1" d="M35,51.3h9.2v2.6H35V51.3z M43.8,51.6h-8.5v1.9h8.5V51.6z"/>
	<line class="st2" x1="41.8" y1="51.5" x2="41.8" y2="53.7"/>
	<line class="st2" x1="39.5" y1="51.5" x2="39.5" y2="53.6"/>
	<line class="st2" x1="37.3" y1="51.5" x2="37.3" y2="53.6"/>
	<path class="st1" d="M36,51.9h0.5c0,0.1-0.1,0.2-0.1,0.3l0,0l0,0h-0.2l0,0l0,0C36.1,52.2,36,52,36,51.9z M35.9,52.8
		c0,0.1-0.1,0.2-0.2,0.2l-0.3-0.3c0.1-0.1,0.2-0.1,0.3-0.1l0,0l0,0L35.9,52.8C36,52.8,36,52.8,35.9,52.8L35.9,52.8z M36.6,53.3
		c-0.1-0.1-0.1-0.2-0.2-0.3l0,0v-0.1l0.1-0.1l0,0c0.1,0,0.3,0.1,0.3,0.2C37,53,36.6,53.3,36.6,53.3L36.6,53.3z M35.9,52.5
		c-0.1,0-0.2,0-0.3,0l0.2-0.5c0.1,0,0.2,0.2,0.2,0.3l0,0c0,0,0,0,0,0.1L35.9,52.5L35.9,52.5L35.9,52.5L35.9,52.5z M36.4,53.3h-0.5
		c0-0.1,0.1-0.2,0.2-0.3l0,0l0,0h0.2C36.3,52.9,36.4,53.2,36.4,53.3L36.4,53.3z M37,52.3c-0.1,0.1-0.3,0.1-0.4,0.1l-0.1-0.1l0,0l0,0
		c0-0.1,0.1-0.2,0.1-0.3C36.7,51.9,37,52.3,37,52.3L37,52.3z M36.4,52.3c0.1,0.1,0.1,0.2,0.1,0.3s-0.2,0.2-0.3,0.2s-0.3-0.1-0.3-0.2
		c0-0.1,0.1-0.2,0.1-0.3h0.1H36.4L36.4,52.3L36.4,52.3z M36.9,52.8c-0.1,0-0.2-0.1-0.3-0.1l0,0l0,0v-0.1l0,0c0.1,0,0.2-0.1,0.3-0.1
		C37,52.4,37,52.8,36.9,52.8L36.9,52.8z"/>
	<path class="st1" d="M42.4,51.9c0,0,0.5-0.2,0.5-0.1c0,0.1,0,0.2-0.1,0.3l0,0l0,0h-0.2c0,0,0,0-0.1,0l0,0
		C42.6,52.2,42.5,52.1,42.4,51.9z M42.6,52.9c0,0.1-0.1,0.2-0.1,0.3l-0.4-0.3c0.1-0.1,0.2-0.1,0.3-0.2l0,0l0,0L42.6,52.9L42.6,52.9
		L42.6,52.9z M43.4,53c-0.1,0-0.2-0.2-0.3-0.2l0,0c0,0,0,0,0-0.1l0.1-0.1l0,0c0.1,0,0.2,0,0.3,0C43.7,52.6,43.5,53.1,43.4,53
		L43.4,53z M42.4,52.6c-0.1,0-0.2,0-0.3,0c0,0,0.1-0.5,0.2-0.5c0.1,0,0.2,0.1,0.3,0.2l0,0c0,0,0,0,0,0.1L42.4,52.6
		C42.5,52.6,42.4,52.6,42.4,52.6L42.4,52.6L42.4,52.6z M43.3,53.2l-0.5,0.1c0-0.1,0-0.2,0.1-0.3l0,0l0,0h0.2
		C43,52.9,43.2,53.1,43.3,53.2z M43.6,52.3c-0.1,0.1-0.4,0.1-0.4,0.1l-0.1-0.1l0,0l0,0c0-0.1,0.1-0.2,0.2-0.3
		C43.3,51.9,43.6,52.3,43.6,52.3L43.6,52.3z M42.8,52.8c-0.1-0.1-0.2-0.2-0.2-0.3s0.1-0.2,0.2-0.2c0.1,0,0.3,0,0.3,0.1
		s0,0.2-0.1,0.3l0,0L42.8,52.8L42.8,52.8L42.8,52.8z"/>
	<path class="st1" d="M40.4,51.8H41c0,0.1-0.1,0.2-0.2,0.3l0,0c0,0,0,0-0.1,0h-0.2c0,0,0,0-0.1,0l0,0C40.5,52.1,40.4,51.9,40.4,51.8
		z M40.4,52.9c0,0.1-0.1,0.2-0.2,0.3l-0.3-0.4c0.1-0.1,0.2-0.1,0.3-0.1l0,0l0,0L40.4,52.9C40.4,52.8,40.4,52.8,40.4,52.9L40.4,52.9z
		 M41.1,53.1C41,53,41,52.9,40.9,52.8l0,0v-0.1l0.1-0.1l0,0c0.1,0,0.2,0,0.3,0.1C41.5,52.8,41.2,53.2,41.1,53.1z M40.3,52.5
		c-0.1,0-0.2,0-0.3,0c0,0,0.2-0.5,0.3-0.5c0.1,0.1,0.2,0.2,0.2,0.3l0,0c0,0,0,0,0,0.1L40.3,52.5L40.3,52.5L40.3,52.5L40.3,52.5z
		 M40.9,53.3c0,0-0.5,0.1-0.5,0s0.1-0.2,0.2-0.3l0,0l0,0h0.2C40.8,53,40.9,53.2,40.9,53.3z M41.4,52.5c-0.1,0.1-0.4,0-0.4,0
		l-0.1-0.2l0,0l0,0c0.1-0.1,0.1-0.2,0.2-0.3C41.2,52,41.5,52.5,41.4,52.5L41.4,52.5z M40.5,52.7c-0.1-0.1-0.1-0.2-0.1-0.3
		s0.2-0.2,0.3-0.2s0.3,0.1,0.3,0.2c0,0.1,0,0.2-0.1,0.3l-0.1,0.1L40.5,52.7L40.5,52.7L40.5,52.7z"/>
	<path class="st1" d="M38,51.9l0.5-0.2c0,0.1,0,0.2,0,0.3l0,0l0,0l-0.2,0.1c0,0,0,0-0.1,0l0,0C38.2,52.2,38,52,38,51.9z M38.1,52.9
		c0,0.1-0.1,0.2-0.2,0.3l-0.3-0.4c0.1-0.1,0.2-0.1,0.3-0.1l0,0l0,0L38.1,52.9C38.2,52.9,38.2,52.9,38.1,52.9L38.1,52.9z M38.9,53.3
		c-0.1-0.1-0.1-0.2-0.2-0.3l0,0v-0.1l0.1-0.1l0,0c0.1,0,0.2,0,0.3,0.1C39.2,52.9,38.9,53.3,38.9,53.3L38.9,53.3z M38,52.6
		c-0.1,0-0.2,0-0.3,0l0.2-0.5c0.1,0,0.2,0.2,0.2,0.3l0,0c0,0,0,0,0,0.1L38,52.6C38,52.5,38,52.6,38,52.6L38,52.6L38,52.6z
		 M38.7,53.3h-0.5c0-0.1,0.1-0.2,0.2-0.3l0,0l0,0h0.2C38.5,52.9,38.7,53.2,38.7,53.3L38.7,53.3z M39.3,52.7c-0.1,0-0.4,0-0.4,0
		l-0.1-0.2l0,0l0,0c0.1-0.1,0.2-0.2,0.3-0.3C39.1,52.2,39.3,52.7,39.3,52.7z M38.6,52.4c0.1,0.1,0.1,0.2,0.1,0.3s-0.2,0.1-0.3,0.1
		c-0.2,0-0.2,0-0.2-0.1s0.1-0.2,0.1-0.3l0.1-0.1L38.6,52.4L38.6,52.4z M39.1,52.1c-0.1,0.1-0.2,0.1-0.3,0.1l0,0c0,0,0,0-0.1,0
		l-0.1-0.1l0,0c0-0.1,0.1-0.2,0.2-0.3C38.8,51.8,39.1,52.1,39.1,52.1L39.1,52.1z"/>
	<path id="Sun" class="st3" d="M42.6,43.8c0,1.7-1.4,3-3.1,3s-3.1-1.3-3.1-3s1.4-3,3.1-3S42.6,42.1,42.6,43.8"/>
	<path id="Eagle" class="st1" d="M36.7,51.3l0.1-2.7l0.5,0.4v2.4L36.7,51.3z M38.2,49.3l0.6,0.1v1.9h-0.6V49.3z M39.3,48h0.4v1.1
		l0,0h-0.4l0,0V48z M38.7,49.1l0.2-1.2h0.4l-0.1,1.2H38.7z M36.2,48.6l0.2-0.6l0.3,0.4v0.4L36.2,48.6z M38.1,49.1l0.3-1.1l0.4,0.1
		l-0.3,1.2L38.1,49.1z M35.7,48.4l0.3-0.7l0.4,0.3l-0.3,0.6L35.7,48.4z M36.9,48.4l0.4-0.9l0.4,0.2l-0.4,1L36.9,48.4z M35.1,48.3
		l0.4-0.9l0.4,0.3l-0.3,0.7L35.1,48.3z M24.9,48.1l1.9-1.9l0.9,0.1L26.4,48L24.9,48.1z M27.8,46.4h1L27.7,48h-1.1L27.8,46.4z
		 M27.8,48l1.1-1.6h0.9L28.7,48H27.8z M33.7,48.1l0.6-1.3l0.5,0.2l-0.5,1.1H33.7z M29,48l1-1.6h0.8l-1,1.5L29,48z M33.6,46.7
		l0.6,0.1l-0.6,1.3h-0.7L33.6,46.7z M36.5,47.9l0.4-0.7l0.4,0.3l-0.4,0.8L36.5,47.9z M36,47.5l0.4-0.7l0.3,0.3l-0.3,0.7L36,47.5z
		 M38.9,47.8l0.2-0.8h0.3l-0.2,0.8H38.9z M39.4,47.1h0.3l0.1,0.8h-0.4L39.4,47.1z M37.9,47.6l0.3-0.8l0.3,0.1l-0.3,0.8L37.9,47.6z
		 M35.5,47.2l0.5-0.7l0.3,0.2l-0.4,0.7L35.5,47.2z M37,47.1l0.5-0.8l0.3,0.2l-0.4,0.8L37,47.1z M35,46.9l0.5-0.7l0.4,0.3l-0.5,0.7
		L35,46.9z M36.1,46.4l0.6-0.8l0.2,0.3l-0.5,0.8L36.1,46.4z M33.7,46.5l0.6-0.8l0.6,0.2l-0.7,0.7L33.7,46.5z M32.7,46.4H32l0.7-0.9
		l0.7,0.1L32.7,46.4z M35.7,46l0.8-0.9l0.2,0.4L36,46.3L35.7,46z M29.1,46.2l1.1-1.1l0.8,0.1l-1,1H29.1z M18.9,47l-0.7-1l4.2-1.7
		l0.7,0.6L18.9,47z M26.8,46l1.4-1.1l0.7,0.1l-1.2,1.2L26.8,46z M35,45.7l1.2-1.1l0.1,0.4l-0.8,1L35,45.7z M25.5,45.8l1.7-1l0.8,0.1
		L26.6,46L25.5,45.8z M34.4,45.5l1.1-1.1l0.6,0.2l-1.2,1L34.4,45.5z M24.5,45.4l1.8-0.9l0.7,0.2l-1.7,1L24.5,45.4z M33.5,45.3
		l1.1-1.2l0.7,0.2l-1.1,1.1L33.5,45.3z M18,44.8l3.8-1.2l0.5,0.6l-4.1,1.6L18,44.8z M32.5,45.2l1.3-1.2l0.6,0.1l-1.1,1.2L32.5,45.2z
		 M31.5,45.1l1.4-1.3l0.7,0.1l-1.3,1.2H31.5z M30.6,45l1.4-1.3l0.7,0.1L31.3,45H30.6z M29.5,44.9l1.7-1.3l0.6,0.1L30.4,45L29.5,44.9
		z M22.6,44.3l1.9-0.5l0.6,0.3l-1.8,0.7L22.6,44.3z M28.6,44.8l1.7-1.3l0.7,0.1l-1.6,1.3L28.6,44.8z M26.6,44.4l1.9-1h0.6l-1.8,1.1
		L26.6,44.4z M17.8,43.6l3.6-0.6l0.4,0.6L18,44.7L17.8,43.6z M22,43.7l1.9-0.4l0.5,0.4l-1.9,0.5L22,43.7z M25.7,44.2l1.8-0.8
		l0.8,0.1l-1.9,0.9L25.7,44.2z M24.9,43.8l1.9-0.7l0.5,0.1L25.5,44L24.9,43.8z M21.5,43l2-0.2l0.3,0.4l-1.9,0.4L21.5,43z M18.2,42.3
		l2.9-0.1l0.1,0.6l-3.5,0.6c0,0,0-0.6,0-0.7S18.1,42.3,18.2,42.3 M25.8,42.6l0.2,0.3l-2,0.4l-0.3-0.5L25.8,42.6z M21.3,42.3l1.9-0.1
		l0.2,0.4l-2,0.2L21.3,42.3z M23.6,42.6l-0.2-0.4h2.3l0.1,0.3L23.6,42.6z M39,49.4h0.5v1.9H39V49.4z M37.5,49.1l0.6,0.2v2h-0.5
		L37.5,49.1z M30.1,43.4c0.3,0,0,0,0.3,0c0.1,0,0.6,0.1,0.8,0.1c0.5,0.1,0.9,0.1,1.3,0.2c0.6,0.1,1,0.2,1.2,0.2
		c0.8,0.2,0.6,0.1,0.8,0.2c0.5,0.1,0.8,0.2,0.8,0.2c0.5,0.2,0.7,0.2,0.9,0.3c0-0.1,0-0.1,0-0.2v-0.2v-0.1c0-0.2,0-0.2,0-0.4
		c0,0,0,0.2,0-0.1c0-0.2,0.1-0.4,0.1-0.6c0-0.2-0.1-0.2-0.2-0.3c-0.3-0.1-0.4-0.2-0.4-0.2c-0.6-0.2-0.8-0.2-0.8-0.2
		c-0.3-0.1-0.7-0.1-1-0.2c-0.5-0.1-1.3-0.2-1.4-0.2c-1.1-0.1-1.1,0-1.6-0.1c-0.7,0-0.7,0-1.3,0c-0.3,0-0.9,0-1.4,0c0,0-0.8,0-1,0
		c-0.3,0-0.6,0-0.9,0.1C25.8,42,25.8,42,25.8,42c0,0.2,0.2,0.4,0.3,0.5c0.3,0.3,0.6,0.3,0.8,0.4c0.7,0.2,0.8,0.2,1.2,0.2
		c0.3,0,0.5,0.1,0.7,0.1c0.3,0,1,0.1,1,0.1 M32.9,46.6l0.6,0.1l-0.7,1.4H32L32.9,46.6z M32.9,46.4l0.6-0.9l0.5,0.1l-0.6,0.9
		L32.9,46.4z M31.1,48l0.9-1.4h0.7L31.9,48H31.1z M30.1,48l1-1.5h0.7L30.9,48H30.1z M27.9,46.2l1.2-1.2l0.8,0.1l-1.1,1.1L27.9,46.2z
		 M31.1,46.3l0.8-1l0.6,0.1l-0.7,0.9H31.1z M30.1,46.3l1-1l0.6,0.1l-0.9,1L30.1,46.3z M38.4,47.8l0.3-0.8l0.3,0.1l-0.2,0.7H38.4z
		 M23,48.3h-2.6l4-2.7l0.9,0.3L23,48.3z M34.4,48.1l0.5-1.1l0.5,0.2l-0.4,1L34.4,48.1z M34.4,46.7l0.6-0.8l0.4,0.2l-0.6,0.7
		L34.4,46.7z M23.4,44.9l1.8-0.8l0.9,0.2l-1.7,1L23.4,44.9z M27.6,44.6l1.9-1.2h0.7l-1.8,1.4L27.6,44.6z M37.5,47.5l0.4-0.8l0.3,0.1
		l-0.4,0.8L37.5,47.5z M37.5,48.8l0.4-1.1l0.4,0.1L38,48.9L37.5,48.8z M23.2,48.3l2.2-2.3l1.2,0.2l-1.9,1.9L23.2,48.3z M24.2,45.5
		l-4,2.7l-1.3-1.1l4.2-2.1L24.2,45.5z M36.6,46.8l0.5-0.8l0.3,0.3L37,47.1L36.6,46.8z M24.2,43.3l2-0.4l0.4,0.2l-1.8,0.6L24.2,43.3z
		"/>
	<path id="Eagle-2" class="st1" d="M41.8,51.3v-2.4l0.5-0.4l0.1,2.7L41.8,51.3z M40.9,51.3h-0.6v-1.9l0.6-0.1V51.3z M39.8,49.2
		L39.8,49.2h-0.4l0,0v-1.1h0.4V49.2z M40,49.2L39.9,48h0.4l0.2,1.2H40z M42.4,48.9v-0.4l0.3-0.4l0.2,0.5L42.4,48.9z M40.6,49.1
		l-0.3-1.2l0.4-0.1l0.3,1.1L40.6,49.1z M43,48.6L42.7,48l0.4-0.3l0.3,0.7L43,48.6z M41.8,48.7l-0.4-1l0.4-0.2l0.4,0.9L41.8,48.7z
		 M43.5,48.4l-0.3-0.8l0.4-0.3l0.4,0.9L43.5,48.4z M52.7,48l-1.3-1.7l0.9-0.1l1.9,1.9L52.7,48z M52.6,48h-1.1l-1.1-1.6h1L52.6,48z
		 M50.3,48l-1.1-1.6h1l1.1,1.6L50.3,48z M44.8,48.1L44.3,47l0.5-0.2l0.6,1.3H44.8z M49.1,48l-1-1.5h0.8l1,1.6L49.1,48z M46.2,48.1
		h-0.7l-0.6-1.3l0.6-0.1L46.2,48.1z M42.3,48.3l-0.4-0.8l0.4-0.3l0.4,0.7L42.3,48.3z M42.7,47.8l-0.4-0.7l0.3-0.3l0.4,0.7L42.7,47.8
		z M39.9,47.8L39.8,47h0.3l0.1,0.8H39.9z M39.7,47.9h-0.4l0.1-0.8h0.3L39.7,47.9z M40.8,47.7l-0.3-0.8l0.3-0.1l0.3,0.8L40.8,47.7z
		 M43.2,47.4l-0.4-0.7l0.3-0.2l0.5,0.7L43.2,47.4z M41.7,47.4l-0.4-0.8l0.3-0.2l0.5,0.8L41.7,47.4z M43.7,47.1l-0.5-0.7l0.4-0.3
		l0.5,0.7L43.7,47.1z M42.6,46.7l-0.5-0.8l0.2-0.3l0.6,0.8L42.6,46.7z M44.8,46.6l-0.5-0.8l0.6-0.2l0.6,0.8L44.8,46.6z M45.7,45.5
		l0.7-0.1l0.7,0.9h-0.7L45.7,45.5z M43.1,46.3l-0.7-0.8l0.2-0.4l0.8,0.9L43.1,46.3z M49.2,46.2l-1-1l0.8-0.1l1.1,1.1H49.2z M56,44.9
		l0.7-0.6l4.2,1.7l-0.7,1L56,44.9z M51.4,46.2L50.2,45l0.7-0.1l1.4,1.1L51.4,46.2z M43.5,46l-0.8-1l0.1-0.4l1.2,1.1L43.5,46z
		 M52.4,46L51,44.9l0.8-0.1l1.7,1L52.4,46z M44.2,45.6l-1.2-1l0.6-0.2l1.1,1.1L44.2,45.6z M53.8,45.7l-1.7-1l0.7-0.2l1.8,0.9
		L53.8,45.7z M44.9,45.4l-1.1-1.1l0.7-0.2l1.1,1.2L44.9,45.4z M60.9,45.8l-4.1-1.6l0.5-0.6l3.8,1.2L60.9,45.8z M45.8,45.3l-1.1-1.2
		l0.6-0.1l1.3,1.2L45.8,45.3z M46.8,45.2L45.5,44l0.7-0.1l1.4,1.3H46.8z M47.7,45.1l-1.3-1.3l0.7-0.1l1.4,1.3L47.7,45.1z M48.7,45
		l-1.4-1.3l0.6-0.1l1.7,1.3L48.7,45z M55.8,44.8L54,44.1l0.6-0.3l1.9,0.5L55.8,44.8z M49.8,44.9l-1.6-1.3l0.7-0.1l1.7,1.3L49.8,44.9
		z M51.7,44.6l-1.8-1.1h0.6l1.9,1L51.7,44.6z M61.2,44.7l-3.8-1.1l0.4-0.6l3.6,0.6L61.2,44.7z M56.6,44.2l-1.9-0.5l0.5-0.4l1.9,0.4
		L56.6,44.2z M52.7,44.3l-1.9-0.9l0.8-0.1l1.8,0.8L52.7,44.3z M53.5,44.1l-1.8-0.8l0.5-0.1l2,0.6L53.5,44.1z M57.2,43.6l-1.9-0.4
		l0.3-0.4l2,0.2L57.2,43.6z M60.9,42.3c0.2,0,0.5,0.3,0.5,0.4c0,0.1,0,0.7,0,0.7l-3.6-0.6l0.1-0.6L60.9,42.3 M55.4,42.8L55,43.2
		l-2-0.4l0.2-0.3L55.4,42.8z M57.7,42.8l-2-0.2l0.2-0.4l1.9,0.1L57.7,42.8z M53.3,42.5l0.1-0.3h2.3l-0.2,0.4L53.3,42.5z M40.2,51.3
		h-0.5v-1.9h0.5V51.3z M41.6,51.3h-0.5v-2l0.6-0.2L41.6,51.3z M49.3,43.4c0,0,0.7,0,1-0.1c0.1,0,0.4,0,0.7-0.1c0.5,0,0.5,0,1.2-0.2
		c0.2,0,0.5-0.1,0.8-0.4c0.1-0.1,0.2-0.4,0.3-0.5c0,0,0,0-0.5-0.1c-0.3,0-0.6-0.1-0.9-0.1c-0.2,0-1,0-1,0c-0.5,0-1.1,0-1.4,0
		c-0.5,0-0.5,0-1.3,0c-0.4,0-0.4,0-1.6,0.1c-0.1,0-0.9,0.1-1.4,0.2c-0.3,0.1-0.7,0.1-1,0.2c0,0-0.2,0-0.8,0.2c0,0-0.2,0.1-0.4,0.2
		c-0.1,0-0.2,0.1-0.3,0.1c0,0.1,0.1,0.4,0.1,0.6c0,0.3,0,0.1,0,0.1c0,0.2,0,0.2,0,0.4v0.1v0.2c0,0.1,0,0.1,0,0.2
		c0.2,0,0.3-0.1,0.9-0.3c0,0,0.3-0.1,0.8-0.2c0.2,0,0,0,0.8-0.2c0.2,0,0.6-0.1,1.2-0.2c0.4-0.1,0.7-0.1,1.3-0.2
		c0.2,0,0.7-0.1,0.8-0.1c0.3,0,0,0,0.3,0 M47.1,48h-0.8l-0.7-1.4l0.6-0.1L47.1,48z M45.6,46.4L45,45.5l0.5-0.1l0.6,0.9L45.6,46.4z
		 M47.2,48l-0.8-1.4h0.7L48,48H47.2z M48.2,48l-0.9-1.5H48l1,1.5H48.2z M50.2,46.2l-1-1.1L50,45l1.2,1.2H50.2z M47.3,46.3l-0.7-0.9
		l0.6-0.1l0.8,1H47.3z M48.2,46.3l-0.9-1l0.6-0.1l1,1L48.2,46.3z M40.3,47.8L40.2,47l0.3-0.1l0.3,0.8L40.3,47.8z M53.9,45.9l0.9-0.3
		l4,2.7h-2.6L53.9,45.9z M44.1,48.2l-0.4-1l0.5-0.2l0.5,1.1L44.1,48.2z M44.2,46.8l-0.6-0.7l0.4-0.2l0.6,0.8L44.2,46.8z M54.7,45.4
		l-1.7-1l0.9-0.2l1.8,0.8L54.7,45.4z M50.7,44.8L49,43.5h0.7l1.9,1.2L50.7,44.8z M41.3,47.6l-0.4-0.8l0.3-0.1l0.4,0.8L41.3,47.6z
		 M41.2,49l-0.3-1.1l0.3-0.1l0.4,1.1L41.2,49z M54.4,48.1l-1.9-1.9l1.2-0.2l2.2,2.3L54.4,48.1z M54.9,45.5L54.9,45.5l1-0.5l4.2,2.1
		l-1.3,1.1L54.9,45.5z M42.2,47.1l-0.4-0.8l0.3-0.3l0.5,0.8L42.2,47.1z M54.4,43.7l-1.8-0.6l0.4-0.2l2,0.4L54.4,43.7z"/>
</g>
<text transform="matrix(1 0 0 1 81.1 60.6521)" class="st4 st5 st6">Aramean Center</text>
</svg>
