<?xml version="1.0" encoding="utf-8"?>
<!-- Generator: Adobe Illustrator 21.0.0, SVG Export Plug-In . SVG Version: 6.00 Build 0)  -->
<svg version="1.1" id="ad3423d0-b1a8-4183-9d5d-a1b308e52494"
	 xmlns="http://www.w3.org/2000/svg" xmlns:xlink="http://www.w3.org/1999/xlink" x="0px" y="0px" viewBox="0 0 575.8 524"
	 style="enable-background:new 0 0 575.8 524;" xml:space="preserve">
<style type="text/css">
	.st0{fill:#616163;}
	.st1{fill:#F2F2F2;}
	.st2{fill:#FFFFFF;}
	.st3{fill:#FF0000;}
	.st4{fill:#E6E6E6;}
	.st5{fill:#FFFF00;}
	.st6{fill:none;stroke:#FFFF00;stroke-miterlimit:10;}
</style>
<path class="st0" d="M385.1,27.7c-3.8,0-6.9,3.1-6.9,6.9v232.8c0,3.8,3.1,6.9,6.9,6.9c3.8,0,6.9-3.1,6.9-6.9V34.6
	C392,30.8,388.9,27.7,385.1,27.7z"/>
<path class="st1" d="M472.2,415.1c0,1.2,0,2.5-0.1,3.7c-17.9,23.8-39.6,44.4-64.3,61.1c-2.9,1.9-5.7,3.8-8.7,5.6
	c-21.9,13.5-45.7,23.6-70.5,30.1c-1.3,0.3-2.6,0.7-3.9,1c-0.9,0.2-1.9,0.5-2.8,0.7c-0.6,0-1.2-0.1-1.7-0.2c0,0-0.1,0-0.1,0
	c-0.2,0-0.5,0-0.7,0c-1-0.1-2-0.2-2.9-0.3l0.2,0.4l0.6,1.1h0c-0.2-0.4-0.4-0.7-0.6-1.1c-0.1-0.1-0.2-0.3-0.2-0.4
	c-0.1-0.1-0.1-0.2-0.2-0.4c-8.9-15.5-17.7-31.6-20-49.3c-2.3-18.5,4.2-39.5,20.6-48.6c2.1-1.2,4.4-2.1,6.8-2.8c1-0.3,2-0.5,3-0.8
	c19-4.2,37.9,7.8,42.1,26.8c1.4,6.3,1,12.9-1.1,19.1c13.8-14.2,11.2-37.2,6.5-56.4c-4.8-19.2-10.6-40.6-0.8-57.9
	c5.4-9.6,14.9-15.6,25.6-18c0.3-0.1,0.6-0.1,1-0.2c12.7-2.6,25.9-0.3,37,6.5c20.4,12.8,30.9,37.2,34.3,61.1
	C471.8,402.2,472.3,408.6,472.2,415.1z"/>
<path class="st2" d="M333.9,427.1c7.5,15.3,9.9,32.6,6.8,49.4c-2.7,14.3-9.2,27.7-18.9,38.6c-0.5,0.6-1.1,1.2-1.7,1.8
	c0.9-0.1,1.9-0.1,2.8-0.2c0.6,0,1.2-0.1,1.8-0.2c-0.9,0.2-1.9,0.5-2.8,0.7c-0.6,0-1.2-0.1-1.7-0.2c0,0-0.1,0-0.1,0
	c-0.2,0-0.5,0-0.7-0.1c-1-0.1-2-0.2-2.9-0.3l0.2,0.4l0.6,1.1h0c-0.2-0.4-0.4-0.7-0.6-1.1c-0.1-0.1-0.2-0.3-0.2-0.4
	c0.2-0.2,0.3-0.3,0.5-0.5c27-27.2,29.8-70.1,6.6-100.6c1-0.3,2-0.5,3-0.8C329.3,418.7,331.8,422.8,333.9,427.1z"/>
<path class="st2" d="M423.9,438.2c-0.8,8.5-2.8,16.8-6,24.7c-1.7,4.2-3.9,8.1-6.3,11.9c-1.1,1.8-2.4,3.5-3.7,5.1
	c-2.9,1.9-5.7,3.8-8.7,5.6c1.9-1.9,3.7-3.9,5.3-6c0.9-1.1,1.8-2.3,2.7-3.4c9.5-13.1,13.7-28.9,14.4-44.9c0.8-17.2-1.5-34.6-5.4-51.3
	c-4-17.1-10.1-33.7-18.1-49.3c-0.4-0.7-0.1-1.6,0.6-2c0.3-0.2,0.6-0.3,1-0.2c0.3,0.1,0.6,0.3,0.8,0.7c1,1.9,2,3.9,2.9,5.8
	c7.8,16.3,13.5,33.5,17.1,51.2C423.8,402.9,425.7,420.8,423.9,438.2z"/>
<path class="st1" d="M186.1,512.8c0.4-0.6,0.7-1.3,1.1-1.9c6.7-11.7,12.9-23.9,14.6-37.2c1.9-14.9-3.4-31.8-16.5-39.1
	c-1.7-1-3.5-1.7-5.4-2.3c-0.8-0.2-1.6-0.4-2.4-0.6c-15.3-3.4-30.5,6.3-33.9,21.6c-1.1,5.1-0.8,10.4,0.9,15.3
	c-11.1-11.4-9-29.9-5.2-45.4c3.8-15.5,8.5-32.7,0.7-46.6c-4.4-7.8-12-12.5-20.6-14.5c-0.3,0-0.5-0.1-0.8-0.2
	c-10.2-2.1-20.9-0.2-29.8,5.2c-16.4,10.3-24.8,30-27.6,49.2c-0.4,3-0.7,6.1-0.9,9.2c-0.1,1.1-0.1,2.2-0.1,3.2
	c5.3,6.4,10.9,12.5,16.8,18.4c8.5,8.5,17.7,16.5,27.3,23.8c1.3,1,2.6,2,4,3c21.8,15.9,46,28.4,71.6,36.8c1.4,0.5,2.8,0.9,4.3,1.4
	L186.1,512.8z"/>
<path class="st2" d="M184,512.2c-1.4-0.4-2.9-0.9-4.3-1.4c-0.8-1-1.6-2-2.4-3c-5.7-7.9-9.7-16.9-11.5-26.5
	c-2.5-13.5-0.5-27.4,5.5-39.8c1.7-3.5,3.7-6.8,6-9.9c0.8,0.2,1.6,0.4,2.4,0.6c-17.4,22.8-16.8,54.6,1.5,76.8
	C182.2,510.2,183.1,511.2,184,512.2z"/>
<path class="st2" d="M105.2,403.6c-3.3,13.5-4.8,27.4-4.3,41.3c0.3,8.6,2.1,17.1,5.4,25c0.6,1.4,1.2,2.8,1.9,4.1c-1.3-1-2.7-2-4-3
	c-0.1-0.2-0.2-0.5-0.3-0.7c-0.4-1.1-0.8-2.1-1.2-3.2c-1.9-5.4-3.1-11-3.6-16.6c-1.5-14,0-28.4,2.8-42.1c2.8-14.2,7.5-28.1,13.7-41.2
	c0.8-1.6,1.5-3.1,2.3-4.7c0.1-0.3,0.3-0.5,0.6-0.5c0.3,0,0.6,0,0.8,0.2c0.6,0.3,0.8,1.1,0.5,1.7
	C113.3,376.4,108.4,389.8,105.2,403.6z"/>
<path class="st3" d="M177.7,399.9c-2.4,0.9-5.1,0.4-7-1.3l-11.1-9.7c-2.9-2.5-3.2-7-0.7-9.9l80.9-92.7c2.5-2.9,7-3.2,9.9-0.7
	l11.1,9.7c2.9,2.5,3.2,7,0.7,9.9l-80.9,92.7C179.7,398.8,178.8,399.5,177.7,399.9z"/>
<path class="st3" d="M288.8,297.9c-0.7,0-1.5-0.1-2.1-0.3c-1.8-0.6-3.2-1.8-4.1-3.5l-6.8-13.1c-1.8-3.4-0.4-7.7,3-9.4l109.3-56.4
	c3.4-1.8,7.7-0.4,9.4,3l6.8,13.1c1.8,3.4,0.4,7.7-3,9.4L292,297.1C291,297.6,289.9,297.9,288.8,297.9z"/>
<path d="M286.8,301c-2.7,0-5.1-1.5-6.3-3.9l-6.6-13.2c-0.7-1.5-0.9-3.2-0.5-4.8c0-0.2,0.1-0.4,0.2-0.5l0,0c0.1-0.4,0.3-1,0.4-1.8
	c0.5-2.3,1.2-5.2,2.6-5.9l48-29.1c3.4-1.8,7.7-0.4,9.4,3.1l0,0l12.1,25c1.7,3.5,0.3,7.7-3.1,9.4l-53.1,21
	C289,300.8,287.9,301,286.8,301z"/>
<ellipse class="st3" cx="268.2" cy="198.9" rx="44.5" ry="53.5"/>
<path class="st3" d="M256.4,522.6h-14.8c-3.9,0-7-3.1-7-7v-125c0-3.9,3.1-7,7-7h14.8c3.9,0,7,3.1,7,7v125
	C263.4,519.5,260.3,522.6,256.4,522.6z"/>
<path class="st3" d="M320,464.4c-2.3,0-4.4-1.1-5.7-2.9l-71.5-100.1c-2.2-3.1-1.5-7.5,1.6-9.8l12-8.6c3.1-2.2,7.5-1.5,9.8,1.6
	l71.5,100.1c2.2,3.1,1.5,7.5-1.6,9.8l-12,8.6C322.9,464,321.5,464.4,320,464.4z"/>
<path class="st3" d="M301.1,520.8c-1.5,0-2.9-0.4-4.2-1.1l-13.2-6.6c-3.5-1.7-5.4-4.9-4.2-7.2l34.1-68.4c1.1-2.2,4.8-2.7,8.3-0.9
	l13.2,6.6c1.5,0.7,2.8,1.9,3.8,3.3c0.8,1.1,1,2.6,0.5,3.9l-34.1,68.4C304.5,520.1,302.9,520.8,301.1,520.8z"/>
<path d="M236.8,339.3c-2.5,0.9-5.4,0.3-7.3-1.6l-20-19.2c-2.8-2.7-2.8-7.1-0.1-9.9c0,0,0,0,0,0l0,0l42.6-36.8c1-1.1,4-0.8,6.4-0.6
	c0.7,0.1,1.4,0.1,1.8,0.1c0.2,0,0.4,0,0.6,0l0,0c1.7,0.1,3.2,0.8,4.4,2l10.5,10.4c2.7,2.7,2.8,7.1,0.1,9.9l-36.3,44
	C238.7,338.3,237.8,338.9,236.8,339.3z"/>
<path d="M350.7,405.6H184.2c-3.6,0-6.5-2.9-6.5-6.5c0-1.2,0.3-2.3,0.9-3.3l83.2-144.2c1.2-2,3.3-3.3,5.6-3.2l0,0
	c2.3,0,4.5,1.2,5.6,3.2l83.2,144.2c1.8,3.1,0.7,7.1-2.4,8.9C352.9,405.3,351.8,405.6,350.7,405.6L350.7,405.6z"/>
<path d="M279.2,262.5h-22c-3.6,0-6.5-2.9-6.5-6.5v-2c0-3.6,2.9-6.5,6.5-6.5h22c3.6,0,6.5,2.9,6.5,6.5v2
	C285.6,259.6,282.7,262.5,279.2,262.5z"/>
<circle class="st4" cx="163.2" cy="412" r="6"/>
<circle class="st1" cx="453.2" cy="316" r="6"/>
<circle class="st1" cx="77.2" cy="342" r="6"/>
<path class="st4" d="M524.2,262c0.2,56.5-18.1,111.6-52,156.8c-17.9,23.8-39.6,44.4-64.3,61.1c-2.9,1.9-5.7,3.8-8.7,5.6
	c-21.9,13.5-45.7,23.6-70.5,30.1c-1.3,0.3-2.6,0.7-3.9,1c-0.9,0.2-1.9,0.5-2.8,0.7c-1.5,0.4-3.1,0.7-4.6,1h0
	c-18.1,3.9-36.6,5.8-55.1,5.8c-2.4,0-4.8,0-7.2-0.1c-5.2-0.1-10.3-0.4-15.4-0.9c-18.1-1.5-36-4.9-53.4-10.2
	c-0.7-0.2-1.4-0.4-2.1-0.6c-1.4-0.4-2.9-0.9-4.3-1.4c-25.6-8.5-49.8-20.9-71.6-36.8c-1.3-1-2.7-2-4-3c-9.6-7.3-18.7-15.3-27.3-23.8
	c-5.9-5.9-11.5-12.1-16.8-18.4c-19.7-23.7-34.9-50.6-45.2-79.6C-33.1,212.6,38.6,63,175.2,14.9C203.1,5,232.5,0,262.2,0
	c39.5,0,80.5,10.1,118.5,29.1l-0.9,1.8C342,12,301.4,2,262.2,2C118.8,2,2.2,118.6,2.2,262c-0.1,59.6,20.5,117.4,58.1,163.6
	C72.7,441,87,455,102.6,467.2c1.2,0.9,2.4,1.8,3.6,2.7c21.6,16.3,45.6,29,71.2,37.9c1.3,0.5,2.6,0.9,3.9,1.3
	c1.9,0.6,3.9,1.2,5.8,1.8c17.5,5.3,35.5,8.7,53.7,10.2c5.1,0.4,10.3,0.7,15.5,0.8c1.9,0,3.9,0.1,5.8,0.1c18.2,0,36.3-1.9,54-5.7
	c0.2,0,0.5-0.1,0.7-0.2c1.7-0.3,3.3-0.7,4.9-1.1c1.9-0.4,3.8-0.9,5.7-1.4c27.3-7.1,53.3-18.7,76.9-34.2c2.4-1.5,4.7-3.1,7-4.8
	c104.1-73,140.1-210.5,85.2-325.1l1.8-0.9C515.5,184,524.3,222.8,524.2,262z"/>
<path class="st3" d="M519,151.2c-25.2,0-48.2-6.1-68.3-18.2c-21.3-12.8-65.1-5.4-68.4,1.1l-4,9.7l11.4-112.5L390,31
	c0.9-0.9,23.7-21.7,83.4,7.6c45.3,22.2,82.4,11.7,96.2,6.2c2.3-0.9,4.9,0.2,5.9,2.5c0.3,0.6,0.4,1.3,0.3,2l-6.2,90.6
	c-0.1,1.8-1.4,3.4-3.1,4C551.1,148.7,535.1,151.2,519,151.2z"/>
<g>
	<title>syriac_aramean_tell_halaf_flag</title>
	<g id="Lager_2_1_">
		<path id="Border_1_" class="st5" d="M460.1,100.5l32.4,5.1l-1.4,9l-32.4-5.1L460.1,100.5z M491.2,106.6l-30.1-4.8l-1.1,6.8
			l30.1,4.8L491.2,106.6z"/>
		<line class="st6" x1="484" y1="105.1" x2="482.8" y2="112.8"/>
		<line class="st6" x1="476.2" y1="103.8" x2="475" y2="111.3"/>
		<line class="st6" x1="468.4" y1="102.6" x2="467.2" y2="110"/>
		<path class="st5" d="M463.3,103c0-0.1,1.9,0.2,1.9,0.3c-0.1,0.4-0.4,0.7-0.6,1.1l0,0c0,0.1-0.1,0.1-0.2,0.1l-0.6-0.1
			c-0.1,0-0.1-0.1-0.2-0.1l0,0C463.6,104.3,463.3,103.4,463.3,103z M462.8,106.4c-0.2,0.3-0.5,0.6-0.8,0.8c-0.1,0.1-0.8-1.3-0.7-1.3
			c0.3-0.1,0.7-0.1,1.1-0.1l0,0c0,0,0.1,0,0.1,0.1l0.3,0.4C462.8,106.3,462.8,106.4,462.8,106.4L462.8,106.4z M464.8,108.5
			c-0.3-0.3-0.3-0.8-0.4-1.2l0,0c0-0.1,0-0.2,0.1-0.2l0.5-0.3c0.1,0,0.1,0,0.2,0c0.4,0.2,0.9,0.4,1.1,0.7
			C466.4,107.5,464.9,108.6,464.8,108.5L464.8,108.5z M462.6,105.4c-0.4,0-0.9,0-1.2-0.3c-0.1-0.1,0.8-1.7,0.9-1.6
			c0.3,0.2,0.5,0.7,0.7,1l0,0c0,0.1,0,0.1,0,0.2l-0.3,0.5C462.8,105.3,462.7,105.4,462.6,105.4L462.6,105.4L462.6,105.4z
			 M464.1,108.3c0,0.1-1.9-0.3-1.8-0.4c0.1-0.4,0.4-0.7,0.7-1l0,0c0,0,0.1-0.1,0.1,0l0.6,0.1C463.9,107,464.2,107.9,464.1,108.3
			L464.1,108.3z M466.7,105.1c-0.3,0.2-1.3,0.3-1.3,0.2l-0.3-0.5c0,0,0-0.1,0-0.2l0,0c0.2-0.4,0.4-0.8,0.7-1
			C465.8,103.6,466.8,105,466.7,105.1L466.7,105.1z M464.6,104.9c0.2,0.4,0.3,0.8,0.3,1.2c-0.1,0.3-0.7,0.5-1,0.5
			c-0.3-0.1-0.9-0.5-0.8-0.8c0.1-0.4,0.3-0.7,0.6-1l0.2-0.1l0.6,0.1L464.6,104.9L464.6,104.9z M466.2,107c-0.3-0.1-0.6-0.3-0.8-0.5
			l0,0c-0.1,0-0.1-0.1,0-0.2l0.2-0.4c0,0,0.1-0.1,0.1-0.1c0.4-0.1,0.7-0.2,1.1-0.1C466.8,105.7,466.3,107,466.2,107L466.2,107z"/>
		<path class="st5" d="M486.2,107c0-0.1,1.9-0.2,1.9-0.1c0,0.4-0.2,0.8-0.4,1.2l0,0c0,0.1-0.1,0.1-0.2,0.1l-0.6,0
			c-0.1,0-0.1,0-0.2-0.1l0,0C486.7,108.1,486.2,107.3,486.2,107z M486.3,110.5c-0.2,0.4-0.3,0.8-0.6,1.1c-0.1,0.1-1.2-1.3-1.1-1.4
			c0.3-0.3,0.7-0.3,1.1-0.4l0,0c0,0,0.1,0,0.1,0l0.4,0.4C486.3,110.3,486.3,110.4,486.3,110.5L486.3,110.5z M489.1,111.4
			c-0.3-0.2-0.6-0.6-0.8-1l0,0c0-0.1,0-0.2,0-0.3l0.3-0.5c0,0,0.1-0.1,0.1-0.1c0.4,0,0.9,0.1,1.2,0.3
			C490.1,109.9,489.2,111.4,489.1,111.4L489.1,111.4z M485.8,109.2c-0.4,0-0.9,0-1.2-0.2c-0.1-0.1,0.7-1.7,0.9-1.7
			c0.3,0.2,0.6,0.6,0.8,1l0,0c0,0.1,0,0.1,0,0.2l-0.3,0.6C485.9,109.2,485.9,109.2,485.8,109.2L485.8,109.2L485.8,109.2z M488.3,112
			c0,0.1-1.9,0.1-1.9,0c0-0.4,0.3-0.8,0.5-1.1l0,0c0,0,0.1-0.1,0.1-0.1l0.7,0C487.8,110.7,488.4,111.6,488.3,112z M490,108.9
			c-0.3,0.2-1.4,0.2-1.4,0.1l-0.3-0.6c0-0.1,0-0.1,0-0.2l0,0c0.2-0.4,0.4-0.8,0.8-1C489.2,107.2,490.2,108.8,490,108.9L490,108.9z
			 M486.9,110.2c-0.2-0.3-0.5-0.7-0.5-1.1c0-0.3,0.6-0.7,0.9-0.7c0.3,0,1,0.3,1,0.6c0,0.4-0.2,0.8-0.4,1.1l-0.1,0.1l-0.8,0
			L486.9,110.2L486.9,110.2z"/>
		<path class="st5" d="M479.1,105.4c0-0.1,2.1,0.4,2.1,0.5c-0.1,0.4-0.4,0.7-0.8,1l0,0c-0.1,0.1-0.1,0.1-0.2,0.1l-0.7-0.2
			c-0.1,0-0.1-0.1-0.2-0.1l0,0C479.4,106.6,479,105.8,479.1,105.4z M478.5,109.1c-0.2,0.4-0.5,0.8-0.8,0.9c-0.1,0.1-0.9-1.5-0.8-1.6
			c0.3-0.2,0.8-0.2,1.2-0.2l0,0c0.1,0,0.1,0,0.1,0.1l0.3,0.5C478.5,108.9,478.5,109,478.5,109.1L478.5,109.1z M481,110.5
			c-0.3-0.3-0.4-0.7-0.5-1.2l0,0c0-0.1,0-0.2,0.1-0.2l0.4-0.4c0,0,0.2,0,0.2,0c0.4,0.1,0.8,0.3,1.1,0.5
			C482.3,109.3,481,110.6,481,110.5z M478.2,107.7c-0.4,0-0.9-0.1-1.2-0.3c-0.1-0.1,1.1-1.8,1.2-1.7c0.3,0.2,0.5,0.7,0.6,1.2l0,0
			c0,0.1,0,0.2,0,0.2l-0.4,0.6C478.3,107.7,478.3,107.7,478.2,107.7L478.2,107.7L478.2,107.7z M480,110.8c0,0.1-1.9-0.1-1.9-0.2
			c0.1-0.4,0.4-0.7,0.7-1l0,0c0,0,0.1-0.1,0.1,0l0.6,0.1C479.8,109.6,480.1,110.4,480,110.8z M482.3,108.4c-0.4,0.1-1.4-0.1-1.4-0.2
			l-0.1-0.6c0-0.1,0-0.1,0-0.2l0,0c0.3-0.3,0.6-0.7,1-0.8C481.9,106.6,482.5,108.3,482.3,108.4L482.3,108.4z M478.9,108.7
			c-0.2-0.4-0.3-0.7-0.2-1.1c0.1-0.3,0.7-0.5,1-0.5c0.3,0.1,0.9,0.5,0.8,0.8c0,0.3-0.2,0.6-0.4,0.9l-0.4,0.3l-0.7-0.2l-0.1-0.1
			L478.9,108.7z"/>
		<path class="st5" d="M470.5,104.5c0-0.1,1.9-0.4,1.9-0.3c0.1,0.4-0.1,0.8-0.3,1.2l0,0c0,0.1-0.1,0.1-0.2,0.1l-0.6,0.1
			c-0.1,0-0.1,0-0.2-0.1l0,0C471.1,105.5,470.6,104.9,470.5,104.5z M470.5,108c-0.2,0.4-0.5,0.8-0.8,0.9c-0.1,0.1-0.9-1.5-0.8-1.6
			c0.3-0.2,0.8-0.2,1.2-0.2l0,0c0.1,0,0.1,0,0.1,0.1l0.3,0.5C470.5,107.8,470.5,107.9,470.5,108L470.5,108z M472.9,109.7
			c-0.3-0.3-0.4-0.7-0.5-1.2l0,0c0-0.1,0-0.2,0.1-0.2l0.4-0.4c0,0,0.2,0,0.2,0c0.4,0.1,0.8,0.3,1.1,0.5
			C474.3,108.5,473,109.8,472.9,109.7L472.9,109.7z M470.2,106.7c-0.4,0-0.9,0-1.2-0.3c-0.1-0.1,0.8-1.7,0.9-1.6
			c0.3,0.2,0.5,0.7,0.7,1l0,0c0,0.1,0,0.1,0,0.2l-0.3,0.5C470.3,106.6,470.3,106.7,470.2,106.7L470.2,106.7L470.2,106.7z
			 M472.1,109.7c0,0.1-1.9-0.3-1.8-0.4c0.1-0.4,0.4-0.7,0.7-1l0,0c0,0,0.1-0.1,0.1,0l0.6,0.1C471.9,108.3,472.2,109.3,472.1,109.7
			L472.1,109.7z M474.6,107.8c-0.4,0.1-1.4-0.1-1.4-0.2l-0.1-0.6c0-0.1,0-0.1,0.1-0.2l0,0c0.3-0.3,0.8-0.5,1-0.8
			C474.3,106,474.7,107.7,474.6,107.8z M472.4,106.4c0.1,0.4,0.3,0.8,0.2,1.2c-0.1,0.3-0.8,0.1-1.1,0.1c-0.8-0.3-0.9-0.3-0.8-0.6
			c0.2-0.4,0.4-0.7,0.7-1l0.6-0.2L472.4,106.4L472.4,106.4z M474.2,105.7c-0.3,0.2-0.8,0.3-1.2,0.3l0,0c-0.1,0-0.2,0-0.2-0.1
			l-0.3-0.5c0-0.1,0-0.1,0-0.2c0.2-0.4,0.4-0.8,0.7-1C473.3,104.2,474.3,105.7,474.2,105.7L474.2,105.7z"/>
		<path id="Sun_1_" class="st2" d="M491.3,78.3c-0.9,5.9-6.5,9.9-12.5,8.9s-10.1-6.5-9.2-12.3c0.9-5.9,6.5-9.9,12.5-8.9
			S492.3,72.4,491.3,78.3"/>
		<path id="Eagle_1_" class="st5" d="M466.4,101.5l1.9-9.7l1.6,1.7l-1.4,8.3L466.4,101.5z M472.7,95.2l2,0.6l-1.2,6.9l-2-0.3
			L472.7,95.2z M477.5,91.3l1.3,0.2l-0.5,4.1c0,0.1-0.1,0.1-0.1,0.1l-1.5-0.2c-0.1,0-0.1-0.1-0.1-0.2L477.5,91.3z M474.5,95l1.3-4.1
			l1.2,0.3l-1,4.1L474.5,95z M465.9,91.7l1.1-1.8l1,1.6l-0.3,1.5L465.9,91.7z M472.3,94.3l1.8-3.9l1.3,0.4l-1.5,4L472.3,94.3z
			 M464.2,90.6l1.5-2.2l1.1,1.3l-1.2,1.9L464.2,90.6z M468.7,91.4l2-2.8l1.2,0.8l-2,3.3L468.7,91.4z M462.3,89.8l1.8-3l1.2,1.2
			l-1.5,2.4L462.3,89.8z M426.3,83.6l7.6-5.6l3.1,0.9l-5.4,5.3L426.3,83.6z M437.5,79.1l3.4,0.7l-4.8,5.1l-4-0.5L437.5,79.1z
			 M436.7,84.9l4.8-5.1l3.4,0.5l-4.7,5L436.7,84.9z M457.6,88.5l2.9-4.2l1.5,0.8l-2.4,3.7L457.6,88.5z M440.9,85.5l4.5-4.9l3,0.6
			l-4.2,4.9L440.9,85.5z M458,83.4l2,0.7l-3,4.3l-2.5-0.5L458,83.4z M467.3,89.4l1.8-2.3l1.2,1.2l-1.9,2.7L467.3,89.4z M465.9,87.7
			l1.9-2.2l1,1.2l-1.7,2.2L465.9,87.7z M475.9,90.4l1-2.7l1,0.2l-0.8,2.7L475.9,90.4z M478.2,88.1l1,0.1l-0.2,2.9l-1.4-0.2
			L478.2,88.1z M472.7,89.2l1.7-2.7l0.9,0.5l-1.5,2.7L472.7,89.2z M464.4,86.3l2.1-2.1l0.9,1l-1.9,2.3L464.4,86.3z M469.7,87
			l2.1-2.5l1,1l-1.9,2.6L469.7,87z M462.6,85l2.3-2.3l1.2,1.1l-2.1,2.2L462.6,85z M467,83.8l2.7-2.4l0.6,1.3l-2.1,2.4L467,83.8z
			 M458.2,82.8l2.7-2.6l1.9,0.8l-2.5,2.5L458.2,82.8z M455,81.8l-2.6-0.5l3-2.8l2.4,0.6L455,81.8z M465.6,82.3l3.3-2.8l0.6,1.4
			l-2.8,2.5L465.6,82.3z M442.1,79.4l4.4-3.3l2.6,0.6l-4.1,3.1L442.1,79.4z M405.7,76.2l-1.8-3.8l15.8-3.5l2,2.4L405.7,76.2z
			 M434.3,77.4l5.6-3.2l2.5,0.7l-5,3.4L434.3,77.4z M463.6,80.7l4.9-3.2l0.3,1.5l-3.4,2.9L463.6,80.7z M429.8,75.7l6.7-2.7l2.8,0.9
			l-5.6,3.2L429.8,75.7z M461.2,79.6l4.4-3.2l2.2,1l-4.8,3L461.2,79.6z M426.5,74l6.8-2.4l2.5,1.1l-6.6,2.7L426.5,74z M458.1,78.7
			l4.6-3.5l2.3,1l-4.4,3.2L458.1,78.7z M403.6,68.2l14.2-1.9l1.5,2.2l-15.4,3.4L403.6,68.2z M454.9,77.7l5.3-3.5l2.1,0.7l-4.7,3.5
			L454.9,77.7z M451.5,76.8l5.5-3.7l2.5,0.8l-5.4,3.6L451.5,76.8z M448.2,75.9l5.8-3.7l2.3,0.7l-5.5,3.6L448.2,75.9z M444.3,74.9
			l6.6-3.7l2.2,0.7l-5.6,3.8L444.3,74.9z M420.4,68.9l6.8-0.8l2,1.5l-6.7,1.6L420.4,68.9z M441.1,74.1l6.7-3.6l2.3,0.6l-6.5,3.7
			L441.1,74.1z M434.3,71.4l7.4-2.4l2.2,0.5l-6.9,2.9L434.3,71.4z M403.6,63.6l12.9-0.1l1.1,2.4l-14,1.7L403.6,63.6z M418.5,66.5
			l6.9-0.5l1.6,1.6l-7,0.7L418.5,66.5z M431.4,70.1l6.7-2l2.8,0.7l-7.2,2.3L431.4,70.1z M428.6,68.4l7.1-1.3l1.8,0.7l-6.7,2
			L428.6,68.4z M417.1,63.5l7.3,0.5l0.7,1.6l-6.9,0.3L417.1,63.5z M406,59.5l10.4,1.3l0.1,2.2l-12.7,0.1c0,0,0.2-2,0.3-2.4
			C404.1,60.3,405.3,59.5,406,59.5 M432.6,64.6l0.7,1.1l-7.4,0.1l-1-1.8L432.6,64.6z M416.8,60.9l6.8,0.9l0.4,1.7l-7.1-0.5
			L416.8,60.9z M424.7,63.5l-0.5-1.7l8.2,1.1l0.2,1.2L424.7,63.5z M475.3,95.9l1.8,0.3L476,103l-1.9-0.3L475.3,95.9z M470.4,94
			l1.8,1l-1.3,7.2l-1.9-0.3L470.4,94z M447.4,69.9c1.1,0.2,0,0,1.2,0.3c0.4,0.1,2.2,0.6,2.8,0.8c1.9,0.5,3.3,0.9,4.5,1.3
			c2,0.7,3.5,1.1,4.2,1.3c2.7,1,2,0.7,2.7,1c1.7,0.7,2.8,1.2,2.8,1.2c1.8,0.8,2.4,1.2,2.9,1.4c0-0.2,0-0.5,0-0.7l0.1-0.8l0.1-0.3
			c0.1-0.7,0.1-0.7,0.3-1.4c0,0-0.1,0.7,0.1-0.2c0.2-0.7,0.4-1.5,0.7-2.2c-0.3-0.2-0.6-0.4-0.9-0.6c-0.9-0.5-1.4-0.8-1.4-0.8
			c-2.1-1-2.8-1.3-2.8-1.3c-1-0.4-2.3-0.9-3.3-1.2c-1.8-0.6-4.4-1.3-4.8-1.4c-4-0.8-4-0.8-5.5-1.1c-2.6-0.5-2.6-0.5-4.5-0.7
			c-1-0.1-3.1-0.4-4.8-0.6c0,0-2.9-0.3-3.7-0.4c-1.1-0.2-2.2-0.2-3.4-0.2c-1.9,0-1.8,0-1.8,0c0,0.6,0.3,1.6,0.6,2
			c0.8,1.1,1.9,1.5,2.7,1.8c2.5,1,2.6,1,4.2,1.3c0.9,0.2,1.9,0.5,2.3,0.6c1,0.2,3.5,0.8,3.5,0.8 M455.3,82.6l2.1,0.6l-3.4,4.6
			l-2.7-0.5L455.3,82.6z M455.7,82l2.7-2.7l1.9,0.5l-2.7,2.7L455.7,82z M448.3,86.6l4-4.6l2.5,0.5l-3.8,4.6L448.3,86.6z M444.7,86
			l4.4-4.8l2.6,0.5l-4.1,4.7L444.7,86z M438,78.6l4.9-3.4l2.8,0.8l-4.4,3.3L438,78.6z M449.3,80.7l3.5-3l2,0.5l-3.1,2.9L449.3,80.7z
			 M445.8,80l4-3l2.3,0.6l-3.6,3L445.8,80z M474.3,89.9l1.3-2.7l0.9,0.4l-1,2.7L474.3,89.9z M419.4,83.1l-9-1.5l15.5-7.2l2.9,1.5
			L419.4,83.1z M460,89.1l2.4-3.6l1.6,1l-2,3.2L460,89.1z M460.6,83.8l2.5-2.5l1.5,1.1l-2.4,2.3L460.6,83.8z M423,71.6l6.7-1.7
			l3,1.4l-6.7,2.4L423,71.6z M437.7,72.9l7.2-3.1l2.3,0.5l-6.7,3.5L437.7,72.9z M471.2,88.3l1.9-2.7l1,0.7l-1.7,2.7L471.2,88.3z
			 M470.3,93.2l2-3.6l1.2,0.6l-1.8,3.9L470.3,93.2z M420.1,83.2l9.1-7l4.1,1.5l-7.6,5.8L420.1,83.2z M425.4,74.1l-15.5,7.2l-3.9-4.6
			l16.1-5L425.4,74.1z M468.4,85.5l2-2.4l0.9,1.2l-2,2.4L468.4,85.5z M426.4,66.4l7.2-0.3l1.2,0.7l-6.8,1.3L426.4,66.4z"/>
		<path id="Eagle-2_1_" class="st5" d="M484.2,104.3l1.2-8.3l2-1.1l-1.2,9.8L484.2,104.3z M481.1,103.8l-2-0.3l1-6.9l2.1,0.1
			L481.1,103.8z M478.4,95.6c0,0.1-0.1,0.1-0.1,0.1l-1.5-0.2c-0.1,0-0.1-0.1-0.1-0.2l0.8-4l1.3,0.2L478.4,95.6z M479,95.8l0.3-4.2
			l1.3,0.1l0,4.3L479,95.8z M487.7,96.1l0.2-1.5l1.4-1.2l0.5,2.1L487.7,96.1z M481.2,96l-0.3-4.2l1.4,0l0.5,4.2L481.2,96z
			 M490.1,95.4l-0.6-2.2l1.5-0.8l0.7,2.6L490.1,95.4z M485.6,95.2l-0.9-3.8l1.4-0.4l1.1,3.3L485.6,95.2z M492,94.9l-0.7-2.8l1.6-0.8
			l0.8,3.4L492,94.9z M524.7,98.8l-3.5-6.7l3.2,0.1l5.5,7.7L524.7,98.8z M524.2,98.8l-4-0.7l-3-6.3l3.5,0.4L524.2,98.8z M516.1,97.3
			l-2.9-6.2l3.4,0.5l3,6.3L516.1,97.3z M496.6,94.7l-1.2-4.2l1.7-0.3l1.5,4.9L496.6,94.7z M512.1,96.7l-2.5-5.9l3,0.4l2.8,6.1
			L512.1,96.7z M501.7,95.3l-2.5-0.3l-1.5-5l2.1,0L501.7,95.3z M487.6,94.1l-1-3.1l1.5-0.8l1,2.7L487.6,94.1z M489.4,92.5l-1-2.6
			l1.4-0.9l1.1,2.7L489.4,92.5z M479.3,91l0.1-2.8l1,0.1l0.1,2.9L479.3,91z M478.9,91l-1.4-0.2l0.7-2.8l0.9,0.2L478.9,91z
			 M482.8,91.2l-0.6-3l1-0.2L484,91L482.8,91.2z M491.4,91.4l-1.1-2.8l1.2-0.6l1.3,2.7L491.4,91.4z M486.1,90.5l-1-3.1l1.3-0.6
			l1.2,3L486.1,90.5z M493.2,90.6l-1.3-2.7l1.5-0.7l1.5,2.9L493.2,90.6z M489.6,88.5l-1.3-3l1-1l1.8,3.1L489.6,88.5z M497.7,89.4
			l-1.6-3.1l2-0.2l1.7,3.3L497.7,89.4z M501.3,85.9l2.5,0.2l2,3.6l-2.7-0.3L501.3,85.9z M491.6,87.3l-1.9-3.2l1-1.1l2.3,3.7
			L491.6,87.3z M513.3,90.6l-3-4.3l2.7,0.2l3.2,4.5L513.3,90.6z M538,89.6l2.7-1.7l14,8.2l-2.9,3.1L538,89.6z M521,91.5l-3.7-4.8
			l2.6,0.1l4.3,4.7L521,91.5z M493.3,86.4l-2.4-3.8l0.7-1.3l3.7,4.5L493.3,86.4z M524.9,91.5l-4.3-4.8l2.9,0l5.5,4.6L524.9,91.5z
			 M495.8,85.6l-3.6-4.4l2.4-0.2l3.2,4.4L495.8,85.6z M529.7,91.2l-5.5-4.6l2.7-0.3l5.8,4.3L529.7,91.2z M498.5,85.3l-3.2-4.4
			l2.5-0.3l3.3,4.7L498.5,85.3z M554.8,95.7l-13.6-8l2.1-1.7l12.9,6.2L554.8,95.7z M501.7,85.4l-3.4-4.8l2.2-0.1l4,5L501.7,85.4z
			 M505.3,85.5l-4-5l2.7,0l4.1,5.2L505.3,85.5z M508.7,85.6l-4.1-5.1l2.4,0l4.3,5.3L508.7,85.6z M512.1,85.9l-4.2-5.3l2.3,0.1
			l5.2,5.5L512.1,85.9z M537.3,89.3l-5.9-3.6l2.4-0.8l6.3,2.9L537.3,89.3z M516.2,86.1l-5.1-5.5l2.4,0.2l5.3,5.5L516.2,86.1z
			 M523.1,86l-5.7-4.9l2.2,0.2l6.3,4.6L523.1,86z M556.4,91.7l-12.8-5.9l1.7-2l12.3,4.1L556.4,91.7z M540.6,87.4l-6.4-2.8l2-1.1
			l6.4,2.5L540.6,87.4z M526.8,85.7l-6.2-4.4l2.8,0.2l5.8,3.9L526.8,85.7z M529.8,85.4l-5.8-3.9l2-0.1l6.3,3.4L529.8,85.4z
			 M543,85.5l-6.5-2.4l1.2-1.3l7.1,1.8L543,85.5z M556.6,83.3c0.6,0.1,1.6,1.3,1.5,1.7c-0.1,0.4-0.5,2.4-0.5,2.4l-12.1-4l0.8-2.1
			L556.6,83.3 M537.2,81.7l-1.5,1.4l-7-2.4l1-0.8L537.2,81.7z M545.1,83.2l-6.9-1.7l0.9-1.5l6.8,1.3L545.1,83.2z M530,79.5l0.5-1.1
			l8.2,1.5l-1,1.5L530,79.5z M478.5,103.4l-1.9-0.3l1.1-6.8l1.8,0.2L478.5,103.4z M483.6,104.2l-1.9-0.3l1-7.2l2.1-0.4L483.6,104.2z
			 M515.3,80.4c0,0,2.6,0.2,3.6,0.3c0.4,0,1.4,0.1,2.3,0.1c1.7,0.1,1.8,0.2,4.4,0c0.8,0,2-0.1,3.1-0.9c0.4-0.3,1.1-1.2,1.2-1.7
			c0,0,0,0-1.8-0.5c-1.1-0.3-2.2-0.6-3.3-0.8c-0.8-0.1-3.6-0.7-3.6-0.7c-1.7-0.3-3.8-0.7-4.8-0.9c-1.9-0.3-1.9-0.3-4.5-0.7
			c-1.6-0.2-1.6-0.2-5.6-0.7c-0.5-0.1-3.2-0.2-5-0.2c-1.1,0-2.4,0.1-3.5,0.1c0,0-0.8,0-3.1,0.3c0,0-0.6,0.1-1.6,0.4
			c-0.3,0.1-0.7,0.2-1,0.3c0,0.4,0.1,1.6,0,2.3c-0.1,0.9,0,0.3,0,0.3c-0.1,0.7-0.1,0.7-0.2,1.4l-0.1,0.3l-0.2,0.8
			c0,0.2-0.1,0.5-0.2,0.7c0.6-0.1,1.3-0.2,3.2-0.4c0,0,1.2-0.2,3-0.3c0.7,0,0,0,2.9-0.1c0.7,0,2.2,0,4.4,0c1.3,0,2.7,0,4.7,0.1
			c0.6,0,2.5,0.1,2.9,0.1c1.2,0.1,0.1,0,1.2,0.1 M504.9,95.7l-2.8-0.4l-1.8-5.4l2.2,0.1L504.9,95.7z M500.4,89.3l-1.7-3.4l2,0.1
			l1.8,3.4L500.4,89.3z M505.4,95.6l-2.2-5.6l2.5,0.3l2.4,5.6L505.4,95.6z M508.7,96.1l-2.4-5.8l2.6,0.3l2.7,5.9L508.7,96.1z
			 M516.9,91.1l-3.1-4.5l2.8,0.1l3.6,4.7L516.9,91.1z M506.5,89.8l-2-3.7l2,0.1l2.4,3.9L506.5,89.8z M509.8,90.2l-2.5-3.9l2.3,0.1
			l2.9,4.1L509.8,90.2z M481,91.2l-0.2-2.9l1,0l0.4,3L481,91.2z M529.9,91.8l3.2-0.6l12.5,11.6l-9-1.3L529.9,91.8z M494.1,94.8
			l-0.9-3.7l1.8-0.5l1.1,4.2L494.1,94.8z M495.4,89.8l-1.6-2.9l1.7-0.6l1.6,3.2L495.4,89.8z M533.3,90.6l-5.6-4.3l3.2-0.4l5.9,3.7
			L533.3,90.6z M519.5,86.2l-5.3-5.4l2.4,0.2l5.9,5.2L519.5,86.2z M484.4,91l-0.8-3.1l1.1-0.3l1,3.1L484.4,91z M483.4,95.9l-0.5-4.2
			l1.4-0.2l0.8,4.1L483.4,95.9z M530.6,100l-5.5-7.9l4.3-0.2l6.5,9.5L530.6,100z M533.7,91.1L533.7,91.1l3.9-1.2l13.8,9.7l-5.1,3.1
			L533.7,91.1z M487.9,89.5l-1.1-2.9l1.2-0.8l1.2,2.9L487.9,89.5z M532.9,84.6l-6-3.3l1.4-0.3l6.8,2.5L532.9,84.6z"/>
	</g>
</g>
</svg>
