<svg version="1.2" baseProfile="tiny-ps" xmlns="http://www.w3.org/2000/svg" viewBox="0 0 400 90" width="400" height="90">
	<title>logo-svg</title>
	<style>
		tspan { white-space:pre }
		.shp0 { fill: #ffffff } 
		.shp1 { fill: #ff0000 } 
		.shp2 { fill: #ffff00 } 
		.shp3 { fill: none;stroke: #ffff00;stroke-width: 0.3 } 
	</style>
	<path id="Lager 1" class="shp0" d="M-6 -17L483 -17L483 126L-6 126L-6 -17Z" />
	<path id="Layer" class="shp1" d="M24.5 69.9C10.84 69.9 -0.2 58.86 -0.2 45.2C-0.2 31.54 10.84 20.5 24.5 20.5C38.16 20.5 49.2 31.54 49.2 45.2C49.2 58.86 38.16 69.9 24.5 69.9Z" />
	<g id="Lager_2">
		<path id="Border" fill-rule="evenodd" class="shp2" d="M20 51.3L29.2 51.3L29.2 53.9L20 53.9L20 51.3ZM28.8 51.6L20.3 51.6L20.3 53.5L28.8 53.5L28.8 51.6Z" />
		<path id="Layer" class="shp3" d="M26.8 51.5L26.8 53.7" />
		<path id="Layer" class="shp3" d="M24.5 51.5L24.5 53.6" />
		<path id="Layer" class="shp3" d="M22.3 51.5L22.3 53.6" />
		<path id="Layer" class="shp2" d="M21 51.9L21.5 51.9C21.5 52 21.4 52.1 21.4 52.2L21.4 52.2L21.4 52.2L21.2 52.2L21.2 52.2L21.2 52.2C21.1 52.2 21 52 21 51.9ZM20.9 52.8C20.9 52.9 20.8 53 20.7 53L20.4 52.7C20.5 52.6 20.6 52.6 20.7 52.6L20.7 52.6L20.7 52.6L20.9 52.8C21 52.8 21 52.8 20.9 52.8L20.9 52.8ZM21.6 53.3C21.5 53.2 21.5 53.1 21.4 53L21.4 53L21.4 52.9L21.5 52.8L21.5 52.8C21.6 52.8 21.8 52.9 21.8 53C22 53 21.6 53.3 21.6 53.3L21.6 53.3ZM20.9 52.5C20.8 52.5 20.7 52.5 20.6 52.5L20.8 52C20.9 52 21 52.2 21 52.3L21 52.3C21 52.3 21 52.3 21 52.4L20.9 52.5L20.9 52.5L20.9 52.5L20.9 52.5ZM21.4 53.3L20.9 53.3C20.9 53.2 21 53.1 21.1 53L21.1 53L21.1 53L21.3 53C21.3 52.9 21.4 53.2 21.4 53.3L21.4 53.3ZM22 52.3C21.9 52.4 21.7 52.4 21.6 52.4L21.5 52.3L21.5 52.3L21.5 52.3C21.5 52.2 21.6 52.1 21.6 52C21.7 51.9 22 52.3 22 52.3L22 52.3ZM21.4 52.3C21.5 52.4 21.5 52.5 21.5 52.6C21.5 52.7 21.3 52.8 21.2 52.8C21.1 52.8 20.9 52.7 20.9 52.6C20.9 52.5 21 52.4 21 52.3L21.1 52.3L21.4 52.3L21.4 52.3L21.4 52.3ZM21.9 52.8C21.8 52.8 21.7 52.7 21.6 52.7L21.6 52.7L21.6 52.7L21.6 52.6L21.6 52.6C21.7 52.6 21.8 52.5 21.9 52.5C22 52.4 22 52.8 21.9 52.8L21.9 52.8Z" />
		<path id="Layer" class="shp2" d="M27.4 51.9C27.4 51.9 27.9 51.7 27.9 51.8C27.9 51.9 27.9 52 27.8 52.1L27.8 52.1L27.8 52.1L27.6 52.1C27.6 52.1 27.6 52.1 27.5 52.1L27.5 52.1C27.6 52.2 27.5 52.1 27.4 51.9ZM27.6 52.9C27.6 53 27.5 53.1 27.5 53.2L27.1 52.9C27.2 52.8 27.3 52.8 27.4 52.7L27.4 52.7L27.4 52.7L27.6 52.9L27.6 52.9L27.6 52.9ZM28.4 53C28.3 53 28.2 52.8 28.1 52.8L28.1 52.8C28.1 52.8 28.1 52.8 28.1 52.7L28.2 52.6L28.2 52.6C28.3 52.6 28.4 52.6 28.5 52.6C28.7 52.6 28.5 53.1 28.4 53L28.4 53ZM27.4 52.6C27.3 52.6 27.2 52.6 27.1 52.6C27.1 52.6 27.2 52.1 27.3 52.1C27.4 52.1 27.5 52.2 27.6 52.3L27.6 52.3C27.6 52.3 27.6 52.3 27.6 52.4L27.4 52.6C27.5 52.6 27.4 52.6 27.4 52.6L27.4 52.6L27.4 52.6ZM28.3 53.2L27.8 53.3C27.8 53.2 27.8 53.1 27.9 53L27.9 53L27.9 53L28.1 53C28 52.9 28.2 53.1 28.3 53.2ZM28.6 52.3C28.5 52.4 28.2 52.4 28.2 52.4L28.1 52.3L28.1 52.3L28.1 52.3C28.1 52.2 28.2 52.1 28.3 52C28.3 51.9 28.6 52.3 28.6 52.3L28.6 52.3ZM27.8 52.8C27.7 52.7 27.6 52.6 27.6 52.5C27.6 52.4 27.7 52.3 27.8 52.3C27.9 52.3 28.1 52.3 28.1 52.4C28.1 52.5 28.1 52.6 28 52.7L28 52.7L27.8 52.8L27.8 52.8L27.8 52.8Z" />
		<path id="Layer" class="shp2" d="M25.4 51.8L26 51.8C26 51.9 25.9 52 25.8 52.1L25.8 52.1C25.8 52.1 25.8 52.1 25.7 52.1L25.5 52.1C25.5 52.1 25.5 52.1 25.4 52.1L25.4 52.1C25.5 52.1 25.4 51.9 25.4 51.8ZM25.4 52.9C25.4 53 25.3 53.1 25.2 53.2L24.9 52.8C25 52.7 25.1 52.7 25.2 52.7L25.2 52.7L25.2 52.7L25.4 52.9C25.4 52.8 25.4 52.8 25.4 52.9L25.4 52.9ZM26.1 53.1C26 53 26 52.9 25.9 52.8L25.9 52.8L25.9 52.7L26 52.6L26 52.6C26.1 52.6 26.2 52.6 26.3 52.7C26.5 52.8 26.2 53.2 26.1 53.1ZM25.3 52.5C25.2 52.5 25.1 52.5 25 52.5C25 52.5 25.2 52 25.3 52C25.4 52.1 25.5 52.2 25.5 52.3L25.5 52.3C25.5 52.3 25.5 52.3 25.5 52.4L25.3 52.5L25.3 52.5L25.3 52.5L25.3 52.5ZM25.9 53.3C25.9 53.3 25.4 53.4 25.4 53.3C25.4 53.2 25.5 53.1 25.6 53L25.6 53L25.6 53L25.8 53C25.8 53 25.9 53.2 25.9 53.3ZM26.4 52.5C26.3 52.6 26 52.5 26 52.5L25.9 52.3L25.9 52.3L25.9 52.3C26 52.2 26 52.1 26.1 52C26.2 52 26.5 52.5 26.4 52.5L26.4 52.5ZM25.5 52.7C25.4 52.6 25.4 52.5 25.4 52.4C25.4 52.3 25.6 52.2 25.7 52.2C25.8 52.2 26 52.3 26 52.4C26 52.5 26 52.6 25.9 52.7L25.8 52.8L25.5 52.7L25.5 52.7L25.5 52.7Z" />
		<path id="Layer" class="shp2" d="M23 51.9L23.5 51.7C23.5 51.8 23.5 51.9 23.5 52L23.5 52L23.5 52L23.3 52.1C23.3 52.1 23.3 52.1 23.2 52.1L23.2 52.1C23.2 52.2 23 52 23 51.9ZM23.1 52.9C23.1 53 23 53.1 22.9 53.2L22.6 52.8C22.7 52.7 22.8 52.7 22.9 52.7L22.9 52.7L22.9 52.7L23.1 52.9C23.2 52.9 23.2 52.9 23.1 52.9L23.1 52.9ZM23.9 53.3C23.8 53.2 23.8 53.1 23.7 53L23.7 53L23.7 52.9L23.8 52.8L23.8 52.8C23.9 52.8 24 52.8 24.1 52.9C24.2 52.9 23.9 53.3 23.9 53.3L23.9 53.3ZM23 52.6C22.9 52.6 22.8 52.6 22.7 52.6L22.9 52.1C23 52.1 23.1 52.3 23.1 52.4L23.1 52.4C23.1 52.4 23.1 52.4 23.1 52.5L23 52.6C23 52.5 23 52.6 23 52.6L23 52.6L23 52.6ZM23.7 53.3L23.2 53.3C23.2 53.2 23.3 53.1 23.4 53L23.4 53L23.4 53L23.6 53C23.5 52.9 23.7 53.2 23.7 53.3L23.7 53.3ZM24.3 52.7C24.2 52.7 23.9 52.7 23.9 52.7L23.8 52.5L23.8 52.5L23.8 52.5C23.9 52.4 24 52.3 24.1 52.2C24.1 52.2 24.3 52.7 24.3 52.7ZM23.6 52.4C23.7 52.5 23.7 52.6 23.7 52.7C23.7 52.8 23.5 52.8 23.4 52.8C23.2 52.8 23.2 52.8 23.2 52.7C23.2 52.6 23.3 52.5 23.3 52.4L23.4 52.3L23.6 52.4L23.6 52.4ZM24.1 52.1C24 52.2 23.9 52.2 23.8 52.2L23.8 52.2C23.8 52.2 23.8 52.2 23.7 52.2L23.6 52.1L23.6 52.1C23.6 52 23.7 51.9 23.8 51.8C23.8 51.8 24.1 52.1 24.1 52.1L24.1 52.1Z" />
		<path id="Sun" class="shp0" d="M27.6 43.8C27.6 45.5 26.2 46.8 24.5 46.8C22.8 46.8 21.4 45.5 21.4 43.8C21.4 42.1 22.8 40.8 24.5 40.8C26.2 40.8 27.6 42.1 27.6 43.8Z" />
		<path id="Eagle" fill-rule="evenodd" class="shp2" d="M21.7 51.3L21.8 48.6L22.3 49L22.3 51.4L21.7 51.3ZM23.2 49.3L23.8 49.4L23.8 51.3L23.2 51.3L23.2 49.3ZM24.3 48L24.7 48L24.7 49.1L24.3 49.1L24.3 48ZM23.7 49.1L23.9 47.9L24.3 47.9L24.2 49.1L23.7 49.1ZM21.2 48.6L21.4 48L21.7 48.4L21.7 48.8L21.2 48.6ZM23.1 49.1L23.4 48L23.8 48.1L23.5 49.3L23.1 49.1ZM20.7 48.4L21 47.7L21.4 48L21.1 48.6L20.7 48.4ZM21.9 48.4L22.3 47.5L22.7 47.7L22.3 48.7L21.9 48.4ZM20.1 48.3L20.5 47.4L20.9 47.7L20.6 48.4L20.1 48.3ZM9.9 48.1L11.8 46.2L12.7 46.3L11.4 48L9.9 48.1ZM12.8 46.4L13.8 46.4L12.7 48L11.6 48L12.8 46.4ZM12.8 48L13.9 46.4L14.8 46.4L13.7 48L12.8 48ZM19.3 46.8L19.8 47L19.3 48.1L18.7 48.1L19.3 46.8ZM14 48L15 46.4L15.8 46.4L14.8 47.9L14 48ZM18.6 46.7L19.2 46.8L18.6 48.1L17.9 48.1L18.6 46.7ZM21.5 47.9L21.9 47.2L22.3 47.5L21.9 48.3L21.5 47.9ZM21 47.5L21.4 46.8L21.7 47.1L21.4 47.8L21 47.5ZM23.9 47.8L24.1 47L24.4 47L24.2 47.8L23.9 47.8ZM24.4 47.1L24.7 47.1L24.8 47.9L24.4 47.9L24.4 47.1ZM22.9 47.6L23.2 46.8L23.5 46.9L23.2 47.7L22.9 47.6ZM20.5 47.2L21 46.5L21.3 46.7L20.9 47.4L20.5 47.2ZM22 47.1L22.5 46.3L22.8 46.5L22.4 47.3L22 47.1ZM20 46.9L20.5 46.2L20.9 46.5L20.4 47.2L20 46.9ZM21.1 46.4L21.7 45.6L21.9 45.9L21.4 46.7L21.1 46.4ZM18.7 46.5L19.3 45.7L19.9 45.9L19.2 46.6L18.7 46.5ZM17.7 46.4L17 46.4L17.7 45.5L18.4 45.6L17.7 46.4ZM20.7 46L21.5 45.1L21.7 45.5L21 46.3L20.7 46ZM14.1 46.2L15.2 45.1L16 45.2L15 46.2L14.1 46.2ZM3.9 47L3.2 46L7.4 44.3L8.1 44.9L3.9 47ZM11.8 46L13.2 44.9L13.9 45L12.7 46.2L11.8 46ZM20 45.7L21.2 44.6L21.3 45L20.5 46L20 45.7ZM10.5 45.8L12.2 44.8L13 44.9L11.6 46L10.5 45.8ZM19.4 45.5L20.5 44.4L21.1 44.6L19.9 45.6L19.4 45.5ZM9.5 45.4L11.3 44.5L12 44.7L10.3 45.7L9.5 45.4ZM18.5 45.3L19.58 44.12C19.75 44.15 19.89 44.18 20 44.21L20.3 44.3L19.2 45.4L18.5 45.3ZM19.58 44.12C19.58 44.12 19.58 44.12 19.58 44.12C19.56 44.11 19.53 44.11 19.49 44.1C19.34 44.02 19.44 44.07 19.02 43.98C19.01 43.97 19.18 44.02 19.32 44.05C19.09 44 18.79 43.92 18.7 43.9C18.5 43.9 18.1 43.8 17.5 43.7C17.1 43.6 16.7 43.6 16.2 43.5C16 43.5 15.5 43.4 15.4 43.4C15.15 43.4 15.32 43.4 15.2 43.4L13.4 44.8L12.6 44.6L14.5 43.4L15.1 43.4L14.8 43.3C14.8 43.3 14.1 43.2 13.8 43.2C13.6 43.2 13.4 43.1 13.1 43.1C12.7 43.1 12.6 43.1 11.9 42.9C11.7 42.8 11.4 42.8 11.1 42.5C11 42.4 10.8 42.2 10.8 42C10.8 42 10.8 42 11.3 41.9C11.6 41.8 11.9 41.8 12.2 41.8C12.4 41.8 13.2 41.8 13.2 41.8C13.7 41.8 14.3 41.8 14.6 41.8C15.2 41.8 15.2 41.8 15.9 41.8C16.4 41.9 16.4 41.8 17.5 41.9C17.6 41.9 18.4 42 18.9 42.1C19.2 42.2 19.6 42.2 19.9 42.3C19.9 42.3 20.1 42.3 20.7 42.5C20.7 42.5 20.8 42.6 21.1 42.7C21.2 42.8 21.3 42.8 21.3 43C21.3 43.2 21.2 43.4 21.2 43.6C21.2 43.9 21.2 43.7 21.2 43.7C21.2 43.9 21.2 44.2 21.2 44.4C21.2 44.5 21.2 44.5 21.2 44.6C21 44.5 20.8 44.5 20.3 44.3C20.3 44.3 20.19 44.26 20 44.21L19.6 44.1L19.58 44.12ZM3 44.8L6.8 43.6L7.3 44.2L3.2 45.8L3 44.8ZM17.5 45.2L18.8 44L19.4 44.1L18.3 45.3L17.5 45.2ZM17.9 43.8L18.6 43.9L17.3 45.1L16.5 45.1L17.9 43.8ZM15.6 45L17 43.7L17.7 43.8L16.3 45L15.6 45ZM14.5 44.9L16.2 43.6L16.8 43.7L15.4 45L14.5 44.9ZM7.6 44.3L9.5 43.8L10.1 44.1L8.3 44.8L7.6 44.3ZM13.6 44.8L15.3 43.5L16 43.6L14.4 44.9L13.6 44.8ZM19.5 44.1C19.5 44.1 19.5 44.1 19.5 44.1C19.5 44.1 19.5 44.1 19.5 44.1ZM19.32 44.05C19.39 44.07 19.44 44.08 19.49 44.1C19.49 44.1 19.5 44.1 19.5 44.1C19.49 44.1 19.41 44.08 19.32 44.05ZM2.8 43.6L6.4 43L6.8 43.6L3 44.7L2.8 43.6ZM7 43.7L8.9 43.3L9.4 43.7L7.5 44.2L7 43.7ZM10.7 44.2L12.5 43.4L13.3 43.5L11.4 44.4L11.08 44.31L9.4 45.3L8.4 44.9L10.2 44.1L10.88 44.25L10.7 44.2ZM9.9 43.8L11.8 43.1L12.3 43.2L10.5 44L9.9 43.8ZM6.5 43L8.5 42.8L8.8 43.2L6.9 43.6L6.5 43ZM3.2 42.3L6.1 42.2L6.2 42.8L2.7 43.4C2.7 43.4 2.7 42.8 2.7 42.7C2.7 42.6 3.1 42.3 3.2 42.3ZM10.8 42.6L11 42.9L9 43.3L8.7 42.8L10.8 42.6ZM6.3 42.3L8.2 42.2L8.4 42.6L6.4 42.8L6.3 42.3ZM8.6 42.6L8.4 42.2L10.7 42.2L10.8 42.5L8.6 42.6ZM24 49.4L24.5 49.4L24.5 51.3L24 51.3L24 49.4ZM22.5 49.1L23.1 49.3L23.1 51.3L22.6 51.3L22.5 49.1ZM11.6 44.4L13.5 43.4L14.1 43.4L12.3 44.5L11.6 44.4ZM17.9 46.6L18.5 46.7L17.8 48.1L17 48.1L17.9 46.6ZM17.9 46.4L18.5 45.5L19 45.6L18.4 46.5L17.9 46.4ZM16.1 48L17 46.6L17.7 46.6L16.9 48L16.1 48ZM15.1 48L16.1 46.5L16.8 46.5L15.9 48L15.1 48ZM12.9 46.2L14.1 45L14.9 45.1L13.8 46.2L12.9 46.2ZM16.1 46.3L16.9 45.3L17.5 45.4L16.8 46.3L16.1 46.3ZM15.1 46.3L16.1 45.3L16.7 45.4L15.8 46.4L15.1 46.3ZM23.7 47L24 47.1L23.8 47.8L23.4 47.8L23.7 47ZM8 48.3L5.4 48.3L9.4 45.6L10.3 45.9L8 48.3ZM19.4 48.1L19.9 47L20.4 47.2L20 48.2L19.4 48.1ZM19.4 46.7L20 45.9L20.4 46.1L19.8 46.8L19.4 46.7ZM22.5 47.5L22.9 46.7L23.2 46.8L22.8 47.6L22.5 47.5ZM22.5 48.8L22.9 47.7L23.3 47.8L23 48.9L22.5 48.8ZM8.2 48.3L10.4 46L11.6 46.2L9.7 48.1L8.2 48.3ZM9.2 45.5L5.2 48.2L3.9 47.1L8.1 45L9.2 45.5ZM21.6 46.8L22.1 46L22.4 46.3L22 47.1L21.6 46.8ZM9.2 43.3L11.2 42.9L11.6 43.1L9.8 43.7L9.2 43.3Z" />
		<path id="Eagle-2" fill-rule="evenodd" class="shp2" d="M26.8 51.3L26.8 48.9L27.3 48.5L27.4 51.2L26.8 51.3ZM25.9 51.3L25.3 51.3L25.3 49.4L25.9 49.3L25.9 51.3ZM24.8 49.2L24.4 49.2L24.4 48.1L24.8 48.1L24.8 49.2ZM25 49.2L24.9 48L25.3 48L25.5 49.2L25 49.2ZM27.4 48.9L27.4 48.5L27.7 48.1L27.9 48.6L27.4 48.9ZM25.6 49.1L25.3 47.9L25.7 47.8L26 48.9L25.6 49.1ZM28 48.6L27.7 48L28.1 47.7L28.4 48.4L28 48.6ZM26.8 48.7L26.4 47.7L26.8 47.5L27.2 48.4L26.8 48.7ZM28.5 48.4L28.2 47.6L28.6 47.3L29 48.2L28.5 48.4ZM37.7 48L36.4 46.3L37.3 46.2L39.2 48.1L37.7 48ZM37.6 48L36.5 48L35.4 46.4L36.4 46.4L37.6 48ZM35.3 48L34.2 46.4L35.2 46.4L36.3 48L35.3 48ZM29.3 47L29.8 46.8L30.4 48.1L29.8 48.1L29.3 47ZM34.1 48L33.1 46.5L33.9 46.5L34.9 48.1L34.1 48ZM31.2 48.1L30.5 48.1L29.9 46.8L30.5 46.7L31.2 48.1ZM27.3 48.3L26.9 47.5L27.3 47.2L27.7 47.9L27.3 48.3ZM27.7 47.8L27.3 47.1L27.6 46.8L28 47.5L27.7 47.8ZM24.9 47.8L24.8 47L25.1 47L25.2 47.8L24.9 47.8ZM24.7 47.9L24.3 47.9L24.4 47.1L24.7 47.1L24.7 47.9ZM25.8 46.8L26.1 47.6L25.8 47.7L25.3 47.8L25.2 47L25.8 46.8ZM28.2 47.4L27.8 46.7L28.1 46.5L28.6 47.2L28.2 47.4ZM26.7 47.4L26.3 46.6L26.6 46.4L27.1 47.2L26.7 47.4ZM28.7 47.1L28.2 46.4L28.6 46.1L29.1 46.8L28.7 47.1ZM27.6 46.7L27.1 45.9L27.3 45.6L27.9 46.4L27.6 46.7ZM29.8 46.6L29.3 45.8L29.9 45.6L30.5 46.4L29.8 46.6ZM30.7 45.5L31.4 45.4L32.1 46.3L31.4 46.3L30.7 45.5ZM28.1 46.3L27.4 45.5L27.6 45.1L28.4 46L28.1 46.3ZM34.2 46.2L33.2 45.2L34 45.1L35.1 46.2L34.2 46.2ZM41 44.9L41.7 44.3L45.9 46L45.2 47L41 44.9ZM36.4 46.2L35.2 45L35.9 44.9L37.3 46L36.4 46.2ZM28.5 46L27.7 45L27.8 44.6L29 45.7L28.5 46ZM37.4 46L36 44.9L36.8 44.8L38.5 45.8L37.4 46ZM29.2 45.6L28 44.6L28.6 44.4L29.7 45.5L29.2 45.6ZM38.8 45.7L37.1 44.7L37.8 44.5L39.6 45.4L38.8 45.7ZM29.9 45.4L28.8 44.3L29.5 44.1L30.6 45.3L29.9 45.4ZM45.9 45.8L41.8 44.2L42.3 43.6L46.1 44.8L45.9 45.8ZM30.8 45.3L29.7 44.1L30.3 44L31.6 45.2L30.8 45.3ZM30.5 44L31.2 43.9L32.6 45.2L31.8 45.2L30.5 44ZM32.7 45.1L31.4 43.8L32.1 43.7L33.5 45L32.7 45.1ZM33.7 45L32.3 43.7L32.9 43.6L34.6 44.9L33.7 45ZM40.8 44.8L39 44.1L39.6 43.8L41.5 44.3L40.8 44.8ZM34.8 44.9L33.2 43.6L33.9 43.5L35.6 44.8L34.8 44.9ZM36.7 44.6L34.9 43.5L35.5 43.5L37.4 44.5L36.7 44.6ZM46.2 44.7L42.4 43.6L42.8 43L46.4 43.6L46.2 44.7ZM41.6 44.2L39.7 43.7L40.2 43.3L42.1 43.7L41.6 44.2ZM37.7 44.3L35.8 43.4L36.6 43.3L38.4 44.1L37.7 44.3ZM38.5 44.1L36.7 43.3L37.2 43.2L39.2 43.8L38.5 44.1ZM42.2 43.6L40.3 43.2L40.6 42.8L42.6 43L42.2 43.6ZM45.9 42.3C46.1 42.3 46.4 42.6 46.4 42.7C46.4 42.8 46.4 43.4 46.4 43.4L42.8 42.8L42.9 42.2L45.9 42.3ZM40.4 42.8L40 43.2L38 42.8L38.2 42.5L40.4 42.8ZM42.7 42.8L40.7 42.6L40.9 42.2L42.8 42.3L42.7 42.8ZM38.3 42.5L38.4 42.2L40.7 42.2L40.5 42.6L38.3 42.5ZM25.2 51.3L24.7 51.3L24.7 49.4L25.2 49.4L25.2 51.3ZM26.6 51.3L26.1 51.3L26.1 49.3L26.7 49.1L26.6 51.3ZM33.9 43.3C33.6 43.3 33.9 43.3 33.6 43.3C33.5 43.3 33 43.4 32.8 43.4C32.2 43.5 31.9 43.5 31.5 43.6C30.9 43.7 30.5 43.8 30.3 43.8C29.5 44 29.7 44 29.5 44C29 44.1 28.7 44.2 28.7 44.2C28.1 44.4 28 44.5 27.8 44.5C27.8 44.4 27.8 44.1 27.8 44C27.8 43.8 27.8 43.8 27.8 43.6C27.8 43.6 27.8 43.8 27.8 43.5C27.8 43.3 27.7 43 27.7 42.9C27.8 42.9 27.9 42.8 28 42.8C28.2 42.7 28.4 42.6 28.4 42.6C29 42.4 29.2 42.4 29.2 42.4C29.5 42.3 29.9 42.3 30.2 42.2C30.7 42.1 31.5 42 31.6 42C32.8 41.9 32.8 41.9 33.2 41.9C34 41.9 34 41.9 34.5 41.9C34.8 41.9 35.4 41.9 35.9 41.9C35.9 41.9 36.7 41.9 36.9 41.9C37.2 41.9 37.5 42 37.8 42C38.3 42.1 38.3 42.1 38.3 42.1C38.2 42.2 38.1 42.5 38 42.6C37.7 42.9 37.4 43 37.2 43C36.5 43.2 36.5 43.2 36 43.2C35.7 43.3 35.4 43.3 35.3 43.3C35 43.4 34.3 43.4 34.3 43.4L33.9 43.3ZM32.1 48L31.3 48L30.6 46.6L31.2 46.5L32.1 48ZM30.6 46.4L30 45.5L30.5 45.4L31.1 46.3L30.6 46.4ZM32.2 48L31.4 46.6L32.1 46.6L33 48L32.2 48ZM33.2 48L32.3 46.5L33 46.5L34 48L33.2 48ZM35.2 46.2L34.2 45.1L35 45L36.2 46.2L35.2 46.2ZM32.3 46.3L31.6 45.4L32.2 45.3L33 46.3L32.3 46.3ZM33.2 46.3L32.3 45.3L32.9 45.2L33.9 46.2L33.2 46.3ZM38.9 45.9L39.8 45.6L43.8 48.3L41.2 48.3L38.9 45.9ZM29.1 48.2L28.7 47.2L29.2 47L29.7 48.1L29.1 48.2ZM29.2 46.8L28.6 46.1L29 45.9L29.6 46.7L29.2 46.8ZM39.7 45.4L38 44.4L38.9 44.2L40.7 45L39.7 45.4ZM35.7 44.8L34 43.5L34.7 43.5L36.6 44.7L35.7 44.8ZM26.3 47.6L25.9 46.8L26.2 46.7L26.6 47.5L26.3 47.6ZM26.2 49L25.9 47.9L26.2 47.8L26.6 48.9L26.2 49ZM39.4 48.1L37.5 46.2L38.7 46L40.9 48.3L39.4 48.1ZM39.9 45.5L40.9 45L45.1 47.1L43.8 48.2L39.9 45.5ZM27.2 47.1L26.8 46.3L27.1 46L27.6 46.8L27.2 47.1ZM39.4 43.7L37.6 43.1L38 42.9L40 43.3L39.4 43.7Z" />
	</g>
	<path id="Aramean Center " fill="#333333" aria-label="Aramean Center"  d="M95.8 61L89.1 61L86.23 52.74L73.91 52.74L71.04 61L64.27 61L76.07 28.66L84.05 28.66L95.8 61ZM80.54 35.23L80.06 33.64L79.92 34.15Q79.69 34.98 79.37 36.03Q79.05 37.09 75.42 47.64L84.72 47.64L81.53 38.35L80.54 35.23ZM106.77 61L100.32 61L100.32 42Q100.32 39.96 100.25 38.6Q100.21 37.22 100.14 36.17L106.29 36.17Q106.36 36.58 106.47 38.69Q106.59 40.78 106.59 41.47L106.68 41.47Q107.62 38.85 108.36 37.8Q109.09 36.72 110.1 36.21Q111.11 35.69 112.62 35.69Q113.86 35.69 114.62 36.03L114.62 41.42Q113.06 41.08 111.87 41.08Q109.46 41.08 108.1 43.03Q106.77 44.98 106.77 48.81L106.77 61ZM124.35 61.46Q120.75 61.46 118.73 59.51Q116.71 57.53 116.71 53.98Q116.71 50.12 119.21 48.1Q121.74 46.08 126.51 46.04L131.86 45.95L131.86 44.68Q131.86 42.25 131.01 41.08Q130.16 39.89 128.23 39.89Q126.44 39.89 125.59 40.71Q124.76 41.52 124.56 43.4L117.83 43.08Q118.45 39.45 121.14 37.59Q123.85 35.71 128.51 35.71Q133.21 35.71 135.76 38.03Q138.3 40.35 138.3 44.61L138.3 53.66Q138.3 55.74 138.76 56.55Q139.25 57.33 140.35 57.33Q141.08 57.33 141.77 57.19L141.77 60.68Q141.2 60.82 140.74 60.93Q140.28 61.05 139.82 61.11Q139.36 61.18 138.83 61.23Q138.33 61.28 137.64 61.28Q135.21 61.28 134.04 60.08Q132.89 58.89 132.66 56.57L132.52 56.57Q129.81 61.46 124.35 61.46ZM131.86 50.76L131.86 49.5L128.55 49.55Q126.3 49.64 125.36 50.05Q124.42 50.44 123.92 51.27Q123.43 52.1 123.43 53.47Q123.43 55.24 124.24 56.11Q125.06 56.96 126.42 56.96Q127.93 56.96 129.17 56.13Q130.43 55.31 131.14 53.86Q131.86 52.39 131.86 50.76ZM165.77 61L159.37 61L159.37 47.07Q159.37 40.53 155.61 40.53Q153.66 40.53 152.42 42.53Q151.2 44.52 151.2 47.69L151.2 61L144.75 61L144.75 41.72Q144.75 39.73 144.68 38.46Q144.64 37.18 144.57 36.17L150.72 36.17Q150.79 36.6 150.9 38.51Q151.02 40.39 151.02 41.1L151.11 41.1Q152.3 38.26 154.07 36.97Q155.86 35.69 158.34 35.69Q164.03 35.69 165.25 41.1L165.38 41.1Q166.65 38.21 168.41 36.95Q170.18 35.69 172.91 35.69Q176.54 35.69 178.44 38.17Q180.35 40.62 180.35 45.23L180.35 61L173.94 61L173.94 47.07Q173.94 40.53 170.18 40.53Q168.3 40.53 167.08 42.37Q165.89 44.18 165.77 47.39L165.77 61ZM196.71 61.46Q191.11 61.46 188.1 58.15Q185.1 54.83 185.1 48.47Q185.1 42.32 188.15 39.01Q191.2 35.71 196.8 35.71Q202.15 35.71 204.97 39.27Q207.79 42.8 207.79 49.64L207.79 49.82L191.87 49.82Q191.87 53.45 193.2 55.31Q194.55 57.14 197.03 57.14Q200.45 57.14 201.35 54.18L207.43 54.71Q204.79 61.46 196.71 61.46ZM196.71 39.77Q194.44 39.77 193.2 41.36Q191.98 42.94 191.91 45.78L201.55 45.78Q201.37 42.78 200.11 41.29Q198.84 39.77 196.71 39.77ZM218.42 61.46Q214.82 61.46 212.8 59.51Q210.78 57.53 210.78 53.98Q210.78 50.12 213.28 48.1Q215.8 46.08 220.58 46.04L225.92 45.95L225.92 44.68Q225.92 42.25 225.08 41.08Q224.23 39.89 222.3 39.89Q220.51 39.89 219.66 40.71Q218.83 41.52 218.63 43.4L211.9 43.08Q212.52 39.45 215.21 37.59Q217.92 35.71 222.57 35.71Q227.28 35.71 229.83 38.03Q232.37 40.35 232.37 44.61L232.37 53.66Q232.37 55.74 232.83 56.55Q233.31 57.33 234.42 57.33Q235.15 57.33 235.84 57.19L235.84 60.68Q235.27 60.82 234.81 60.93Q234.35 61.05 233.89 61.11Q233.43 61.18 232.9 61.23Q232.4 61.28 231.71 61.28Q229.28 61.28 228.1 60.08Q226.96 58.89 226.73 56.57L226.59 56.57Q223.88 61.46 218.42 61.46ZM225.92 50.76L225.92 49.5L222.62 49.55Q220.37 49.64 219.43 50.05Q218.49 50.44 217.98 51.27Q217.5 52.1 217.5 53.47Q217.5 55.24 218.31 56.11Q219.13 56.96 220.49 56.96Q222 56.96 223.24 56.13Q224.5 55.31 225.21 53.86Q225.92 52.39 225.92 50.76ZM261.34 61L254.91 61L254.91 47.07Q254.91 40.53 250.48 40.53Q248.14 40.53 246.69 42.55Q245.27 44.55 245.27 47.69L245.27 61L238.82 61L238.82 41.72Q238.82 39.73 238.75 38.46Q238.71 37.18 238.64 36.17L244.79 36.17Q244.86 36.6 244.97 38.51Q245.09 40.39 245.09 41.1L245.18 41.1Q246.49 38.26 248.46 36.97Q250.43 35.69 253.17 35.69Q257.11 35.69 259.22 38.12Q261.34 40.55 261.34 45.23L261.34 61ZM287.44 34.87Q282.64 34.87 279.97 37.97Q277.31 41.05 277.31 46.42Q277.31 51.73 280.08 54.97Q282.86 58.19 287.6 58.19Q293.67 58.19 296.73 52.18L299.93 53.78Q298.14 57.51 294.9 59.46Q291.68 61.41 287.42 61.41Q283.05 61.41 279.85 59.61Q276.67 57.78 274.99 54.42Q273.33 51.03 273.33 46.42Q273.33 39.51 277.06 35.59Q280.79 31.67 287.4 31.67Q292.01 31.67 295.11 33.48Q298.2 35.28 299.66 38.83L295.95 40.06Q294.94 37.54 292.71 36.21Q290.49 34.87 287.44 34.87ZM323.02 50.68L307.19 50.68Q307.19 54.5 308.77 56.57Q310.35 58.64 313.38 58.64Q315.78 58.64 317.22 57.68Q318.67 56.71 319.18 55.24L322.42 56.16Q320.43 61.41 313.38 61.41Q308.46 61.41 305.87 58.48Q303.31 55.54 303.31 49.76Q303.31 44.27 305.87 41.33Q308.46 38.4 313.24 38.4Q323.02 38.4 323.02 50.19L323.02 50.68ZM307.23 47.85L319.2 47.85Q318.9 44.35 317.42 42.75Q315.94 41.13 313.18 41.13Q310.49 41.13 308.91 42.93Q307.35 44.72 307.23 47.85ZM345.52 61L341.8 61L341.8 46.93Q341.8 44.74 341.37 43.53Q340.94 42.32 340 41.78Q339.06 41.25 337.23 41.25Q334.56 41.25 333.03 43.08Q331.49 44.9 331.49 48.14L331.49 61L327.8 61L327.8 43.55Q327.8 39.67 327.67 38.81L331.16 38.81Q331.18 38.91 331.2 39.36Q331.22 39.82 331.24 40.41Q331.28 40.98 331.32 42.6L331.39 42.6Q332.66 40.31 334.32 39.36Q336 38.4 338.48 38.4Q342.13 38.4 343.81 40.23Q345.52 42.03 345.52 46.21L345.52 61ZM359.6 58.11L359.6 60.84Q357.78 61.33 355.87 61.33Q351.44 61.33 351.44 56.3L351.44 41.5L348.88 41.5L348.88 38.81L351.59 38.81L352.67 33.85L355.13 33.85L355.13 38.81L359.24 38.81L359.24 41.5L355.13 41.5L355.13 55.5Q355.13 57.1 355.65 57.76Q356.18 58.4 357.47 58.4Q358.21 58.4 359.6 58.11ZM381.4 50.68L365.57 50.68Q365.57 54.5 367.15 56.57Q368.73 58.64 371.77 58.64Q374.17 58.64 375.6 57.68Q377.06 56.71 377.57 55.24L380.81 56.16Q378.82 61.41 371.77 61.41Q366.84 61.41 364.26 58.48Q361.7 55.54 361.7 49.76Q361.7 44.27 364.26 41.33Q366.84 38.4 371.62 38.4Q381.4 38.4 381.4 50.19L381.4 50.68ZM365.61 47.85L377.59 47.85Q377.28 44.35 375.81 42.75Q374.33 41.13 371.56 41.13Q368.87 41.13 367.3 42.93Q365.74 44.72 365.61 47.85ZM389.87 61L386.18 61L386.18 43.98Q386.18 41.64 386.06 38.81L389.55 38.81Q389.71 42.58 389.71 43.34L389.79 43.34Q390.67 40.49 391.82 39.45Q392.97 38.4 395.06 38.4Q395.8 38.4 396.56 38.61L396.56 41.99Q395.82 41.78 394.59 41.78Q392.29 41.78 391.08 43.77Q389.87 45.74 389.87 49.43L389.87 61Z" />
</svg>