<?xml version="1.0" encoding="utf-8"?>
<!-- Generator: Adobe Illustrator 21.0.0, SVG Export Plug-In . SVG Version: 6.00 Build 0)  -->
<svg version="1.1" id="svg548" xmlns="http://www.w3.org/2000/svg" xmlns:xlink="http://www.w3.org/1999/xlink" x="0px" y="0px"
	 viewBox="0 0 428.5 93.6" style="enable-background:new 0 0 428.5 93.6;" xml:space="preserve">
<style type="text/css">
	.st0{fill:#FF0000;}
	.st1{fill:#FFFF00;}
	.st2{fill:none;stroke:#FFFF00;stroke-width:0.3;stroke-miterlimit:10;}
	.st3{fill:#FFFFFF;}
	.st4{fill:#4F4F4F;}
	.st5{font-family:'MyriadPro-Regular';}
	.st6{font-size:45.0869px;}
</style>
<circle class="st0" cx="56.3" cy="42.4" r="24.7"/>
<title>syriac_aramean_tell_halaf_flag</title>
<g id="Lager_2">
	<path id="Border" class="st1" d="M51.8,48.5h9.2v2.6h-9.2V48.5z M60.6,48.8l-8.5,0v1.9l8.5,0L60.6,48.8z"/>
	<line class="st2" x1="58.6" y1="48.7" x2="58.6" y2="50.9"/>
	<line class="st2" x1="56.3" y1="48.7" x2="56.3" y2="50.8"/>
	<line class="st2" x1="54.1" y1="48.7" x2="54.1" y2="50.8"/>
	<path class="st1" d="M52.8,49.1c0,0,0.5,0,0.5,0c0,0.1-0.1,0.2-0.1,0.3l0,0c0,0,0,0,0,0h-0.2c0,0,0,0,0,0l0,0
		C52.9,49.4,52.8,49.2,52.8,49.1z M52.7,50c0,0.1-0.1,0.2-0.2,0.2c0,0-0.3-0.3-0.3-0.3c0.1-0.1,0.2-0.1,0.3-0.1l0,0c0,0,0,0,0,0
		L52.7,50C52.8,50,52.8,50,52.7,50L52.7,50z M53.4,50.5c-0.1-0.1-0.1-0.2-0.2-0.3l0,0c0,0,0-0.1,0-0.1l0.1-0.1c0,0,0,0,0,0
		c0.1,0,0.3,0.1,0.3,0.2C53.8,50.2,53.4,50.5,53.4,50.5L53.4,50.5z M52.7,49.7c-0.1,0-0.2,0-0.3,0c0,0,0.2-0.5,0.2-0.5
		c0.1,0,0.2,0.2,0.2,0.3l0,0c0,0,0,0,0,0.1L52.7,49.7C52.7,49.7,52.7,49.7,52.7,49.7L52.7,49.7L52.7,49.7z M53.2,50.5
		c0,0-0.5,0-0.5,0c0-0.1,0.1-0.2,0.2-0.3l0,0c0,0,0,0,0,0l0.2,0C53.1,50.1,53.2,50.4,53.2,50.5L53.2,50.5z M53.8,49.5
		c-0.1,0.1-0.3,0.1-0.4,0.1l-0.1-0.1c0,0,0,0,0,0l0,0c0-0.1,0.1-0.2,0.1-0.3C53.5,49.1,53.8,49.5,53.8,49.5L53.8,49.5z M53.2,49.5
		c0.1,0.1,0.1,0.2,0.1,0.3c0,0.1-0.2,0.2-0.3,0.2c-0.1,0-0.3-0.1-0.3-0.2c0-0.1,0.1-0.2,0.1-0.3l0.1,0L53.2,49.5L53.2,49.5
		L53.2,49.5z M53.7,50c-0.1,0-0.2-0.1-0.3-0.1l0,0c0,0,0,0,0,0l0-0.1c0,0,0,0,0,0c0.1,0,0.2-0.1,0.3-0.1C53.8,49.6,53.8,50,53.7,50
		L53.7,50z"/>
	<path class="st1" d="M59.2,49.1c0,0,0.5-0.2,0.5-0.1c0,0.1,0,0.2-0.1,0.3l0,0c0,0,0,0,0,0l-0.2,0c0,0,0,0-0.1,0l0,0
		C59.4,49.4,59.3,49.3,59.2,49.1z M59.4,50.1c0,0.1-0.1,0.2-0.1,0.3c0,0-0.4-0.3-0.4-0.3c0.1-0.1,0.2-0.1,0.3-0.2l0,0c0,0,0,0,0,0
		L59.4,50.1C59.4,50.1,59.4,50.1,59.4,50.1L59.4,50.1z M60.2,50.2c-0.1,0-0.2-0.2-0.3-0.2l0,0c0,0,0,0,0-0.1l0.1-0.1c0,0,0,0,0,0
		c0.1,0,0.2,0,0.3,0C60.5,49.8,60.3,50.3,60.2,50.2L60.2,50.2z M59.2,49.8c-0.1,0-0.2,0-0.3,0c0,0,0.1-0.5,0.2-0.5
		c0.1,0,0.2,0.1,0.3,0.2l0,0c0,0,0,0,0,0.1L59.2,49.8C59.3,49.8,59.2,49.8,59.2,49.8L59.2,49.8L59.2,49.8z M60.1,50.4
		c0,0-0.5,0.1-0.5,0.1c0-0.1,0-0.2,0.1-0.3l0,0c0,0,0,0,0,0l0.2,0C59.8,50.1,60,50.3,60.1,50.4z M60.4,49.5
		c-0.1,0.1-0.4,0.1-0.4,0.1l-0.1-0.1c0,0,0,0,0,0l0,0c0-0.1,0.1-0.2,0.2-0.3C60.1,49.1,60.4,49.5,60.4,49.5L60.4,49.5z M59.6,50
		c-0.1-0.1-0.2-0.2-0.2-0.3c0-0.1,0.1-0.2,0.2-0.2c0.1,0,0.3,0,0.3,0.1c0,0.1,0,0.2-0.1,0.3l0,0L59.6,50L59.6,50L59.6,50z"/>
	<path class="st1" d="M57.2,49c0,0,0.6,0,0.6,0c0,0.1-0.1,0.2-0.2,0.3l0,0c0,0,0,0-0.1,0l-0.2,0c0,0,0,0-0.1,0l0,0
		C57.3,49.3,57.2,49.1,57.2,49z M57.2,50.1c0,0.1-0.1,0.2-0.2,0.3c0,0-0.3-0.4-0.3-0.4c0.1-0.1,0.2-0.1,0.3-0.1l0,0c0,0,0,0,0,0
		L57.2,50.1C57.2,50,57.2,50,57.2,50.1L57.2,50.1z M57.9,50.3c-0.1-0.1-0.1-0.2-0.2-0.3l0,0c0,0,0-0.1,0-0.1l0.1-0.1c0,0,0,0,0,0
		c0.1,0,0.2,0,0.3,0.1C58.3,50,58,50.4,57.9,50.3z M57.1,49.7c-0.1,0-0.2,0-0.3,0c0,0,0.2-0.5,0.3-0.5c0.1,0.1,0.2,0.2,0.2,0.3l0,0
		c0,0,0,0,0,0.1L57.1,49.7C57.1,49.7,57.1,49.7,57.1,49.7L57.1,49.7L57.1,49.7z M57.7,50.5c0,0-0.5,0.1-0.5,0c0-0.1,0.1-0.2,0.2-0.3
		l0,0c0,0,0,0,0,0h0.2C57.6,50.2,57.7,50.4,57.7,50.5z M58.2,49.7c-0.1,0.1-0.4,0-0.4,0l-0.1-0.2c0,0,0,0,0,0l0,0
		c0.1-0.1,0.1-0.2,0.2-0.3C58,49.2,58.3,49.7,58.2,49.7L58.2,49.7z M57.3,49.9c-0.1-0.1-0.1-0.2-0.1-0.3c0-0.1,0.2-0.2,0.3-0.2
		c0.1,0,0.3,0.1,0.3,0.2c0,0.1,0,0.2-0.1,0.3L57.6,50L57.3,49.9L57.3,49.9L57.3,49.9z"/>
	<path class="st1" d="M54.8,49.1c0,0,0.5-0.2,0.5-0.2c0,0.1,0,0.2,0,0.3l0,0c0,0,0,0,0,0l-0.2,0.1c0,0,0,0-0.1,0l0,0
		C55,49.4,54.8,49.2,54.8,49.1z M54.9,50.1c0,0.1-0.1,0.2-0.2,0.3c0,0-0.3-0.4-0.3-0.4c0.1-0.1,0.2-0.1,0.3-0.1l0,0c0,0,0,0,0,0
		L54.9,50.1C55,50.1,55,50.1,54.9,50.1L54.9,50.1z M55.7,50.5c-0.1-0.1-0.1-0.2-0.2-0.3l0,0c0,0,0-0.1,0-0.1l0.1-0.1c0,0,0,0,0,0
		c0.1,0,0.2,0,0.3,0.1C56,50.1,55.7,50.5,55.7,50.5L55.7,50.5z M54.8,49.8c-0.1,0-0.2,0-0.3,0c0,0,0.2-0.5,0.2-0.5
		c0.1,0,0.2,0.2,0.2,0.3l0,0c0,0,0,0,0,0.1L54.8,49.8C54.8,49.7,54.8,49.8,54.8,49.8L54.8,49.8L54.8,49.8z M55.5,50.5
		c0,0-0.5,0-0.5,0c0-0.1,0.1-0.2,0.2-0.3l0,0c0,0,0,0,0,0l0.2,0C55.3,50.1,55.5,50.4,55.5,50.5L55.5,50.5z M56.1,49.9
		c-0.1,0-0.4,0-0.4,0l-0.1-0.2c0,0,0,0,0,0l0,0c0.1-0.1,0.2-0.2,0.3-0.3C55.9,49.4,56.1,49.9,56.1,49.9z M55.4,49.6
		c0.1,0.1,0.1,0.2,0.1,0.3c0,0.1-0.2,0.1-0.3,0.1C55,50,55,50,55,49.9c0-0.1,0.1-0.2,0.1-0.3l0.1-0.1L55.4,49.6L55.4,49.6z
		 M55.9,49.3c-0.1,0.1-0.2,0.1-0.3,0.1l0,0c0,0,0,0-0.1,0l-0.1-0.1c0,0,0,0,0,0c0-0.1,0.1-0.2,0.2-0.3C55.6,49,55.9,49.3,55.9,49.3
		L55.9,49.3z"/>
	<path id="Sun" class="st3" d="M59.4,41c0,1.7-1.4,3-3.1,3s-3.1-1.3-3.1-3c0-1.7,1.4-3,3.1-3S59.4,39.3,59.4,41"/>
	<path id="Eagle" class="st1" d="M53.5,48.5l0.1-2.7l0.5,0.4l0,2.4L53.5,48.5z M55,46.5l0.6,0.1l0,1.9l-0.6,0L55,46.5z M56.1,45.2
		h0.4l0,1.1c0,0,0,0,0,0h-0.4c0,0,0,0,0,0L56.1,45.2z M55.5,46.3l0.2-1.2l0.4,0l-0.1,1.2L55.5,46.3z M53,45.8l0.2-0.6l0.3,0.4l0,0.4
		L53,45.8z M54.9,46.3l0.3-1.1l0.4,0.1l-0.3,1.2L54.9,46.3z M52.5,45.6l0.3-0.7l0.4,0.3l-0.3,0.6L52.5,45.6z M53.7,45.6l0.4-0.9
		l0.4,0.2l-0.4,1L53.7,45.6z M51.9,45.5l0.4-0.9l0.4,0.3l-0.3,0.7L51.9,45.5z M41.7,45.3l1.9-1.9l0.9,0.1l-1.3,1.7L41.7,45.3z
		 M44.6,43.6l1,0l-1.1,1.6l-1.1,0L44.6,43.6z M44.6,45.2l1.1-1.6h0.9l-1.1,1.6L44.6,45.2z M50.5,45.3l0.6-1.3l0.5,0.2l-0.5,1.1H50.5
		z M45.8,45.2l1-1.6l0.8,0l-1,1.5L45.8,45.2z M50.4,43.9L51,44l-0.6,1.3l-0.7,0L50.4,43.9z M53.3,45.1l0.4-0.7l0.4,0.3l-0.4,0.8
		L53.3,45.1z M52.8,44.7l0.4-0.7l0.3,0.3L53.2,45L52.8,44.7z M55.7,45l0.2-0.8l0.3,0L56,45L55.7,45z M56.2,44.3l0.3,0l0.1,0.8
		l-0.4,0L56.2,44.3z M54.7,44.8l0.3-0.8l0.3,0.1l-0.3,0.8L54.7,44.8z M52.3,44.4l0.5-0.7l0.3,0.2l-0.4,0.7L52.3,44.4z M53.8,44.3
		l0.5-0.8l0.3,0.2l-0.4,0.8L53.8,44.3z M51.8,44.1l0.5-0.7l0.4,0.3l-0.5,0.7L51.8,44.1z M52.9,43.6l0.6-0.8l0.2,0.3l-0.5,0.8
		L52.9,43.6z M50.5,43.7l0.6-0.8l0.6,0.2L51,43.8L50.5,43.7z M49.5,43.6l-0.7,0l0.7-0.9l0.7,0.1L49.5,43.6z M52.5,43.2l0.8-0.9
		l0.2,0.4l-0.7,0.8L52.5,43.2z M45.9,43.4l1.1-1.1l0.8,0.1l-1,1L45.9,43.4z M35.7,44.2l-0.7-1l4.2-1.7l0.7,0.6L35.7,44.2z
		 M43.6,43.2l1.4-1.1l0.7,0.1l-1.2,1.2L43.6,43.2z M51.8,42.9l1.2-1.1l0.1,0.4l-0.8,1L51.8,42.9z M42.3,43l1.7-1l0.8,0.1l-1.4,1.1
		L42.3,43z M51.2,42.7l1.1-1.1l0.6,0.2l-1.2,1L51.2,42.7z M41.3,42.6l1.8-0.9l0.7,0.2l-1.7,1L41.3,42.6z M50.3,42.5l1.1-1.2l0.7,0.2
		L51,42.6L50.3,42.5z M34.8,42l3.8-1.2l0.5,0.6L35,43L34.8,42z M49.3,42.4l1.3-1.2l0.6,0.1l-1.1,1.2L49.3,42.4z M48.3,42.3l1.4-1.3
		l0.7,0.1l-1.3,1.2L48.3,42.3z M47.4,42.2l1.4-1.3l0.7,0.1l-1.4,1.2L47.4,42.2z M46.3,42.1l1.7-1.3l0.6,0.1l-1.4,1.3L46.3,42.1z
		 M39.4,41.5l1.9-0.5l0.6,0.3L40.1,42L39.4,41.5z M45.4,42l1.7-1.3l0.7,0.1l-1.6,1.3L45.4,42z M43.4,41.6l1.9-1l0.6,0l-1.8,1.1
		L43.4,41.6z M34.6,40.8l3.6-0.6l0.4,0.6l-3.8,1.1L34.6,40.8z M38.8,40.9l1.9-0.4l0.5,0.4l-1.9,0.5L38.8,40.9z M42.5,41.4l1.8-0.8
		l0.8,0.1l-1.9,0.9L42.5,41.4z M41.7,41l1.9-0.7l0.5,0.1l-1.8,0.8L41.7,41z M38.3,40.2l2-0.2l0.3,0.4l-1.9,0.4L38.3,40.2z M35,39.5
		l2.9-0.1l0.1,0.6l-3.5,0.6c0,0,0-0.6,0-0.7S34.9,39.5,35,39.5 M42.6,39.8l0.2,0.3l-2,0.4L40.5,40L42.6,39.8z M38.1,39.5l1.9-0.1
		l0.2,0.4l-2,0.2L38.1,39.5z M40.4,39.8l-0.2-0.4l2.3,0l0.1,0.3L40.4,39.8z M55.8,46.6l0.5,0v1.9h-0.5L55.8,46.6z M54.3,46.3
		l0.6,0.2l0,2h-0.5L54.3,46.3z M46.9,40.6c0.3,0,0,0,0.3,0c0.1,0,0.6,0.1,0.8,0.1c0.5,0.1,0.9,0.1,1.3,0.2c0.6,0.1,1,0.2,1.2,0.2
		c0.8,0.2,0.6,0.1,0.8,0.2c0.5,0.1,0.8,0.2,0.8,0.2c0.5,0.2,0.7,0.2,0.9,0.3c0-0.1,0-0.1,0-0.2l0-0.2v-0.1c0-0.2,0-0.2,0-0.4
		c0,0,0,0.2,0-0.1c0-0.2,0.1-0.4,0.1-0.6C53.1,40,53,40,52.9,39.9c-0.3-0.1-0.4-0.2-0.4-0.2c-0.6-0.2-0.8-0.2-0.8-0.2
		c-0.3-0.1-0.7-0.1-1-0.2c-0.5-0.1-1.3-0.2-1.4-0.2c-1.1-0.1-1.1,0-1.6-0.1c-0.7,0-0.7,0-1.3,0c-0.3,0-0.9,0-1.4,0c0,0-0.8,0-1,0
		c-0.3,0-0.6,0-0.9,0.1c-0.5,0.1-0.5,0.1-0.5,0.1c0,0.2,0.2,0.4,0.3,0.5c0.3,0.3,0.6,0.3,0.8,0.4c0.7,0.2,0.8,0.2,1.2,0.2
		c0.3,0,0.5,0.1,0.7,0.1c0.3,0,1,0.1,1,0.1 M49.7,43.8l0.6,0.1l-0.7,1.4l-0.8,0L49.7,43.8z M49.7,43.6l0.6-0.9l0.5,0.1l-0.6,0.9
		L49.7,43.6z M47.9,45.2l0.9-1.4l0.7,0l-0.8,1.4L47.9,45.2z M46.9,45.2l1-1.5l0.7,0l-0.9,1.5L46.9,45.2z M44.7,43.4l1.2-1.2l0.8,0.1
		l-1.1,1.1L44.7,43.4z M47.9,43.5l0.8-1l0.6,0.1l-0.7,0.9L47.9,43.5z M46.9,43.5l1-1l0.6,0.1l-0.9,1L46.9,43.5z M55.2,45l0.3-0.8
		l0.3,0.1L55.6,45L55.2,45z M39.8,45.5l-2.6,0l4-2.7l0.9,0.3L39.8,45.5z M51.2,45.3l0.5-1.1l0.5,0.2l-0.4,1L51.2,45.3z M51.2,43.9
		l0.6-0.8l0.4,0.2L51.6,44L51.2,43.9z M40.2,42.1l1.8-0.8l0.9,0.2l-1.7,1L40.2,42.1z M44.4,41.8l1.9-1.2l0.7,0L45.2,42L44.4,41.8z
		 M54.3,44.7l0.4-0.8L55,44l-0.4,0.8L54.3,44.7z M54.3,46l0.4-1.1l0.4,0.1l-0.3,1.1L54.3,46z M40,45.5l2.2-2.3l1.2,0.2l-1.9,1.9
		L40,45.5z M41,42.7l-4,2.7l-1.3-1.1l4.2-2.1L41,42.7z M53.4,44l0.5-0.8l0.3,0.3l-0.4,0.8L53.4,44z M41,40.5l2-0.4l0.4,0.2l-1.8,0.6
		L41,40.5z"/>
	<path id="Eagle-2" class="st1" d="M58.6,48.5l0-2.4l0.5-0.4l0.1,2.7L58.6,48.5z M57.7,48.5l-0.6,0l0-1.9l0.6-0.1L57.7,48.5z
		 M56.6,46.4C56.6,46.4,56.6,46.4,56.6,46.4l-0.4,0c0,0,0,0,0,0l0-1.1h0.4L56.6,46.4z M56.8,46.4l-0.1-1.2l0.4,0l0.2,1.2L56.8,46.4z
		 M59.2,46.1l0-0.4l0.3-0.4l0.2,0.5L59.2,46.1z M57.4,46.3l-0.3-1.2l0.4-0.1l0.3,1.1L57.4,46.3z M59.8,45.8l-0.3-0.6l0.4-0.3
		l0.3,0.7L59.8,45.8z M58.6,45.9l-0.4-1l0.4-0.2l0.4,0.9L58.6,45.9z M60.3,45.6L60,44.8l0.4-0.3l0.4,0.9L60.3,45.6z M69.5,45.2
		l-1.3-1.7l0.9-0.1l1.9,1.9L69.5,45.2z M69.4,45.2l-1.1,0l-1.1-1.6l1,0L69.4,45.2z M67.1,45.2L66,43.6h1l1.1,1.6L67.1,45.2z
		 M61.6,45.3l-0.5-1.1l0.5-0.2l0.6,1.3L61.6,45.3z M65.9,45.2l-1-1.5l0.8,0l1,1.6L65.9,45.2z M63,45.3l-0.7,0L61.7,44l0.6-0.1
		L63,45.3z M59.1,45.5l-0.4-0.8l0.4-0.3l0.4,0.7L59.1,45.5z M59.5,45l-0.4-0.7l0.3-0.3l0.4,0.7L59.5,45z M56.7,45l-0.1-0.8l0.3,0
		L57,45L56.7,45z M56.5,45.1l-0.4,0l0.1-0.8l0.3,0L56.5,45.1z M57.6,44.9l-0.3-0.8l0.3-0.1l0.3,0.8L57.6,44.9z M60,44.6l-0.4-0.7
		l0.3-0.2l0.5,0.7L60,44.6z M58.5,44.6l-0.4-0.8l0.3-0.2l0.5,0.8L58.5,44.6z M60.5,44.3L60,43.6l0.4-0.3l0.5,0.7L60.5,44.3z
		 M59.4,43.9l-0.5-0.8l0.2-0.3l0.6,0.8L59.4,43.9z M61.6,43.8L61.1,43l0.6-0.2l0.6,0.8L61.6,43.8z M62.5,42.7l0.7-0.1l0.7,0.9
		l-0.7,0L62.5,42.7z M59.9,43.5l-0.7-0.8l0.2-0.4l0.8,0.9L59.9,43.5z M66,43.4l-1-1l0.8-0.1l1.1,1.1L66,43.4z M72.8,42.1l0.7-0.6
		l4.2,1.7l-0.7,1L72.8,42.1z M68.2,43.4l-1.2-1.2l0.7-0.1l1.4,1.1L68.2,43.4z M60.3,43.2l-0.8-1l0.1-0.4l1.2,1.1L60.3,43.2z
		 M69.2,43.2l-1.4-1.1l0.8-0.1l1.7,1L69.2,43.2z M61,42.8l-1.2-1l0.6-0.2l1.1,1.1L61,42.8z M70.6,42.9l-1.7-1l0.7-0.2l1.8,0.9
		L70.6,42.9z M61.7,42.6l-1.1-1.1l0.7-0.2l1.1,1.2L61.7,42.6z M77.7,43l-4.1-1.6l0.5-0.6l3.8,1.2L77.7,43z M62.6,42.5l-1.1-1.2
		l0.6-0.1l1.3,1.2L62.6,42.5z M63.6,42.4l-1.3-1.2l0.7-0.1l1.4,1.3L63.6,42.4z M64.5,42.3L63.2,41l0.7-0.1l1.4,1.3L64.5,42.3z
		 M65.5,42.2l-1.4-1.3l0.6-0.1l1.7,1.3L65.5,42.2z M72.6,42l-1.8-0.7l0.6-0.3l1.9,0.5L72.6,42z M66.6,42.1L65,40.8l0.7-0.1l1.7,1.3
		L66.6,42.1z M68.5,41.8l-1.8-1.1l0.6,0l1.9,1L68.5,41.8z M78,41.9l-3.8-1.1l0.4-0.6l3.6,0.6L78,41.9z M73.4,41.4l-1.9-0.5l0.5-0.4
		l1.9,0.4L73.4,41.4z M69.5,41.5l-1.9-0.9l0.8-0.1l1.8,0.8L69.5,41.5z M70.3,41.3l-1.8-0.8l0.5-0.1L71,41L70.3,41.3z M74,40.8
		l-1.9-0.4l0.3-0.4l2,0.2L74,40.8z M77.7,39.5c0.2,0,0.5,0.3,0.5,0.4c0,0.1,0,0.7,0,0.7L74.6,40l0.1-0.6L77.7,39.5 M72.2,40
		l-0.4,0.4l-2-0.4l0.2-0.3L72.2,40z M74.5,40l-2-0.2l0.2-0.4l1.9,0.1L74.5,40z M70.1,39.7l0.1-0.3l2.3,0l-0.2,0.4L70.1,39.7z
		 M57,48.5h-0.5v-1.9l0.5,0L57,48.5z M58.4,48.5h-0.5l0-2l0.6-0.2L58.4,48.5z M66.1,40.6c0,0,0.7,0,1-0.1c0.1,0,0.4,0,0.7-0.1
		c0.5,0,0.5,0,1.2-0.2c0.2,0,0.5-0.1,0.8-0.4c0.1-0.1,0.2-0.4,0.3-0.5c0,0,0,0-0.5-0.1c-0.3,0-0.6-0.1-0.9-0.1c-0.2,0-1,0-1,0
		c-0.5,0-1.1,0-1.4,0c-0.5,0-0.5,0-1.3,0c-0.4,0-0.4,0-1.6,0.1c-0.1,0-0.9,0.1-1.4,0.2c-0.3,0.1-0.7,0.1-1,0.2c0,0-0.2,0-0.8,0.2
		c0,0-0.2,0.1-0.4,0.2c-0.1,0-0.2,0.1-0.3,0.1c0,0.1,0.1,0.4,0.1,0.6c0,0.3,0,0.1,0,0.1c0,0.2,0,0.2,0,0.4v0.1l0,0.2
		c0,0.1,0,0.1,0,0.2c0.2,0,0.3-0.1,0.9-0.3c0,0,0.3-0.1,0.8-0.2c0.2,0,0,0,0.8-0.2c0.2,0,0.6-0.1,1.2-0.2c0.4-0.1,0.7-0.1,1.3-0.2
		c0.2,0,0.7-0.1,0.8-0.1c0.3,0,0,0,0.3,0 M63.9,45.2l-0.8,0l-0.7-1.4l0.6-0.1L63.9,45.2z M62.4,43.6l-0.6-0.9l0.5-0.1l0.6,0.9
		L62.4,43.6z M64,45.2l-0.8-1.4l0.7,0l0.9,1.4L64,45.2z M65,45.2l-0.9-1.5l0.7,0l1,1.5L65,45.2z M67,43.4L66,42.3l0.8-0.1l1.2,1.2
		L67,43.4z M64.1,43.5l-0.7-0.9l0.6-0.1l0.8,1L64.1,43.5z M65,43.5l-0.9-1l0.6-0.1l1,1L65,43.5z M57.1,45L57,44.2l0.3-0.1l0.3,0.8
		L57.1,45z M70.7,43.1l0.9-0.3l4,2.7l-2.6,0L70.7,43.1z M60.9,45.4l-0.4-1l0.5-0.2l0.5,1.1L60.9,45.4z M61,44l-0.6-0.7l0.4-0.2
		l0.6,0.8L61,44z M71.5,42.6l-1.7-1l0.9-0.2l1.8,0.8L71.5,42.6z M67.5,42l-1.7-1.3l0.7,0l1.9,1.2L67.5,42z M58.1,44.8L57.7,44
		l0.3-0.1l0.4,0.8L58.1,44.8z M58,46.2l-0.3-1.1L58,45l0.4,1.1L58,46.2z M71.2,45.3l-1.9-1.9l1.2-0.2l2.2,2.3L71.2,45.3z M71.7,42.7
		L71.7,42.7l1-0.5l4.2,2.1l-1.3,1.1L71.7,42.7z M59,44.3l-0.4-0.8l0.3-0.3l0.5,0.8L59,44.3z M71.2,40.9l-1.8-0.6l0.4-0.2l2,0.4
		L71.2,40.9z"/>
</g>
<text transform="matrix(1 0 0 1 97.8512 57.8521)" class="st4 st5 st6">Aramean Center</text>
</svg>
