<?xml version="1.0" encoding="utf-8"?>
<!-- Generator: Adobe Illustrator 21.0.0, SVG Export Plug-In . SVG Version: 6.00 Build 0)  -->
<svg version="1.1" id="svg548" xmlns="http://www.w3.org/2000/svg" xmlns:xlink="http://www.w3.org/1999/xlink" x="0px" y="0px"
	 viewBox="0 0 638.1 85.8" style="enable-background:new 0 0 638.1 85.8;" xml:space="preserve">
<style type="text/css">
	.st0{fill:#FF0000;}
	.st1{fill:#FFFF00;}
	.st2{fill:none;stroke:#FFFF00;stroke-miterlimit:10;}
	.st3{fill:#FFFFFF;}
	.st4{fill:#777777;}
	.st5{font-family:'MyriadPro-Regular';}
	.st6{font-size:67.9586px;}
</style>
<title>syriac_aramean_tell_halaf_flag</title>
<circle class="st0" cx="80.1" cy="42.9" r="42.9"/>
<g id="Lager_2">
	<path id="Border" class="st1" d="M62.2,59.9h33.1v9.2H62.2V59.9z M94.1,61.1l-30.8,0V68L94.1,68L94.1,61.1z"/>
	<line class="st2" x1="86.7" y1="60.7" x2="86.7" y2="68.5"/>
	<line class="st2" x1="78.7" y1="60.7" x2="78.7" y2="68.3"/>
	<line class="st2" x1="70.8" y1="60.7" x2="70.8" y2="68.3"/>
	<path class="st1" d="M65.8,61.9c0-0.1,1.9-0.1,1.9,0c0,0.4-0.2,0.8-0.5,1.2l0,0c0,0.1-0.1,0.1-0.2,0.1h-0.6c-0.1,0-0.1,0-0.2-0.1
		l0,0C66.2,63.1,65.8,62.3,65.8,61.9z M65.7,65.4c-0.2,0.3-0.4,0.7-0.6,0.9c-0.1,0.1-1-1.2-0.9-1.2c0.3-0.2,0.7-0.3,1.1-0.3l0,0
		c0,0,0.1,0,0.1,0l0.3,0.4C65.8,65.2,65.8,65.3,65.7,65.4L65.7,65.4z M68.1,67.1c-0.3-0.3-0.5-0.7-0.6-1.1l0,0c0-0.1,0-0.2,0.1-0.2
		l0.5-0.4c0.1,0,0.1,0,0.2,0c0.4,0.1,0.9,0.3,1.2,0.5C69.5,65.9,68.2,67.2,68.1,67.1L68.1,67.1z M65.4,64.3c-0.4,0-0.9,0.1-1.2-0.1
		c-0.2-0.1,0.6-1.8,0.7-1.8c0.4,0.2,0.6,0.6,0.9,0.9l0,0c0,0.1,0.1,0.1,0,0.2l-0.2,0.6C65.6,64.3,65.5,64.3,65.4,64.3L65.4,64.3
		L65.4,64.3z M67.4,67c0,0.1-1.9,0-1.9-0.2c0-0.4,0.3-0.8,0.6-1.1l0,0c0,0,0.1-0.1,0.1-0.1l0.7,0C66.9,65.7,67.4,66.7,67.4,67
		L67.4,67z M69.4,63.4c-0.3,0.3-1.2,0.5-1.3,0.4l-0.4-0.5c0,0,0-0.1,0-0.2l0,0c0.1-0.4,0.3-0.8,0.5-1.1C68.4,62,69.5,63.3,69.4,63.4
		L69.4,63.4z M67.3,63.6c0.2,0.4,0.5,0.8,0.5,1.2c0,0.3-0.7,0.6-1,0.7c-0.3-0.1-1-0.4-1-0.7c0-0.4,0.2-0.8,0.4-1.1l0.2-0.1h0.6
		L67.3,63.6L67.3,63.6z M69.3,65.3c-0.3,0-0.6-0.2-0.9-0.4l0,0c-0.1,0-0.1-0.1-0.1-0.2l0.1-0.5c0,0,0.1-0.1,0.1-0.1
		c0.3-0.1,0.7-0.3,1-0.3C69.6,64,69.4,65.4,69.3,65.3L69.3,65.3z"/>
	<path class="st1" d="M89.1,62.2c0-0.1,1.8-0.5,1.9-0.4c0.1,0.4-0.1,0.8-0.2,1.2l0,0c0,0.1-0.1,0.1-0.2,0.1L90,63.3
		c-0.1,0-0.1,0-0.2-0.1l0,0C89.8,63.3,89.2,62.6,89.1,62.2z M89.8,65.7c-0.1,0.4-0.2,0.9-0.4,1.2C89.3,67,88,65.8,88,65.7
		c0.3-0.3,0.7-0.5,1.1-0.6l0,0c0,0,0.1,0,0.1,0l0.5,0.4C89.8,65.5,89.8,65.6,89.8,65.7L89.8,65.7z M92.7,66.2
		c-0.4-0.2-0.7-0.6-0.9-0.9l0,0c-0.1-0.1-0.1-0.2,0-0.3l0.3-0.5c0-0.1,0.1-0.1,0.1-0.1c0.4,0,0.9-0.1,1.3,0.1
		C93.5,64.5,92.8,66.2,92.7,66.2L92.7,66.2z M89.1,64.5c-0.4,0.1-0.9,0.1-1.2,0c-0.2-0.1,0.5-1.9,0.6-1.8c0.4,0.2,0.7,0.5,0.9,0.9
		l0,0c0,0.1,0.1,0.1,0,0.2l-0.2,0.6C89.3,64.5,89.2,64.5,89.1,64.5L89.1,64.5L89.1,64.5z M92.1,66.9c0,0.1-1.9,0.4-1.9,0.3
		c0-0.4,0.1-0.8,0.3-1.2l0,0c0,0,0.1-0.1,0.1-0.1l0.6-0.1C91.3,65.7,92,66.5,92.1,66.9z M93.3,63.6C93,63.9,92,64,91.9,64l-0.4-0.5
		c0-0.1,0-0.1,0-0.2l0,0c0.2-0.4,0.3-0.9,0.6-1.2C92.2,62,93.4,63.5,93.3,63.6L93.3,63.6z M90.3,65.4c-0.3-0.3-0.6-0.7-0.7-1
		c-0.1-0.3,0.5-0.8,0.8-0.8c0.3-0.1,1,0.2,1.1,0.5c0.1,0.4-0.1,0.8-0.2,1.2l-0.1,0.1l-0.8,0.2L90.3,65.4L90.3,65.4z"/>
	<path class="st1" d="M81.9,61.8c0-0.1,2.1,0,2.1,0.2c0,0.4-0.3,0.8-0.6,1.1l0,0c0,0.1-0.1,0.1-0.2,0.1l-0.7-0.1
		c-0.1,0-0.2,0-0.2-0.1l0,0C82.3,63,81.8,62.2,81.9,61.8z M81.8,65.5c-0.2,0.4-0.4,0.8-0.7,1.1c-0.1,0.1-1.1-1.4-1-1.5
		c0.3-0.2,0.8-0.3,1.2-0.4l0,0c0.1,0,0.1,0,0.1,0.1l0.4,0.5C81.8,65.4,81.8,65.5,81.8,65.5L81.8,65.5z M84.5,66.6
		c-0.3-0.2-0.5-0.7-0.7-1.1l0,0c0-0.1,0-0.2,0-0.3l0.4-0.5c0,0,0.2-0.1,0.2-0.1c0.4,0.1,0.9,0.1,1.2,0.4
		C85.6,65.1,84.6,66.6,84.5,66.6z M81.3,64.3c-0.4,0-0.9,0-1.2-0.2c-0.1-0.1,0.8-2,1-1.9c0.3,0.2,0.6,0.7,0.8,1.1l0,0
		c0,0.1,0,0.2,0,0.2l-0.3,0.6C81.4,64.2,81.4,64.2,81.3,64.3L81.3,64.3L81.3,64.3z M83.6,67c0,0.1-1.9,0.2-1.9,0.1
		c0-0.4,0.3-0.8,0.6-1.1l0,0c0,0,0.1-0.1,0.1-0.1h0.7C83.2,65.9,83.7,66.6,83.6,67z M85.5,64.2c-0.3,0.2-1.4,0.2-1.4,0.1l-0.2-0.6
		c0-0.1,0-0.1,0-0.2l0,0c0.2-0.4,0.5-0.8,0.8-1C84.8,62.5,85.7,64.2,85.5,64.2L85.5,64.2z M82.1,65.1c-0.2-0.4-0.4-0.7-0.4-1
		c0-0.3,0.7-0.6,1-0.7c0.3,0.1,1,0.4,1,0.7c0,0.3-0.1,0.7-0.2,0.9l-0.3,0.3l-0.8,0l-0.1,0L82.1,65.1z"/>
	<path class="st1" d="M73.1,62.2c0-0.1,1.8-0.7,1.8-0.6c0.1,0.4,0,0.8-0.1,1.2l0,0c0,0.1-0.1,0.1-0.1,0.2l-0.6,0.2
		c-0.1,0-0.1,0-0.2,0l0,0C73.9,63.2,73.3,62.6,73.1,62.2z M73.7,65.7c-0.2,0.4-0.4,0.8-0.7,1.1c-0.1,0.1-1.1-1.4-1-1.5
		c0.3-0.2,0.8-0.3,1.2-0.4l0,0c0.1,0,0.1,0,0.1,0.1l0.4,0.5C73.7,65.5,73.7,65.6,73.7,65.7L73.7,65.7z M76.4,67.1
		c-0.3-0.2-0.5-0.7-0.7-1.1l0,0c0-0.1,0-0.2,0-0.3l0.4-0.5c0,0,0.2-0.1,0.2-0.1c0.4,0.1,0.9,0.1,1.2,0.4
		C77.5,65.7,76.5,67.1,76.4,67.1L76.4,67.1z M73.2,64.4c-0.4,0-0.9,0.1-1.2-0.1c-0.2-0.1,0.6-1.8,0.7-1.8c0.4,0.2,0.6,0.6,0.9,0.9
		l0,0c0,0.1,0.1,0.1,0,0.2l-0.2,0.6C73.3,64.4,73.2,64.4,73.2,64.4L73.2,64.4L73.2,64.4z M75.5,67.2c0,0.1-1.9,0-1.9-0.2
		c0-0.4,0.3-0.8,0.6-1.1l0,0c0,0,0.1-0.1,0.1-0.1l0.7,0C75.1,65.8,75.6,66.8,75.5,67.2L75.5,67.2z M77.7,64.9
		c-0.4,0.2-1.4,0.1-1.5,0.1l-0.2-0.6c0-0.1,0-0.1,0-0.2l0,0c0.3-0.4,0.7-0.6,0.9-0.9C77.1,63.2,77.9,64.8,77.7,64.9z M75.3,63.8
		c0.2,0.4,0.4,0.8,0.4,1.2c0,0.3-0.8,0.2-1.1,0.3c-0.9-0.1-0.9-0.1-0.8-0.5c0.1-0.4,0.3-0.8,0.5-1.1l0.5-0.3L75.3,63.8L75.3,63.8z
		 M77,62.9c-0.3,0.3-0.7,0.4-1.1,0.5l0,0c-0.1,0-0.2,0-0.2-0.1l-0.4-0.4c0,0,0-0.1,0-0.2c0.1-0.4,0.3-0.8,0.5-1.1
		C75.9,61.5,77.1,62.8,77,62.9L77,62.9z"/>
	<path id="Sun" class="st3" d="M89.8,32.9c0,6-5,10.8-11.1,10.8c-6.1,0-11.1-4.9-11.1-10.8S72.6,22,78.7,22
		C84.8,22,89.8,26.9,89.8,32.9"/>
	<path id="Eagle" class="st1" d="M68.6,59.9l0.3-9.9l1.8,1.4l-0.1,8.5L68.6,59.9z M73.9,52.6l2.1,0.3l-0.1,7l-2,0L73.9,52.6z M78,48
		h1.4l0.2,4.1c0,0.1,0,0.2-0.1,0.2h-1.5c-0.1,0-0.1-0.1-0.1-0.2L78,48z M75.6,52.1l0.7-4.3l1.3,0.1l-0.3,4.3L75.6,52.1z M66.5,50.2
		l0.8-2l1.2,1.5l-0.1,1.5L66.5,50.2z M73.3,51.8l1.1-4.1l1.4,0.2l-0.9,4.2L73.3,51.8z M64.7,49.3l1.1-2.5l1.3,1.1l-0.9,2.1
		L64.7,49.3z M69.3,49.5l1.6-3.1l1.3,0.6l-1.5,3.6L69.3,49.5z M62.7,48.9l1.3-3.3l1.4,1l-1.2,2.7L62.7,48.9z M25.8,48.3l6.7-6.8
		l3.2,0.4l-4.6,6.1L25.8,48.3z M36.3,42.1l3.5,0.2l-4,5.8l-4.1,0.1L36.3,42.1z M36.4,48l4-5.8h3.4L40,47.9L36.4,48z M57.7,48.4
		l2.3-4.6l1.6,0.6l-1.8,4H57.7z M40.7,47.9l3.8-5.6l3,0.1L44,47.9L40.7,47.9z M57.4,43.2l2.1,0.4l-2.3,4.7l-2.5-0.1L57.4,43.2z
		 M67.6,47.7l1.4-2.5l1.4,1l-1.5,3L67.6,47.7z M65.9,46.2l1.6-2.5l1.2,1.1l-1.4,2.5L65.9,46.2z M76.3,47.4l0.6-2.8l1,0.1l-0.3,2.8
		L76.3,47.4z M78.3,44.6l1,0l0.2,2.9l-1.4,0L78.3,44.6z M72.9,46.7l1.3-2.9l1,0.4L74.1,47L72.9,46.7z M64.2,45l1.8-2.5l1.1,0.8
		l-1.5,2.6L64.2,45z M69.6,44.9l1.7-2.8l1.2,0.8l-1.5,2.9L69.6,44.9z M62.2,44l2-2.7l1.4,0.9l-1.7,2.5L62.2,44z M66.4,42.2l2.3-2.8
		l0.8,1.2l-1.7,2.8L66.4,42.2z M57.4,42.5l2.2-3.1l2,0.5l-2.1,2.9L57.4,42.5z M54.1,42.1L51.4,42l2.5-3.3l2.5,0.2L54.1,42.1z
		 M64.7,40.9l2.9-3.3l0.8,1.3L66,41.8L64.7,40.9z M40.9,41.7l3.8-4l2.7,0.2l-3.6,3.8L40.9,41.7z M4.2,44.2l-2.4-3.5l15.2-6l2.4,2.1
		L4.2,44.2z M32.8,40.9l5-4l2.6,0.3L36,41.4L32.8,40.9z M62.5,39.6l4.4-3.9l0.5,1.5l-3,3.5L62.5,39.6z M28.1,39.9l6.2-3.7l2.9,0.5
		l-5.1,4.1L28.1,39.9z M60,38.9l3.9-3.9l2.3,0.6L62,39.4L60,38.9z M24.5,38.7l6.4-3.4l2.7,0.7l-6.2,3.7L24.5,38.7z M56.8,38.4
		l4.1-4.2l2.5,0.7l-3.9,3.9L56.8,38.4z M0.8,36.5l13.9-4.2l1.8,2L1.7,40.2L0.8,36.5z M53.3,38l4.7-4.3l2.2,0.4l-4.1,4.2L53.3,38z
		 M49.8,37.6l4.9-4.5l2.7,0.4l-4.8,4.4L49.8,37.6z M46.5,37.2l5.2-4.6L54,33l-4.9,4.5L46.5,37.2z M42.4,36.9l6-4.7l2.3,0.3l-5,4.7
		L42.4,36.9z M17.6,34.6l6.7-1.9l2.3,1.2l-6.4,2.7L17.6,34.6z M39.1,36.5l6.1-4.6l2.4,0.2l-5.9,4.7L39.1,36.5z M31.9,34.9l7-3.5
		l2.2,0.2l-6.4,4L31.9,34.9z M0.1,31.9l12.9-2.2l1.4,2.2L0.7,36L0.1,31.9z M15.4,32.5l6.8-1.5l1.8,1.4l-6.8,1.8L15.4,32.5z
		 M28.8,34.1l6.4-3l2.9,0.2l-6.9,3.4L28.8,34.1z M25.8,32.9l6.8-2.4l1.9,0.4l-6.3,3L25.8,32.9z M13.5,29.8l7.4-0.6l1,1.4L15,31.9
		L13.5,29.8z M1.8,27.6l10.5-0.4l0.4,2.2L0.1,31.5c0,0-0.1-2-0.1-2.4C0,28.6,1.2,27.6,1.8,27.6 M29.1,28.4l0.9,1l-7.4,1.3l-1.3-1.6
		L29.1,28.4z M12.8,27.3l6.9-0.2l0.7,1.6l-7.2,0.6L12.8,27.3z M21,28.6L20.2,27l8.4-0.2L29,28L21,28.6z M76.6,52.9l1.8,0.1v7h-1.9
		L76.6,52.9z M71.4,51.8l2,0.7l-0.1,7.4h-2L71.4,51.8z M44.7,31.3c1.1,0.1,0,0,1.2,0.1c0.4,0,2.3,0.2,2.9,0.3c2,0.2,3.4,0.4,4.7,0.6
		c2.1,0.3,3.7,0.5,4.4,0.7c2.9,0.6,2.2,0.4,2.9,0.6c1.8,0.4,3,0.8,3,0.8c1.9,0.6,2.6,0.8,3.1,0.9c0-0.2-0.1-0.5-0.1-0.7l0-0.9v-0.3
		c0-0.7,0-0.7,0-1.4c0,0,0,0.7,0-0.3c0.1-0.8,0.2-1.5,0.4-2.3c-0.3-0.2-0.6-0.4-1-0.5c-0.9-0.4-1.5-0.6-1.5-0.6
		c-2.2-0.7-3-0.8-3-0.8c-1.1-0.2-2.4-0.5-3.5-0.7c-1.9-0.3-4.5-0.6-5-0.6C49.2,26,49.2,26,47.6,26c-2.7-0.1-2.7-0.1-4.6,0
		c-1,0-3.1,0.1-4.9,0.1c0,0-2.9,0.2-3.7,0.2c-1.1,0-2.3,0.1-3.4,0.3c-1.9,0.3-1.8,0.3-1.8,0.3c0.1,0.6,0.6,1.5,0.9,1.9
		c1,1,2.2,1.2,2.9,1.4c2.6,0.6,2.8,0.5,4.4,0.7c1,0.1,1.9,0.2,2.4,0.2c1,0.1,3.6,0.2,3.6,0.2 M54.6,42.8l2.2,0.3l-2.6,5.1l-2.8-0.1
		L54.6,42.8z M54.8,42.1l2.3-3.1l2,0.2l-2.3,3.1L54.8,42.1z M48.2,47.9l3.2-5.2l2.6,0.1l-3,5.2L48.2,47.9z M44.6,47.9l3.6-5.5
		l2.6,0.1l-3.3,5.4L44.6,47.9z M36.7,41.5l4.4-4.2l2.9,0.3l-3.8,4L36.7,41.5z M48.2,41.9l3-3.5l2,0.2l-2.6,3.4L48.2,41.9z
		 M44.7,41.7l3.5-3.6l2.3,0.2l-3.1,3.5L44.7,41.7z M74.6,47.1l0.9-2.9l1,0.2l-0.6,2.9L74.6,47.1z M18.9,48.9l-9.2-0.1l14.3-9.6
		l3.1,1.1L18.9,48.9z M60.3,48.5l1.8-4l1.7,0.8l-1.5,3.5L60.3,48.5z M60.1,43.1l2.1-2.9l1.6,0.8l-2,2.7L60.1,43.1z M20.6,36.9
		l6.4-2.7l3.2,0.9l-6.3,3.4L20.6,36.9z M35.4,35.8l6.7-4.3l2.4,0.2l-6.1,4.6L35.4,35.8z M71.3,46l1.5-3l1.1,0.5l-1.3,3L71.3,46z
		 M71.2,51l1.5-3.9l1.3,0.4l-1.2,4.1L71.2,51z M19.6,48.9l8-8.4l4.3,0.9l-6.7,7L19.6,48.9z M23.5,39L9.1,48.6l-4.6-3.9l15.3-7.5
		L23.5,39z M68.1,43.6l1.7-2.7l1.1,1l-1.6,2.7L68.1,43.6z M23.3,31.1l7.2-1.4l1.4,0.6l-6.5,2.3L23.3,31.1z"/>
	<path id="Eagle-2" class="st1" d="M86.8,59.9l-0.1-8.5l1.8-1.4l0.3,9.9L86.8,59.9z M83.5,59.9l-2,0l-0.1-7l2.1-0.3L83.5,59.9z
		 M79.6,52.1c0,0.1,0,0.2-0.1,0.2H78c-0.1,0-0.1-0.1-0.1-0.2l0.2-4.1h1.4L79.6,52.1z M80.2,52.2L79.9,48l1.3-0.1l0.7,4.3L80.2,52.2z
		 M88.9,51.2l-0.1-1.5l1.2-1.5l0.8,2L88.9,51.2z M82.5,52.1l-0.9-4.2l1.4-0.2l1.2,4.1L82.5,52.1z M91.3,50.1L90.3,48l1.3-1.1
		l1.1,2.5L91.3,50.1z M86.7,50.6L85.3,47l1.3-0.6l1.6,3.1L86.7,50.6z M93.1,49.3l-1.1-2.7l1.4-1l1.3,3.3L93.1,49.3z M126.3,48.1
		l-4.6-6.1l3.2-0.4l6.7,6.8L126.3,48.1z M125.7,48.1l-4.1-0.1l-4-5.8l3.5-0.2L125.7,48.1z M117.5,47.9l-3.9-5.7h3.4l4,5.8
		L117.5,47.9z M97.6,48.4l-1.8-4l1.6-0.6l2.3,4.6L97.6,48.4z M113.4,47.9l-3.4-5.5l3.1-0.1l3.8,5.6L113.4,47.9z M102.7,48.2
		l-2.5,0.1l-2.3-4.8l2.1-0.4L102.7,48.2z M88.5,49.2l-1.5-3l1.4-1l1.4,2.5L88.5,49.2z M90.1,47.3l-1.4-2.5l1.2-1.1l1.6,2.5
		L90.1,47.3z M79.8,47.4l-0.3-2.8l1-0.1l0.6,2.8L79.8,47.4z M79.4,47.5l-1.4,0l0.2-2.9l1,0L79.4,47.5z M83.3,47l-1.1-2.9l1-0.4
		l1.3,2.9L83.3,47z M91.9,45.9l-1.5-2.6l1.1-0.8l1.8,2.5L91.9,45.9z M86.5,45.8L85,42.9l1.2-0.8l1.7,2.8L86.5,45.8z M93.6,44.8
		l-1.7-2.5l1.4-0.9l2,2.7L93.6,44.8z M89.7,43.3L88,40.6l0.8-1.2l2.3,2.8L89.7,43.3z M97.8,42.9l-2.1-2.9l2-0.5l2.2,3.1L97.8,42.9z
		 M100.9,38.9l2.5-0.2L106,42l-2.7,0.1L100.9,38.9z M91.4,41.8L89,38.9l0.8-1.3l2.9,3.3L91.4,41.8z M113.6,41.7l-3.6-3.8l2.7-0.2
		l3.8,4L113.6,41.7z M138,36.8l2.4-2.1l15.2,6l-2.4,3.5L138,36.8z M121.4,41.4l-4.5-4.2l2.6-0.3l5,4L121.4,41.4z M93,40.6l-3-3.5
		l0.5-1.5l4.4,3.9L93,40.6z M125.3,40.8l-5.1-4.1l2.9-0.5l6.2,3.7L125.3,40.8z M95.4,39.4l-4.3-3.8l2.3-0.6l3.9,3.9L95.4,39.4z
		 M130,39.7l-6.2-3.7l2.7-0.7l6.4,3.4L130,39.7z M98,38.8l-3.9-3.9l2.5-0.7l4.1,4.2L98,38.8z M155.8,40.2l-14.8-5.8l1.8-2l13.9,4.2
		L155.8,40.2z M101.2,38.3L97.1,34l2.2-0.4l4.7,4.3L101.2,38.3z M104.8,37.9l-4.8-4.4l2.7-0.4l4.9,4.5L104.8,37.9z M108.3,37.4
		l-4.9-4.5l2.4-0.3l5.2,4.6L108.3,37.4z M111.7,37.2l-5-4.7l2.3-0.3l6,4.7L111.7,37.2z M137.3,36.6l-6.4-2.7l2.3-1.2l6.7,1.9
		L137.3,36.6z M115.8,36.8l-6-4.7l2.4-0.2l6.1,4.6L115.8,36.8z M122.7,35.6l-6.4-4l2.2-0.2l7,3.5L122.7,35.6z M156.7,36l-13.7-3.9
		l1.4-2.2l12.9,2.2L156.7,36z M140.3,34.2l-6.9-1.8l1.8-1.4l6.8,1.5L140.3,34.2z M126.3,34.7l-6.9-3.4l2.9-0.2l6.4,3L126.3,34.7z
		 M129.3,33.9l-6.3-3l1.9-0.4l6.8,2.4L129.3,33.9z M142.4,32l-6.8-1.4l1-1.4l7.4,0.6L142.4,32z M155.6,27.6c0.7,0,1.8,1.1,1.8,1.5
		s-0.1,2.4-0.1,2.4l-12.7-2.1l0.4-2.2L155.6,27.6 M136.1,29.1l-1.3,1.6l-7.4-1.3l0.9-1L136.1,29.1z M144.2,29.3l-7.2-0.6l0.7-1.6
		l6.9,0.2L144.2,29.3z M128.5,28l0.3-1.1l8.4,0.2l-0.8,1.6L128.5,28z M80.9,59.9H79v-7l1.8-0.1L80.9,59.9z M86.2,59.9h-2l-0.1-7.4
		l2-0.7L86.2,59.9z M114,31.2c0,0,2.6-0.2,3.6-0.3c0.4,0,1.4-0.2,2.4-0.2c1.7-0.1,1.8-0.1,4.4-0.7c0.8-0.2,1.9-0.4,2.9-1.4
		c0.4-0.4,0.9-1.3,0.9-1.9c0,0,0,0-1.8-0.3c-1.1-0.2-2.3-0.3-3.4-0.3c-0.8,0-3.7-0.2-3.7-0.2c-1.8-0.1-3.9-0.1-4.9-0.1
		c-1.9,0-1.9,0-4.6,0c-1.6,0.1-1.6,0-5.7,0.2c-0.5,0-3.2,0.3-5,0.6c-1.1,0.2-2.4,0.5-3.5,0.7c0,0-0.8,0.1-3,0.8c0,0-0.6,0.2-1.5,0.6
		c-0.3,0.1-0.7,0.3-1,0.5c0.1,0.4,0.3,1.6,0.4,2.3c0.1,0.9,0,0.3,0,0.3c0,0.7,0,0.7,0,1.4v0.3l0,0.9c0,0.2,0,0.5-0.1,0.7
		c0.6-0.1,1.2-0.4,3.1-0.9c0,0,1.1-0.4,3-0.8c0.7-0.2,0,0,2.9-0.6c0.7-0.1,2.2-0.3,4.4-0.7c1.3-0.2,2.7-0.4,4.7-0.6
		c0.6-0.1,2.5-0.3,2.9-0.3c1.2-0.1,0.1,0,1.2-0.1 M106.1,48.1l-2.8,0.1l-2.6-5.1l2.2-0.3L106.1,48.1z M100.6,42.4l-2.3-3.1l2-0.2
		l2.3,3.1L100.6,42.4z M106.5,47.9l-3-5.2l2.6-0.1l3.2,5.2L106.5,47.9z M109.9,47.9l-3.3-5.4l2.6-0.1l3.6,5.5L109.9,47.9z
		 M117.3,41.6l-3.8-4l2.9-0.3l4.4,4.2L117.3,41.6z M106.7,41.9l-2.6-3.4l2-0.2l3,3.5L106.7,41.9z M110,41.8l-3.1-3.5l2.3-0.2
		l3.5,3.6L110,41.8z M81.5,47.3l-0.6-2.9l1-0.2l0.9,2.9L81.5,47.3z M130.4,40.3l3.1-1.1l14.3,9.6l-9.2,0.1L130.4,40.3z M95.1,48.8
		l-1.5-3.5l1.7-0.8l1.8,4L95.1,48.8z M95.7,43.7l-2-2.7l1.6-0.8l2.1,2.9L95.7,43.7z M133.5,38.5l-6.3-3.4l3.2-0.9l6.4,2.7
		L133.5,38.5z M119,36.3l-6.1-4.6l2.4-0.2l6.7,4.2L119,36.3z M84.9,46.6l-1.3-3l1.1-0.5l1.5,3L84.9,46.6z M84.6,51.7l-1.2-4.1
		l1.3-0.4l1.5,3.9L84.6,51.7z M132.3,48.4l-6.7-7l4.3-0.9l8,8.4L132.3,48.4z M134,39L134,39l3.7-1.8l15.3,7.5l-4.6,3.9L134,39z
		 M88.1,44.6l-1.6-2.7l1.1-1l1.7,2.7L88.1,44.6z M132.2,32.6l-6.5-2.3l1.4-0.6l7.2,1.4L132.2,32.6z"/>
</g>
<text transform="matrix(1 0 0 1 177.9928 64.3995)" class="st4 st5 st6">Aramean Center</text>
</svg>
