<?xml version="1.0" encoding="UTF-8" standalone="no"?>
<svg
   version="1.2"
   viewBox="0 0 400 90"
   width="400"
   height="90"
   id="svg209"
   sodipodi:docname="logo.svg"
   inkscape:version="1.2 (dc2aeda, 2022-05-15)"
   xmlns:inkscape="http://www.inkscape.org/namespaces/inkscape"
   xmlns:sodipodi="http://sodipodi.sourceforge.net/DTD/sodipodi-0.dtd"
   xmlns="http://www.w3.org/2000/svg"
   xmlns:svg="http://www.w3.org/2000/svg">
  <defs
     id="defs213" />
  <sodipodi:namedview
     id="namedview211"
     pagecolor="#ffffff"
     bordercolor="#000000"
     borderopacity="0.25"
     inkscape:showpageshadow="2"
     inkscape:pageopacity="0.0"
     inkscape:pagecheckerboard="0"
     inkscape:deskcolor="#d1d1d1"
     showgrid="false"
     inkscape:zoom="8.3746204"
     inkscape:cx="78.988655"
     inkscape:cy="45.434895"
     inkscape:window-width="2408"
     inkscape:window-height="1205"
     inkscape:window-x="366"
     inkscape:window-y="170"
     inkscape:window-maximized="0"
     inkscape:current-layer="svg209" />
  <title
     id="title182">logo</title>
  <style
     id="style184">
		tspan { white-space:pre }
		.shp0 { fill: #ffffff } 
		.shp1 { fill: #ff0000 } 
		.shp2 { fill: #ffff00 } 
		.shp3 { fill: none;stroke: #ffff00;stroke-width: 0.3 } 
	</style>
  <path
     id="Layer"
     class="shp1"
     d="m 24.917929,69.9 c -13.66,0 -24.69999961,-11.04 -24.69999961,-24.7 0,-13.66 11.03999961,-24.7 24.69999961,-24.7 13.66,0 24.7,11.04 24.7,24.7 0,13.66 -11.04,24.7 -24.7,24.7 z" />
  <g
     id="Lager_2"
     style="display:none">
    <path
       id="Border"
       fill-rule="evenodd"
       class="shp2"
       d="m 20,51.3 h 9.2 v 2.6 H 20 Z m 8.8,0.3 h -8.5 v 1.9 h 8.5 z" />
    <path
       id="path189"
       class="shp3"
       d="m 26.8,51.5 v 2.2" />
    <path
       id="path191"
       class="shp3"
       d="m 24.5,51.5 v 2.1" />
    <path
       id="path193"
       class="shp3"
       d="m 22.3,51.5 v 2.1" />
    <path
       id="path195"
       class="shp2"
       d="m 21,51.9 h 0.5 c 0,0.1 -0.1,0.2 -0.1,0.3 v 0 0 h -0.2 v 0 0 C 21.1,52.2 21,52 21,51.9 Z m -0.1,0.9 c 0,0.1 -0.1,0.2 -0.2,0.2 l -0.3,-0.3 c 0.1,-0.1 0.2,-0.1 0.3,-0.1 v 0 0 l 0.2,0.2 c 0.1,0 0.1,0 0,0 z m 0.7,0.5 C 21.5,53.2 21.5,53.1 21.4,53 v 0 -0.1 l 0.1,-0.1 v 0 c 0.1,0 0.3,0.1 0.3,0.2 0.2,0 -0.2,0.3 -0.2,0.3 z m -0.7,-0.8 c -0.1,0 -0.2,0 -0.3,0 L 20.8,52 c 0.1,0 0.2,0.2 0.2,0.3 v 0 c 0,0 0,0 0,0.1 z m 0.5,0.8 h -0.5 c 0,-0.1 0.1,-0.2 0.2,-0.3 v 0 0 h 0.2 c 0,-0.1 0.1,0.2 0.1,0.3 z m 0.6,-1 c -0.1,0.1 -0.3,0.1 -0.4,0.1 l -0.1,-0.1 v 0 0 c 0,-0.1 0.1,-0.2 0.1,-0.3 0.1,-0.1 0.4,0.3 0.4,0.3 z m -0.6,0 c 0.1,0.1 0.1,0.2 0.1,0.3 0,0.1 -0.2,0.2 -0.3,0.2 -0.1,0 -0.3,-0.1 -0.3,-0.2 0,-0.1 0.1,-0.2 0.1,-0.3 h 0.1 z m 0.5,0.5 c -0.1,0 -0.2,-0.1 -0.3,-0.1 v 0 0 -0.1 0 c 0.1,0 0.2,-0.1 0.3,-0.1 0.1,-0.1 0.1,0.3 0,0.3 z" />
    <path
       id="path197"
       class="shp2"
       d="m 27.4,51.9 c 0,0 0.5,-0.2 0.5,-0.1 0,0.1 0,0.2 -0.1,0.3 v 0 0 h -0.2 c 0,0 0,0 -0.1,0 v 0 c 0.1,0.1 0,0 -0.1,-0.2 z m 0.2,1 c 0,0.1 -0.1,0.2 -0.1,0.3 l -0.4,-0.3 c 0.1,-0.1 0.2,-0.1 0.3,-0.2 v 0 0 z m 0.8,0.1 c -0.1,0 -0.2,-0.2 -0.3,-0.2 v 0 c 0,0 0,0 0,-0.1 l 0.1,-0.1 v 0 c 0.1,0 0.2,0 0.3,0 0.2,0 0,0.5 -0.1,0.4 z m -1,-0.4 c -0.1,0 -0.2,0 -0.3,0 0,0 0.1,-0.5 0.2,-0.5 0.1,0 0.2,0.1 0.3,0.2 v 0 c 0,0 0,0 0,0.1 l -0.2,0.2 c 0.1,0 0,0 0,0 z m 0.9,0.6 -0.5,0.1 c 0,-0.1 0,-0.2 0.1,-0.3 v 0 0 h 0.2 c -0.1,-0.1 0.1,0.1 0.2,0.2 z m 0.3,-0.9 c -0.1,0.1 -0.4,0.1 -0.4,0.1 l -0.1,-0.1 v 0 0 c 0,-0.1 0.1,-0.2 0.2,-0.3 0,-0.1 0.3,0.3 0.3,0.3 z m -0.8,0.5 c -0.1,-0.1 -0.2,-0.2 -0.2,-0.3 0,-0.1 0.1,-0.2 0.2,-0.2 0.1,0 0.3,0 0.3,0.1 0,0.1 0,0.2 -0.1,0.3 v 0 z" />
    <path
       id="path199"
       class="shp2"
       d="M 25.4,51.8 H 26 c 0,0.1 -0.1,0.2 -0.2,0.3 v 0 c 0,0 0,0 -0.1,0 h -0.2 c 0,0 0,0 -0.1,0 v 0 c 0.1,0 0,-0.2 0,-0.3 z m 0,1.1 c 0,0.1 -0.1,0.2 -0.2,0.3 l -0.3,-0.4 c 0.1,-0.1 0.2,-0.1 0.3,-0.1 v 0 0 l 0.2,0.2 c 0,-0.1 0,-0.1 0,0 z m 0.7,0.2 C 26,53 26,52.9 25.9,52.8 v 0 -0.1 L 26,52.6 v 0 c 0.1,0 0.2,0 0.3,0.1 0.2,0.1 -0.1,0.5 -0.2,0.4 z m -0.8,-0.6 c -0.1,0 -0.2,0 -0.3,0 0,0 0.2,-0.5 0.3,-0.5 0.1,0.1 0.2,0.2 0.2,0.3 v 0 c 0,0 0,0 0,0.1 z m 0.6,0.8 c 0,0 -0.5,0.1 -0.5,0 0,-0.1 0.1,-0.2 0.2,-0.3 v 0 0 h 0.2 c 0,0 0.1,0.2 0.1,0.3 z m 0.5,-0.8 c -0.1,0.1 -0.4,0 -0.4,0 l -0.1,-0.2 v 0 0 C 26,52.2 26,52.1 26.1,52 c 0.1,0 0.4,0.5 0.3,0.5 z m -0.9,0.2 c -0.1,-0.1 -0.1,-0.2 -0.1,-0.3 0,-0.1 0.2,-0.2 0.3,-0.2 0.1,0 0.3,0.1 0.3,0.2 0,0.1 0,0.2 -0.1,0.3 l -0.1,0.1 z" />
    <path
       id="path201"
       class="shp2"
       d="m 23,51.9 0.5,-0.2 c 0,0.1 0,0.2 0,0.3 v 0 0 l -0.2,0.1 c 0,0 0,0 -0.1,0 v 0 C 23.2,52.2 23,52 23,51.9 Z m 0.1,1 c 0,0.1 -0.1,0.2 -0.2,0.3 l -0.3,-0.4 c 0.1,-0.1 0.2,-0.1 0.3,-0.1 v 0 0 l 0.2,0.2 c 0.1,0 0.1,0 0,0 z m 0.8,0.4 C 23.8,53.2 23.8,53.1 23.7,53 v 0 -0.1 l 0.1,-0.1 v 0 c 0.1,0 0.2,0 0.3,0.1 0.1,0 -0.2,0.4 -0.2,0.4 z M 23,52.6 c -0.1,0 -0.2,0 -0.3,0 l 0.2,-0.5 c 0.1,0 0.2,0.2 0.2,0.3 v 0 c 0,0 0,0 0,0.1 L 23,52.6 c 0,-0.1 0,0 0,0 z m 0.7,0.7 h -0.5 c 0,-0.1 0.1,-0.2 0.2,-0.3 v 0 0 h 0.2 c -0.1,-0.1 0.1,0.2 0.1,0.3 z m 0.6,-0.6 c -0.1,0 -0.4,0 -0.4,0 l -0.1,-0.2 v 0 0 c 0.1,-0.1 0.2,-0.2 0.3,-0.3 0,0 0.2,0.5 0.2,0.5 z m -0.7,-0.3 c 0.1,0.1 0.1,0.2 0.1,0.3 0,0.1 -0.2,0.1 -0.3,0.1 -0.2,0 -0.2,0 -0.2,-0.1 0,-0.1 0.1,-0.2 0.1,-0.3 l 0.1,-0.1 z m 0.5,-0.3 c -0.1,0.1 -0.2,0.1 -0.3,0.1 v 0 c 0,0 0,0 -0.1,0 l -0.1,-0.1 v 0 c 0,-0.1 0.1,-0.2 0.2,-0.3 0,0 0.3,0.3 0.3,0.3 z" />
    <path
       id="Sun"
       class="shp0"
       d="m 27.6,43.8 c 0,1.7 -1.4,3 -3.1,3 -1.7,0 -3.1,-1.3 -3.1,-3 0,-1.7 1.4,-3 3.1,-3 1.7,0 3.1,1.3 3.1,3 z" />
    <path
       id="Eagle"
       fill-rule="evenodd"
       class="shp2"
       d="m 21.7,51.3 0.1,-2.7 0.5,0.4 v 2.4 z m 1.5,-2 0.6,0.1 v 1.9 H 23.2 Z M 24.3,48 h 0.4 v 1.1 h -0.4 z m -0.6,1.1 0.2,-1.2 h 0.4 l -0.1,1.2 z m -2.5,-0.5 0.2,-0.6 0.3,0.4 v 0.4 z m 1.9,0.5 0.3,-1.1 0.4,0.1 -0.3,1.2 z m -2.4,-0.7 0.3,-0.7 0.4,0.3 -0.3,0.6 z m 1.2,0 0.4,-0.9 0.4,0.2 -0.4,1 z m -1.8,-0.1 0.4,-0.9 0.4,0.3 -0.3,0.7 z m -10.2,-0.2 1.9,-1.9 0.9,0.1 -1.3,1.7 z m 2.9,-1.7 h 1 L 12.7,48 h -1.1 z m 0,1.6 1.1,-1.6 h 0.9 L 13.7,48 Z m 6.5,-1.2 0.5,0.2 -0.5,1.1 H 18.7 Z M 14,48 15,46.4 h 0.8 l -1,1.5 z m 4.6,-1.3 0.6,0.1 -0.6,1.3 h -0.7 z m 2.9,1.2 0.4,-0.7 0.4,0.3 -0.4,0.8 z m -0.5,-0.4 0.4,-0.7 0.3,0.3 -0.3,0.7 z m 2.9,0.3 0.2,-0.8 h 0.3 l -0.2,0.8 z m 0.5,-0.7 h 0.3 l 0.1,0.8 h -0.4 z m -1.5,0.5 0.3,-0.8 0.3,0.1 -0.3,0.8 z m -2.4,-0.4 0.5,-0.7 0.3,0.2 -0.4,0.7 z m 1.5,-0.1 0.5,-0.8 0.3,0.2 -0.4,0.8 z m -2,-0.2 0.5,-0.7 0.4,0.3 -0.5,0.7 z m 1.1,-0.5 0.6,-0.8 0.2,0.3 -0.5,0.8 z m -2.4,0.1 0.6,-0.8 0.6,0.2 -0.7,0.7 z m -1,-0.1 H 17 l 0.7,-0.9 0.7,0.1 z m 3,-0.4 0.8,-0.9 0.2,0.4 -0.7,0.8 z m -6.6,0.2 1.1,-1.1 0.8,0.1 -1,1 z M 3.9,47 3.2,46 7.4,44.3 8.1,44.9 Z m 7.9,-1 1.4,-1.1 0.7,0.1 -1.2,1.2 z m 8.2,-0.3 1.2,-1.1 0.1,0.4 -0.8,1 z m -9.5,0.1 1.7,-1 0.8,0.1 -1.4,1.1 z m 8.9,-0.3 1.1,-1.1 0.6,0.2 -1.2,1 z m -9.9,-0.1 1.8,-0.9 0.7,0.2 -1.7,1 z m 9,-0.1 1.08,-1.18 c 0.17,0.03 0.31,0.06 0.42,0.09 l 0.3,0.09 -1.1,1.1 z m 1.08,-1.18 c 0,0 0,0 0,0 -0.02,-0.01 -0.05,-0.01 -0.09,-0.02 -0.15,-0.08 -0.05,-0.03 -0.47,-0.12 -0.01,-0.01 0.16,0.04 0.3,0.07 C 19.09,44 18.79,43.92 18.7,43.9 c -0.2,0 -0.6,-0.1 -1.2,-0.2 -0.4,-0.1 -0.8,-0.1 -1.3,-0.2 -0.2,0 -0.7,-0.1 -0.8,-0.1 -0.25,0 -0.08,0 -0.2,0 l -1.8,1.4 -0.8,-0.2 1.9,-1.2 h 0.6 l -0.3,-0.1 c 0,0 -0.7,-0.1 -1,-0.1 -0.2,0 -0.4,-0.1 -0.7,-0.1 -0.4,0 -0.5,0 -1.2,-0.2 -0.2,-0.1 -0.5,-0.1 -0.8,-0.4 -0.1,-0.1 -0.3,-0.3 -0.3,-0.5 0,0 0,0 0.5,-0.1 0.3,-0.1 0.6,-0.1 0.9,-0.1 0.2,0 1,0 1,0 0.5,0 1.1,0 1.4,0 0.6,0 0.6,0 1.3,0 0.5,0.1 0.5,0 1.6,0.1 0.1,0 0.9,0.1 1.4,0.2 0.3,0.1 0.7,0.1 1,0.2 0,0 0.2,0 0.8,0.2 0,0 0.1,0.1 0.4,0.2 0.1,0.1 0.2,0.1 0.2,0.3 0,0.2 -0.1,0.4 -0.1,0.6 0,0.3 0,0.1 0,0.1 0,0.2 0,0.5 0,0.7 0,0.1 0,0.1 0,0.2 -0.2,-0.1 -0.4,-0.1 -0.9,-0.3 0,0 -0.11,-0.04 -0.3,-0.09 L 19.6,44.1 Z M 3,44.8 6.8,43.6 7.3,44.2 3.2,45.8 Z m 14.5,0.4 1.3,-1.2 0.6,0.1 -1.1,1.2 z m 0.4,-1.4 0.7,0.1 -1.3,1.2 H 16.5 Z M 15.6,45 17,43.7 17.7,43.8 16.3,45 Z m -1.1,-0.1 1.7,-1.3 0.6,0.1 -1.4,1.3 z m -6.9,-0.6 1.9,-0.5 0.6,0.3 -1.8,0.7 z m 6,0.5 1.7,-1.3 0.7,0.1 -1.6,1.3 z m 5.9,-0.7 c 0,0 0,0 0,0 0,0 0,0 0,0 z m -0.18,-0.05 c 0.07,0.02 0.12,0.03 0.17,0.05 0,0 0.01,0 0.01,0 -0.01,0 -0.09,-0.02 -0.18,-0.05 z M 2.8,43.6 6.4,43 6.8,43.6 3,44.7 Z m 4.2,0.1 1.9,-0.4 0.5,0.4 -1.9,0.5 z m 3.7,0.5 1.8,-0.8 0.8,0.1 -1.9,0.9 -0.32,-0.09 -1.68,0.99 -1,-0.4 1.8,-0.8 0.68,0.15 z m -0.8,-0.4 1.9,-0.7 0.5,0.1 -1.8,0.8 z M 6.5,43 l 2,-0.2 0.3,0.4 -1.9,0.4 z m -3.3,-0.7 2.9,-0.1 0.1,0.6 -3.5,0.6 c 0,0 0,-0.6 0,-0.7 0,-0.1 0.4,-0.4 0.5,-0.4 z m 7.6,0.3 0.2,0.3 -2,0.4 -0.3,-0.5 z m -4.5,-0.3 1.9,-0.1 0.2,0.4 -2,0.2 z m 2.3,0.3 -0.2,-0.4 h 2.3 l 0.1,0.3 z M 24,49.4 h 0.5 v 1.9 H 24 Z m -1.5,-0.3 0.6,0.2 v 2 h -0.5 z m -10.9,-4.7 1.9,-1 h 0.6 l -1.8,1.1 z m 6.3,2.2 0.6,0.1 -0.7,1.4 H 17 Z m 0,-0.2 0.6,-0.9 0.5,0.1 -0.6,0.9 z M 16.1,48 17,46.6 h 0.7 L 16.9,48 Z m -1,0 1,-1.5 h 0.7 L 15.9,48 Z m -2.2,-1.8 1.2,-1.2 0.8,0.1 -1.1,1.1 z m 3.2,0.1 0.8,-1 0.6,0.1 -0.7,0.9 z m -1,0 1,-1 0.6,0.1 -0.9,1 z m 8.6,0.7 0.3,0.1 -0.2,0.7 H 23.4 Z M 8,48.3 H 5.4 l 4,-2.7 0.9,0.3 z m 11.4,-0.2 0.5,-1.1 0.5,0.2 -0.4,1 z m 0,-1.4 0.6,-0.8 0.4,0.2 -0.6,0.7 z m 3.1,0.8 0.4,-0.8 0.3,0.1 -0.4,0.8 z m 0,1.3 0.4,-1.1 0.4,0.1 -0.3,1.1 z M 8.2,48.3 10.4,46 l 1.2,0.2 -1.9,1.9 z m 1,-2.8 -4,2.7 L 3.9,47.1 8.1,45 Z m 12.4,1.3 0.5,-0.8 0.3,0.3 -0.4,0.8 z m -12.4,-3.5 2,-0.4 0.4,0.2 -1.8,0.6 z" />
    <path
       id="Eagle-2"
       fill-rule="evenodd"
       class="shp2"
       d="m 26.8,51.3 v -2.4 l 0.5,-0.4 0.1,2.7 z m -0.9,0 h -0.6 v -1.9 l 0.6,-0.1 z m -1.1,-2.1 h -0.4 v -1.1 h 0.4 z m 0.2,0 -0.1,-1.2 h 0.4 l 0.2,1.2 z m 2.4,-0.3 v -0.4 l 0.3,-0.4 0.2,0.5 z m -1.8,0.2 -0.3,-1.2 0.4,-0.1 0.3,1.1 z M 28,48.6 27.7,48 l 0.4,-0.3 0.3,0.7 z m -1.2,0.1 -0.4,-1 0.4,-0.2 0.4,0.9 z m 1.7,-0.3 -0.3,-0.8 0.4,-0.3 0.4,0.9 z m 9.2,-0.4 -1.3,-1.7 0.9,-0.1 1.9,1.9 z m -0.1,0 h -1.1 l -1.1,-1.6 h 1 z m -2.3,0 -1.1,-1.6 h 1 l 1.1,1.6 z m -6,-1 0.5,-0.2 0.6,1.3 h -0.6 z m 4.8,1 -1,-1.5 h 0.8 l 1,1.6 z m -2.9,0.1 h -0.7 l -0.6,-1.3 0.6,-0.1 z m -3.9,0.2 -0.4,-0.8 0.4,-0.3 0.4,0.7 z m 0.4,-0.5 -0.4,-0.7 0.3,-0.3 0.4,0.7 z m -2.8,0 -0.1,-0.8 h 0.3 l 0.1,0.8 z m -0.2,0.1 h -0.4 l 0.1,-0.8 h 0.3 z m 1.1,-1.1 0.3,0.8 -0.3,0.1 -0.5,0.1 -0.1,-0.8 z m 2.4,0.6 -0.4,-0.7 0.3,-0.2 0.5,0.7 z m -1.5,0 -0.4,-0.8 0.3,-0.2 0.5,0.8 z m 2,-0.3 -0.5,-0.7 0.4,-0.3 0.5,0.7 z m -1.1,-0.4 -0.5,-0.8 0.2,-0.3 0.6,0.8 z m 2.2,-0.1 -0.5,-0.8 0.6,-0.2 0.6,0.8 z m 0.9,-1.1 0.7,-0.1 0.7,0.9 h -0.7 z m -2.6,0.8 -0.7,-0.8 0.2,-0.4 0.8,0.9 z m 6.1,-0.1 -1,-1 0.8,-0.1 1.1,1.1 z m 6.8,-1.3 0.7,-0.6 4.2,1.7 -0.7,1 z M 36.4,46.2 35.2,45 35.9,44.9 37.3,46 Z M 28.5,46 27.7,45 27.8,44.6 29,45.7 Z m 8.9,0 -1.4,-1.1 0.8,-0.1 1.7,1 z m -8.2,-0.4 -1.2,-1 0.6,-0.2 1.1,1.1 z m 9.6,0.1 -1.7,-1 0.7,-0.2 1.8,0.9 z m -8.9,-0.3 -1.1,-1.1 0.7,-0.2 1.1,1.2 z m 16,0.4 -4.1,-1.6 0.5,-0.6 3.8,1.2 z m -15.1,-0.5 -1.1,-1.2 0.6,-0.1 1.3,1.2 z m -0.3,-1.3 0.7,-0.1 1.4,1.3 h -0.8 z m 2.2,1.1 -1.3,-1.3 0.7,-0.1 1.4,1.3 z m 1,-0.1 -1.4,-1.3 0.6,-0.1 1.7,1.3 z m 7.1,-0.2 -1.8,-0.7 0.6,-0.3 1.9,0.5 z m -6,0.1 -1.6,-1.3 0.7,-0.1 1.7,1.3 z m 1.9,-0.3 -1.8,-1.1 h 0.6 l 1.9,1 z m 9.5,0.1 -3.8,-1.1 0.4,-0.6 3.6,0.6 z m -4.6,-0.5 -1.9,-0.5 0.5,-0.4 1.9,0.4 z m -3.9,0.1 -1.9,-0.9 0.8,-0.1 1.8,0.8 z m 0.8,-0.2 -1.8,-0.8 0.5,-0.1 2,0.6 z m 3.7,-0.5 -1.9,-0.4 0.3,-0.4 2,0.2 z m 3.7,-1.3 c 0.2,0 0.5,0.3 0.5,0.4 0,0.1 0,0.7 0,0.7 l -3.6,-0.6 0.1,-0.6 z m -5.5,0.5 -0.4,0.4 -2,-0.4 0.2,-0.3 z m 2.3,0 -2,-0.2 0.2,-0.4 1.9,0.1 z m -4.4,-0.3 0.1,-0.3 h 2.3 l -0.2,0.4 z m -13.1,8.8 h -0.5 v -1.9 h 0.5 z m 1.4,0 h -0.5 v -2 l 0.6,-0.2 z m 7.3,-8 c -0.3,0 0,0 -0.3,0 -0.1,0 -0.6,0.1 -0.8,0.1 -0.6,0.1 -0.9,0.1 -1.3,0.2 -0.6,0.1 -1,0.2 -1.2,0.2 -0.8,0.2 -0.6,0.2 -0.8,0.2 -0.5,0.1 -0.8,0.2 -0.8,0.2 -0.6,0.2 -0.7,0.3 -0.9,0.3 0,-0.1 0,-0.4 0,-0.5 0,-0.2 0,-0.2 0,-0.4 0,0 0,0.2 0,-0.1 0,-0.2 -0.1,-0.5 -0.1,-0.6 0.1,0 0.2,-0.1 0.3,-0.1 0.2,-0.1 0.4,-0.2 0.4,-0.2 0.6,-0.2 0.8,-0.2 0.8,-0.2 0.3,-0.1 0.7,-0.1 1,-0.2 0.5,-0.1 1.3,-0.2 1.4,-0.2 1.2,-0.1 1.2,-0.1 1.6,-0.1 0.8,0 0.8,0 1.3,0 0.3,0 0.9,0 1.4,0 0,0 0.8,0 1,0 0.3,0 0.6,0.1 0.9,0.1 0.5,0.1 0.5,0.1 0.5,0.1 -0.1,0.1 -0.2,0.4 -0.3,0.5 -0.3,0.3 -0.6,0.4 -0.8,0.4 -0.7,0.2 -0.7,0.2 -1.2,0.2 -0.3,0.1 -0.6,0.1 -0.7,0.1 -0.3,0.1 -1,0.1 -1,0.1 z M 32.1,48 h -0.8 l -0.7,-1.4 0.6,-0.1 z m -1.5,-1.6 -0.6,-0.9 0.5,-0.1 0.6,0.9 z m 1.6,1.6 -0.8,-1.4 h 0.7 L 33,48 Z m 1,0 -0.9,-1.5 H 33 l 1,1.5 z m 2,-1.8 -1,-1.1 0.8,-0.1 1.2,1.2 z m -2.9,0.1 -0.7,-0.9 0.6,-0.1 0.8,1 z m 0.9,0 -0.9,-1 0.6,-0.1 1,1 z m 5.7,-0.4 0.9,-0.3 4,2.7 h -2.6 z m -9.8,2.3 -0.4,-1 0.5,-0.2 0.5,1.1 z m 0.1,-1.4 -0.6,-0.7 0.4,-0.2 0.6,0.8 z m 10.5,-1.4 -1.7,-1 0.9,-0.2 1.8,0.8 z m -4,-0.6 -1.7,-1.3 h 0.7 l 1.9,1.2 z m -9.4,2.8 -0.4,-0.8 0.3,-0.1 0.4,0.8 z m -0.1,1.4 -0.3,-1.1 0.3,-0.1 0.4,1.1 z m 13.2,-0.9 -1.9,-1.9 1.2,-0.2 2.2,2.3 z m 0.5,-2.6 1,-0.5 4.2,2.1 -1.3,1.1 z m -12.7,1.6 -0.4,-0.8 0.3,-0.3 0.5,0.8 z m 12.2,-3.4 -1.8,-0.6 0.4,-0.2 2,0.4 z" />
  </g>
  <g
     id="g671"
     transform="matrix(0.0423,0,0,0.0423,-0.30720239,30.040324)"
     style="display:inline">
    <g
       id="Lager_2-7"
       data-name="Lager 2">
      <path
         id="Border-9"
         d="m 492.56,504.07 h 215.17 v 60 H 492.56 Z m 207.67,7.7 L 500,511.6 v 45 l 200.2,0.48 z"
         style="fill:#ffff00" />
      <line
         x1="652.03003"
         y1="509.12"
         x2="652.03003"
         y2="560.17999"
         style="fill:none;stroke:#ffff00;stroke-width:7px;stroke-miterlimit:10"
         id="line635" />
      <line
         x1="600.08002"
         y1="509.07001"
         x2="600.08002"
         y2="558.59003"
         style="fill:none;stroke:#ffff00;stroke-width:7px;stroke-miterlimit:10"
         id="line637" />
      <line
         x1="548.26001"
         y1="509.01999"
         x2="548.26001"
         y2="558.46002"
         style="fill:none;stroke:#ffff00;stroke-width:7px;stroke-miterlimit:10"
         id="line639" />
      <path
         d="m 515.85,517.16 c 0,-0.83 12.47,-0.83 12.47,0 0,2.51 -1.58,5.19 -3,7.56 v 0 a 1.34,1.34 0 0 1 -1.15,0.66 H 520 a 1.35,1.35 0 0 1 -1.16,-0.66 v 0 c 0,0 -2.99,-5.06 -2.99,-7.56 z m -0.32,22.63 c -1.09,2.11 -2.32,4.5 -4.19,5.8 -0.62,0.43 -6.77,-7.56 -6.1,-8 1.88,-1.29 4.65,-1.66 7.1,-2 v 0 a 0.9,0.9 0 0 1 0.8,0.29 l 2.21,2.54 a 1.21,1.21 0 0 1 0.18,1.37 z m 15.29,11 c -2,-1.84 -3.06,-4.83 -4,-7.47 v 0 a 1.43,1.43 0 0 1 0.43,-1.57 l 3,-2.56 a 2.22,2.22 0 0 1 1.12,-0.24 c 2.84,0.8 6.07,1.71 8.07,3.55 0.7,0.68 -8,8.94 -8.62,8.33 z M 513.72,533 c -2.65,0.27 -5.65,0.57 -7.93,-0.51 -1,-0.45 3.6,-11.91 4.37,-11.55 2.29,1.08 4.18,3.7 5.85,6 v 0 a 1.48,1.48 0 0 1 0.19,1.39 l -1.46,3.88 a 1.21,1.21 0 0 1 -1,0.77 v 0 z m 12.45,17.58 c -0.08,0.86 -12.51,-0.13 -12.43,-1 0.25,-2.5 2.08,-5 3.71,-7.3 v 0 a 1.06,1.06 0 0 1 0.88,-0.44 l 4.27,0.08 c 0.59,0 3.82,6.08 3.58,8.61 z m 13.45,-23.41 c -1.73,1.7 -8.07,3 -8.4,2.57 l -2.4,-3 a 1.14,1.14 0 0 1 -0.2,-1 v 0 c 0.78,-2.56 1.67,-5.46 3.4,-7.16 0.58,-0.7 8.33,7.84 7.61,8.55 z m -13.88,1 c 1.42,2.35 3,5 3.06,7.52 0,2.12 -4.3,3.79 -6.18,4.31 -1.89,-0.48 -6.26,-2.3 -6.29,-4.42 0,-2.51 1.52,-5 2.88,-7.34 l 1.25,-0.63 h 3.78 l 1.5,0.57 z m 12.87,11.37 c -2.13,-0.06 -4.2,-1.26 -6,-2.31 v 0 a 1,1 0 0 1 -0.46,-1.11 l 0.69,-2.93 c 0.07,-0.3 0.6,-0.69 0.6,-0.69 2.18,-0.94 4.65,-2 6.78,-2 0.78,0.06 -0.89,9.06 -1.59,9 z"
         style="fill:#ffff00"
         id="path641" />
      <path
         d="m 667.82,519.27 c -0.18,-0.81 12,-3.53 12.17,-2.72 0.55,2.45 -0.41,5.41 -1.25,8 v 0 a 1.34,1.34 0 0 1 -1,0.9 l -4.1,0.92 a 1.35,1.35 0 0 1 -1.28,-0.39 v 0 c 0,0 -4,-4.26 -4.54,-6.71 z m 4.31,22.56 c -0.59,2.73 -1.26,5.82 -2.9,7.77 -0.54,0.65 -9.11,-7.26 -8.52,-8 1.64,-2 4.46,-3 7,-4 v 0 a 0.92,0.92 0 0 1 0.92,0.15 l 3,2.46 a 1.59,1.59 0 0 1 0.54,1.56 z m 19,2.94 c -2.36,-1.07 -4.31,-3.58 -6,-5.79 v 0 a 1.6,1.6 0 0 1 -0.19,-1.66 l 1.65,-3.48 c 0.17,-0.35 0.87,-0.61 0.87,-0.61 2.71,-0.21 5.78,-0.45 8.14,0.62 0.81,0.39 -3.68,11.28 -4.46,10.93 z M 667.78,534.3 c -2.63,0.4 -5.61,0.85 -8,-0.12 -1,-0.4 3,-12.07 3.8,-11.75 2.34,1 4.36,3.49 6.14,5.72 v 0 a 1.48,1.48 0 0 1 0.25,1.37 l -1.27,3.94 a 1.21,1.21 0 0 1 -1,0.82 v 0 z M 687,549.37 c 0.1,0.86 -12.24,2.6 -12.34,1.77 -0.31,-2.5 0.93,-5.39 2,-7.94 v 0 a 1.06,1.06 0 0 1 0.76,-0.62 l 4.19,-0.86 c 0.56,-0.12 5.05,5.16 5.39,7.65 z m 7.83,-21.28 c -1.9,1.73 -8.6,2.84 -8.92,2.37 l -2.34,-3.36 a 1.23,1.23 0 0 1 -0.15,-1.12 v 0 c 1,-2.7 2,-5.75 3.94,-7.49 0.64,-0.57 8.23,8.88 7.44,9.6 z m -19.27,11.65 c -1.88,-2 -4,-4.28 -4.55,-6.73 -0.46,-2.07 2.94,-4.91 5.16,-5.5 2,-0.38 6.6,1 7.06,3 0.55,2.45 -0.46,5.16 -1.31,7.77 l -0.65,0.59 -5,1 -0.76,-0.2 z"
         style="fill:#ffff00"
         id="path643" />
      <path
         d="m 620.59,516.24 c 0.06,-0.83 13.91,0.2 13.85,1 -0.19,2.5 -2.14,5 -3.86,7.29 v 0 a 1.53,1.53 0 0 1 -1.33,0.56 l -4.67,-0.34 a 1.54,1.54 0 0 1 -1.24,-0.76 v 0 c 0,0 -2.94,-5.25 -2.75,-7.75 z m -0.53,24.57 c -1.15,2.54 -2.45,5.43 -4.46,7 -0.67,0.52 -7.38,-9 -6.66,-9.58 2,-1.57 5,-2 7.64,-2.43 v 0 a 0.92,0.92 0 0 1 0.86,0.34 l 2.41,3 a 1.59,1.59 0 0 1 0.2,1.64 z m 17.51,6.6 c -2.08,-1.54 -3.46,-4.4 -4.67,-6.93 v 0 a 1.6,1.6 0 0 1 0.17,-1.66 l 2.34,-3 c 0.24,-0.31 1,-0.41 1,-0.41 2.69,0.36 5.75,0.78 7.83,2.32 0.7,0.49 -5.98,10.2 -6.67,9.68 z m -20.73,-15 c -2.73,0.15 -5.83,0.32 -8,-1 -0.9,-0.55 5.45,-12.83 6.18,-12.39 2.17,1.31 3.7,4.28 5.06,6.9 v 0 a 1.7,1.7 0 0 1 0,1.53 l -2.08,4.14 a 1.39,1.39 0 0 1 -1.14,0.79 v 0 z M 632,550.17 c -0.08,0.86 -12.39,1.29 -12.31,0.45 0.23,-2.5 2,-5.07 3.65,-7.33 v 0 a 1.06,1.06 0 0 1 0.88,-0.45 h 4.27 c 0.61,0.05 3.77,4.83 3.51,7.33 z m 12.25,-17.84 c -2.22,1.3 -9,1 -9.22,0.45 L 633.49,529 a 1.23,1.23 0 0 1 0.09,-1.12 v 0 c 1.5,-2.44 3.2,-5.2 5.42,-6.49 0.74,-0.44 6.22,10.4 5.29,10.94 z m -22,5.57 c -1.41,-2.35 -2.34,-4.26 -2.36,-6.77 0,-2.12 4.32,-3.77 6.2,-4.29 1.89,0.49 6.25,2.32 6.27,4.44 a 9.63,9.63 0 0 1 -1.61,6 l -2.11,2 -5,-0.28 -0.72,-0.31 z"
         style="fill:#ffff00"
         id="path645" />
      <path
         d="m 563.72,519.14 c -0.26,-0.79 11.57,-4.72 11.83,-3.93 0.79,2.38 0.14,5.42 -0.44,8.11 v 0 a 1.34,1.34 0 0 1 -0.88,1 l -4,1.33 a 1.35,1.35 0 0 1 -1.31,-0.26 v 0 c 0,0 -4.41,-3.87 -5.2,-6.25 z m 3.41,22.75 c -1.17,2.53 -2.5,5.41 -4.52,7 -0.67,0.52 -7.31,-9.07 -6.58,-9.63 2,-1.55 5,-2 7.66,-2.37 v 0 a 0.92,0.92 0 0 1 0.86,0.34 l 2.39,3 a 1.59,1.59 0 0 1 0.19,1.64 z m 17.77,8.83 c -2.07,-1.56 -3.42,-4.43 -4.62,-7 v 0 a 1.6,1.6 0 0 1 0.18,-1.66 l 2.36,-3 c 0.24,-0.31 1,-0.41 1,-0.41 2.69,0.39 5.74,0.83 7.81,2.38 0.71,0.55 -6,10.21 -6.73,9.69 z M 564,533.52 c -2.65,0.27 -5.65,0.57 -7.93,-0.51 -1,-0.45 3.6,-11.91 4.37,-11.55 2.29,1.08 4.18,3.7 5.85,6 v 0 a 1.48,1.48 0 0 1 0.19,1.38 l -1.48,3.88 a 1.21,1.21 0 0 1 -1,0.77 v 0 z m 15.38,17.77 c -0.08,0.86 -12.51,-0.13 -12.43,-1 0.25,-2.5 2.08,-5 3.71,-7.3 v 0 a 1.06,1.06 0 0 1 0.88,-0.44 l 4.27,0.08 c 0.63,0 3.86,6.16 3.61,8.66 z M 593.6,536.4 c -2.33,1.1 -9.31,0.92 -9.48,0.38 l -1.26,-3.9 a 1.23,1.23 0 0 1 0.18,-1.11 v 0 c 1.7,-2.3 4.33,-4.19 6,-6 0.74,-0.37 5.52,10.17 4.56,10.63 z m -15.67,-7 c 1.26,2.44 2.68,5.21 2.53,7.71 -0.12,2.12 -5,1.62 -6.91,2 -5.64,-0.86 -6.07,-0.93 -5.52,-3 a 22.72,22.72 0 0 1 3.38,-7.12 l 3.46,-2.15 3,2.52 z m 10.78,-5.91 c -1.8,1.74 -4.68,2.57 -7.22,3.3 v 0 A 1.44,1.44 0 0 1 580,526.34 l -2.38,-2.79 a 1.93,1.93 0 0 1 -0.2,-1 c 0.83,-2.54 1.77,-5.41 3.57,-7.15 0.62,-0.66 8.32,7.5 7.72,8.07 z"
         style="fill:#ffff00"
         id="path647" />
      <path
         id="Sun-3"
         d="m 672.07,328.15 c 0,39 -32.23,70.56 -72,70.56 -39.77,0 -72,-31.59 -72,-70.56 0,-38.97 32.23,-70.56 72,-70.56 39.77,0 72,31.59 72,70.56"
         style="fill:#ffffff" />
      <path
         id="Eagle-8"
         d="m 534.25,504.1 2.23,-64.54 11.78,9.37 -0.64,55.25 z m 34.56,-47.26 13.57,1.74 -0.52,45.59 -13.32,-0.1 z m 26.58,-30 h 8.91 l 1,26.77 c 0,0.53 -0.28,1 -0.65,1 H 595 c -0.37,0 -0.67,-0.44 -0.65,-1 z m -15.61,26.72 4.36,-27.73 8.35,0.56 -2.15,27.8 z M 520.52,440.93 526,428 l 8,9.56 -0.51,9.92 z m 44.48,10.39 7.44,-26.91 8.9,1.42 -6,27.25 z m -56.39,-15.89 7.26,-16 8.65,7 -6.15,13.63 z m 29.87,0.74 10.4,-20 8.52,4 -9.58,23.61 z m -42.54,-3.59 8.73,-21.43 9.33,6.65 -7.5,17.41 z m -239.88,-3.88 43.51,-44.27 20.85,2.92 -29.85,39.9 z M 324,388 l 22.82,1.07 -26,37.73 -26.59,0.64 z m 0.87,38.82 26.13,-37.66 h 22.28 L 348,426.1 Z M 463.56,429 478.2,399 488.85,402.78 477,429 Z m -111,-2.85 L 377,389.7 396.82,390.27 374.48,426 Z M 461.3,395.41 475,397.84 460.07,428.71 443.6,428 Z m 66.34,29.39 9.19,-16.47 9,6.53 -9.65,19.38 z m -11.18,-9.67 10.12,-16.26 8.07,7 -8.91,16.13 z m 68.06,7.33 3.76,-18.46 6.63,0.5 -2.23,18.5 z m 12.65,-17.6 6.29,-0.29 1.41,18.93 -9.4,-0.18 z m -34.77,13.23 8.15,-19.15 6.37,2.33 -6.94,19 z m -56.64,-10.85 11.42,-16 6.89,5.3 -9.83,16.72 z m 34.84,-0.81 10.9,-18.32 7.52,5.21 -9.87,19 z m -48,-5.67 12.71,-17.4 8.95,6 -11.1,16.31 z m 27.09,-11.82 14.84,-18.3 5.3,7.56 -11.34,18 z m -58,2.29 14.56,-19.86 13,3.56 -13.59,18.74 z M 440.13,388 422.58,387.52 439.1,366 l 16.42,1.45 z m 69,-7.33 18.59,-21.57 5.25,8.45 -15.72,18.83 z m -155.13,4.82 25,-25.85 17.68,1.26 -23.62,24.51 z m -239,16.45 -15.42,-22.76 99.11,-38.82 15.49,13.53 z m 186.45,-21.52 32.8,-26.12 17.13,2.08 -29,27.08 z m 193,-8.06 28.55,-25.63 3.21,9.46 -19.35,22.51 z m -223.79,1.72 40.52,-24.35 18.82,3.27 -32.85,26.58 z m 207.66,-6.49 25.52,-25.21 15.25,4 -27.76,24.62 z m -231,-1.32 41.8,-22.27 17.35,4.41 -40.19,24.29 z m 209.94,-1.93 26.46,-27.25 16.06,4.26 -25.43,25.23 z m -364.1,-12.27 90.11,-27 12,13 L 98.8,376 Z m 341.84,9.46 30.74,-28.23 14.43,2.62 -26.68,27.4 z m -22.85,-2.37 31.85,-29.37 17.26,2.52 -31.13,28.49 z m -22,-2.67 33.57,-29.84 15.85,2.19 -31.81,29.16 z m -26.15,-2.24 39.14,-30.47 15.17,2 -32.74,30.35 z m -161.53,-14.55 43.45,-12.2 14.76,7.58 -41.81,17.32 z m 139.69,12.3 40,-30.07 15.51,1.33 -38.67,30.36 z m -46.64,-10.2 45.61,-23.08 14.49,1.14 -41.69,26.07 z m -207,-19.55 83.63,-14 9.31,14.62 -89,25.48 z m 99.56,3.84 44,-10 11.86,9 -44.54,11.62 z m 87,10.13 41.37,-19.61 18.69,1.51 -44.59,22.13 z m -19.55,-7.91 44.47,-15.62 12.52,2.81 -41.3,19.58 z m -79.8,-20.2 48,-4.14 6.41,9.36 -44.42,8.93 z m -76,-14.39 68.49,-2.28 2.77,14.2 -82.4,13.6 c 0,0 -0.59,-13.24 -0.59,-15.91 0,-2.67 7.5,-9.48 11.78,-9.6 m 177.82,5.33 5.82,6.4 -48,8.48 -8.42,-10.33 z m -106.2,-7.34 45.17,-1.2 4.43,10.48 -46.74,3.83 z m 53.46,8.73 -5.2,-10.45 54.59,-1.13 2.22,7.48 z m 361.2,158 12,0.35 v 45.37 h -12.58 z m -33.88,-7 13,4.69 -0.81,48 H 551.55 Z M 378.91,318.25 c 7.33,0.47 0,0 8,0.63 2.7,0.21 14.94,1.62 19,2 12.88,1.33 22.11,2.69 30.43,4 13.83,2.2 23.87,3.53 28.31,4.39 18.79,3.62 14,2.57 18.79,3.62 11.88,2.6 19.3,5.06 19.3,5.06 12.37,3.63 16.83,5.23 20.43,6.15 a 35.56,35.56 0 0 1 -0.47,-4.67 l -0.12,-5.59 v -2.18 c 0.07,-4.73 0,-4.5 0.27,-9.31 0,0.14 -0.21,4.37 0.19,-1.66 a 127.65,127.65 0 0 1 2.53,-14.85 63.11,63.11 0 0 0 -6.3,-3.24 c -6.15,-2.57 -9.82,-3.88 -9.82,-3.88 -14.58,-4.43 -19.5,-5.3 -19.5,-5.3 -7,-1.52 -15.61,-3.28 -22.71,-4.49 -12.23,-2.09 -29.58,-3.93 -32.84,-4.08 -26.46,-1.25 -26.47,-1 -36.84,-1.39 -17.37,-0.58 -17.37,-0.58 -29.86,-0.27 -6.59,0.17 -20.46,0.57 -31.86,0.91 0,0 -19.16,1 -24.35,1.09 a 170.63,170.63 0 0 0 -22.13,1.88 c -12.21,1.73 -11.94,1.73 -11.94,1.73 0.38,3.68 3.62,10 6.12,12.37 6.5,6.18 14,8 19.15,9.08 17.07,3.71 17.89,3.53 28.84,4.3 6.23,0.44 12.65,1.25 15.37,1.46 6.47,0.51 23.55,1.62 23.55,1.62 m 72.55,74.95 14.38,1.76 -17.1,33.17 -18.22,-0.44 z m 1.67,-4 14.93,-20 12.91,1.57 -14.71,20 z m -43.43,37.15 21,-33.82 16.84,0.57 -19.64,33.82 z m -23.31,0.18 23.49,-35.59 17.19,0.68 -21.61,34.9 z m -51,-41.67 28.47,-27 18.6,2.06 -25,26 z m 74.85,2.54 19.73,-22.72 13.28,1.26 -16.87,21.93 z m -23.24,-1.14 22.73,-23.64 15.24,1.53 -20.19,22.81 z m 194.71,35.2 5.93,-18.74 6.43,1.34 -4,18.67 z m -362.6,11.74 -60,-0.58 93,-62.53 20.25,7 z m 269.27,-2.58 11.68,-26 11.17,5.2 -9.52,22.8 z m -1.29,-35 13.8,-19 10.49,5.38 -13.29,17.49 z m -256.48,-40.47 41.85,-17.7 20.52,5.86 -41,22.34 z m 96.38,-6.88 43.58,-27.65 15.52,1 -40,29.6 z m 233,66.2 9.56,-19.29 7.1,3.28 -8.41,19.53 z m -0.58,32.5 9.59,-25.53 8.6,2.81 -7.69,26.89 z m -335.49,-13.65 51.85,-54.87 27.8,5.68 -43.5,45.49 z m 25.12,-64.7 -93.13,62.52 -30.14,-25.61 99.43,-48.72 z m 290.42,30 10.81,-17.77 7.25,6.58 -10.33,17.67 z m -291.69,-81 46.69,-9.17 8.82,3.58 -42.53,15 z"
         style="fill:#ffff00" />
      <path
         id="Eagle-2-0"
         d="m 652.38,504.17 -0.64,-55.25 11.78,-9.37 2.23,64.54 z m -20.92,-0.1 -13.32,0.1 -0.52,-45.59 13.57,-1.74 z m -25.83,-50.45 c 0,0.53 -0.28,1 -0.65,1 h -9.64 c -0.37,0 -0.67,-0.44 -0.65,-1 l 1,-26.77 h 8.91 z m 4,0.58 -2.15,-27.8 8.35,-0.56 4.36,27.73 z m 56.84,-6.69 -0.51,-9.92 8,-9.56 5.52,12.9 z m -41.91,5.57 -6,-27.25 8.9,-1.42 7.54,26.91 z m 57,-13 -6.15,-13.63 8.65,-7 7.26,16 z m -29.45,3.68 -9.58,-23.61 8.52,-4 10.4,20 z m 41.35,-8.52 -7.46,-17.44 9.31,-6.65 8.69,21.43 z m 215.91,-8 -29.85,-39.9 20.85,-2.92 43.51,44.27 z m -3.63,0.2 -26.59,-0.64 -26,-37.73 L 876,388 Z M 852,426.11 826.69,389.17 H 849 l 26.15,37.68 z m -129,2.94 -11.8,-26.17 10.65,-3.78 14.64,30 z m 102.44,-3 -22.34,-35.77 19.9,-0.58 24.52,36.5 z m -69.12,2 -16.47,0.69 -14.85,-30.9 13.78,-2.41 z m -92.56,6.24 -9.65,-19.38 9,-6.53 9.19,16.47 z m 10.5,-12.29 -8.84,-16 8.07,-7 10.12,16.26 z m -66.94,1 -2.22,-18.5 6.63,-0.5 3.83,18.48 z m -2.71,0.38 -9.4,0.18 1.41,-18.93 6.29,0.29 z m 25.4,-3.07 -6.94,-19 6.37,-2.33 8.15,19.15 z m 55.75,-7 -9.83,-16.72 6.89,-5.3 11.42,16 z m -34.91,-0.85 -9.87,-19 7.52,-5.21 10.9,18.32 z m 46,-6.64 -11.1,-16.31 9,-6 12.71,17.4 z m -25.32,-9.57 -11.34,-18 5.3,-7.56 14.84,18.31 z m 52.81,-2.49 -13.59,-18.76 13,-3.56 14.56,19.86 z m 20.17,-26.18 16.39,-1.58 16.52,21.44 -17.55,0.48 z m -61.73,18.86 -15.78,-18.92 5.25,-8.45 18.59,21.57 z M 827,385.5 l -23.7,-24.6 17.7,-1.26 25,25.85 z m 158.86,-31.5 15.49,-13.53 99.11,38.82 L 1085,402 Z m -108.3,29.47 -29,-27.08 17.13,-2.08 32.8,26.12 z m -184.42,-4.77 -19.41,-22.51 3.21,-9.46 28.58,25.63 z M 902.88,379.56 870,353 l 18.77,-3.25 40.52,24.35 z M 708.67,371 l -27.79,-24.63 15.25,-4 25.52,25.21 z m 225,1.72 -40.19,-24.29 17.4,-4.43 41.79,22.25 z m -208.08,-6.13 -25.39,-25.24 16.06,-4.26 26.46,27.25 z m 375.61,9.41 -96.51,-37.92 12,-13 90.11,27 z m -354.69,-12.67 -26.68,-27.4 14.43,-2.62 30.74,28.22 z m 23.34,-2.54 -31.18,-28.49 17.26,-2.52 31.9,29.37 z m 22.39,-2.79 -31.86,-29.12 15.85,-2.19 33.57,29.81 z m 22.15,-1.84 -32.74,-30.35 15.17,-2 39.18,30.44 z m 166.75,-3.72 -41.81,-17.32 14.76,-7.58 43.45,12.2 z m -140.09,1.22 -38.72,-30.36 15.51,-1.3 40,30.07 z m 45,-7.69 -41.69,-26.07 14.49,-1.14 45.61,23.08 z m 221.53,2.47 -89,-25.48 9.31,-14.62 83.63,14 z m -107,-11.64 -44.58,-11.62 11.86,-9 44,10 z m -91.18,3.49 -44.59,-22.13 18.69,-1.51 41.37,19.61 z m 19.36,-5.18 -41.3,-19.58 12.54,-2.84 44.45,15.63 z m 85.52,-12.79 -44.42,-8.93 6.41,-9.36 48,4.14 z m 85.94,-28.55 c 4.28,0.12 11.78,6.91 11.78,9.6 0,2.69 -0.64,15.91 -0.64,15.91 l -82.4,-13.6 2.77,-14.2 68.49,2.28 m -127.22,9.85 -8.4,10.33 -48,-8.48 5.82,-6.4 z m 52.73,1.21 L 979,301 l 4.46,-10.47 45.17,1.2 z m -102.19,-8.5 2.22,-7.48 54.58,1.16 -5.19,10.48 z m -309,207.84 H 601.93 V 458.8 l 12,-0.35 z m 33.93,0 h -12.89 l -0.81,-48 13,-4.69 z m 181,-186.49 c 0,0 17.08,-1.11 23.53,-1.67 2.72,-0.21 9.15,-1 15.37,-1.46 11,-0.77 11.78,-0.59 28.84,-4.3 5.19,-1.13 12.64,-2.9 19.15,-9.08 2.5,-2.38 5.75,-8.69 6.12,-12.37 0,0 0.27,0 -11.94,-1.73 a 170.63,170.63 0 0 0 -22.13,-1.88 c -5.19,-0.1 -24.35,-1.09 -24.35,-1.09 -11.41,-0.34 -25.28,-0.75 -31.86,-0.91 -12.49,-0.31 -12.49,-0.31 -29.86,0.27 -10.37,0.35 -10.38,0.14 -36.84,1.39 -3.26,0.15 -20.61,2 -32.84,4.08 -7.11,1.21 -15.67,3 -22.71,4.49 0,0 -4.92,0.87 -19.5,5.3 0,0 -3.68,1.31 -9.82,3.88 a 63.11,63.11 0 0 0 -6.3,3.24 c 0.48,2.38 2.22,10.26 2.53,14.85 0.4,6 0.2,1.8 0.19,1.66 0.24,4.82 0.19,4.59 0.27,9.31 v 2.18 l -0.12,5.59 a 35.56,35.56 0 0 1 -0.47,4.67 c 3.59,-0.92 8,-2.52 20.43,-6.15 0,0 7.42,-2.46 19.3,-5.06 4.77,-1 0,0 18.79,-3.62 4.44,-0.86 14.48,-2.19 28.31,-4.39 8.32,-1.32 17.55,-2.69 30.43,-4 4.1,-0.42 16.34,-1.83 19,-2 8,-0.63 0.71,-0.16 8,-0.63 m -43.1,108.78 -18.22,0.44 -17.1,-33.17 14.43,-1.71 z m -35.73,-36.91 -14.71,-20 12.91,-1.57 14.93,20 z m 38.4,36.15 -19.64,-33.82 16.84,-0.57 21,33.82 z M 803,425.9 781.36,391 l 17.19,-0.68 23.45,35.6 z m 48,-40.59 -25,-26 18.6,-2.06 28.47,27 z m -68.93,2 -16.87,-21.93 13.28,-1.26 19.73,22.72 z m 21.62,-1 -20.19,-22.76 15.23,-1.55 22.71,23.68 z m -185.32,35.8 -4,-18.67 6.43,-1.34 5.93,18.74 z m 317.72,-45.61 20.25,-7 93,62.53 -60,0.54 z m -229.34,55.5 -9.53,-22.81 11.17,-5.2 11.68,26 z m 3.62,-33.18 -13.29,-17.49 10.49,-5.33 13.8,19 z M 956.45,365 l -41,-22.34 20.55,-5.83 41.84,17.71 z m -94.12,-14.39 -40,-29.6 15.52,-1 43.58,27.61 z m -222.1,66.76 -8.41,-19.53 7.1,-3.28 9.56,19.29 z m -1.68,33.15 -7.69,-26.89 8.6,-2.81 9.54,25.53 z M 948.39,429 l -43.5,-45.45 27.8,-5.68 51.85,54.87 z m 11,-61 v 0 l 23.85,-11.85 99.43,48.72 -30.14,25.61 z M 661.23,404.49 650.9,386.82 658.15,380.24 669,398 Z m 286.5,-78.07 -42.53,-15 8.82,-3.58 46.67,9.16 z"
         style="fill:#ffff00" />
    </g>
  </g>
  <path
     id="Aramean "
     fill="#444444"
     aria-label="Aramean"
     d="M94.53 61L87.89 61L85.04 52.51L72.83 52.51L69.98 61L63.27 61L74.96 27.76L82.88 27.76L94.53 61ZM79.4 34.51L78.92 32.88L78.79 33.4Q78.56 34.25 78.24 35.34Q77.92 36.42 74.33 47.27L83.54 47.27L80.38 37.72L79.4 34.51ZM105.97 61L99.58 61L99.58 41.47Q99.58 39.37 99.51 37.98Q99.46 36.56 99.39 35.48L105.49 35.48Q105.56 35.9 105.67 38.07Q105.79 40.22 105.79 40.93L105.88 40.93Q106.81 38.24 107.54 37.15Q108.27 36.04 109.27 35.52Q110.27 34.98 111.77 34.98Q113 34.98 113.75 35.34L113.75 40.88Q112.2 40.53 111.02 40.53Q108.63 40.53 107.29 42.53Q105.97 44.54 105.97 48.47L105.97 61ZM123.96 61.47Q120.39 61.47 118.38 59.47Q116.38 57.44 116.38 53.78Q116.38 49.82 118.86 47.74Q121.36 45.67 126.1 45.62L131.4 45.53L131.4 44.23Q131.4 41.73 130.56 40.53Q129.72 39.3 127.8 39.3Q126.03 39.3 125.19 40.15Q124.37 40.97 124.16 42.91L117.5 42.58Q118.11 38.85 120.77 36.94Q123.46 35.01 128.08 35.01Q132.74 35.01 135.27 37.39Q137.79 39.77 137.79 44.16L137.79 53.45Q137.79 55.6 138.25 56.42Q138.73 57.23 139.82 57.23Q140.55 57.23 141.23 57.08L141.23 60.67Q140.66 60.81 140.21 60.93Q139.75 61.05 139.3 61.12Q138.84 61.19 138.32 61.24Q137.82 61.28 137.13 61.28Q134.72 61.28 133.56 60.06Q132.42 58.83 132.2 56.45L132.06 56.45Q129.37 61.47 123.96 61.47ZM131.4 50.48L131.4 49.18L128.12 49.23Q125.89 49.32 124.96 49.75Q124.03 50.15 123.53 51Q123.05 51.85 123.05 53.26Q123.05 55.08 123.84 55.98Q124.66 56.85 126.01 56.85Q127.51 56.85 128.74 56Q129.99 55.15 130.69 53.66Q131.4 52.15 131.4 50.48ZM165.59 61L159.24 61L159.24 46.68Q159.24 39.96 155.51 39.96Q153.58 39.96 152.35 42.01Q151.14 44.06 151.14 47.32L151.14 61L144.75 61L144.75 41.19Q144.75 39.13 144.68 37.84Q144.63 36.51 144.56 35.48L150.66 35.48Q150.73 35.93 150.84 37.88Q150.96 39.82 150.96 40.55L151.05 40.55Q152.23 37.62 153.99 36.3Q155.76 34.98 158.22 34.98Q163.86 34.98 165.07 40.55L165.2 40.55Q166.45 37.58 168.21 36.28Q169.96 34.98 172.67 34.98Q176.26 34.98 178.15 37.53Q180.04 40.05 180.04 44.79L180.04 61L173.69 61L173.69 46.68Q173.69 39.96 169.96 39.96Q168.09 39.96 166.89 41.85Q165.7 43.71 165.59 47.01L165.59 61ZM196.82 61.47Q191.27 61.47 188.29 58.08Q185.31 54.65 185.31 48.12Q185.31 41.8 188.34 38.4Q191.36 35.01 196.91 35.01Q202.22 35.01 205.01 38.66Q207.81 42.29 207.81 49.32L207.81 49.51L192.02 49.51Q192.02 53.24 193.34 55.15Q194.68 57.04 197.14 57.04Q200.53 57.04 201.42 53.99L207.45 54.54Q204.83 61.47 196.82 61.47ZM196.82 39.18Q194.57 39.18 193.34 40.81Q192.14 42.44 192.07 45.36L201.62 45.36Q201.44 42.27 200.19 40.74Q198.94 39.18 196.82 39.18ZM218.91 61.47Q215.34 61.47 213.33 59.47Q211.33 57.44 211.33 53.78Q211.33 49.82 213.81 47.74Q216.31 45.67 221.05 45.62L226.35 45.53L226.35 44.23Q226.35 41.73 225.51 40.53Q224.66 39.3 222.75 39.3Q220.98 39.3 220.14 40.15Q219.32 40.97 219.11 42.91L212.45 42.58Q213.06 38.85 215.72 36.94Q218.41 35.01 223.03 35.01Q227.69 35.01 230.22 37.39Q232.74 39.77 232.74 44.16L232.74 53.45Q232.74 55.6 233.2 56.42Q233.68 57.23 234.77 57.23Q235.5 57.23 236.18 57.08L236.18 60.67Q235.61 60.81 235.15 60.93Q234.7 61.05 234.24 61.12Q233.79 61.19 233.27 61.24Q232.77 61.28 232.08 61.28Q229.67 61.28 228.51 60.06Q227.37 58.83 227.14 56.45L227.01 56.45Q224.32 61.47 218.91 61.47ZM226.35 50.48L226.35 49.18L223.07 49.23Q220.84 49.32 219.91 49.75Q218.98 50.15 218.48 51Q218 51.85 218 53.26Q218 55.08 218.79 55.98Q219.61 56.85 220.96 56.85Q222.46 56.85 223.69 56Q224.94 55.15 225.64 53.66Q226.35 52.15 226.35 50.48ZM262.02 61L255.65 61L255.65 46.68Q255.65 39.96 251.26 39.96Q248.93 39.96 247.5 42.03Q246.09 44.09 246.09 47.32L246.09 61L239.7 61L239.7 41.19Q239.7 39.13 239.63 37.84Q239.58 36.51 239.51 35.48L245.61 35.48Q245.68 35.93 245.79 37.88Q245.91 39.82 245.91 40.55L246 40.55Q247.3 37.62 249.25 36.3Q251.21 34.98 253.92 34.98Q257.83 34.98 259.92 37.48Q262.02 39.98 262.02 44.79L262.02 61Z" />
  <path
     id="Center "
     fill="#555555"
     aria-label="Center"
     d="M288.01 31.46Q283.22 31.46 280.55 34.96Q277.89 38.44 277.89 44.51Q277.89 50.52 280.65 54.18Q283.44 57.82 288.17 57.82Q294.23 57.82 297.29 51.03L300.48 52.84Q298.7 57.06 295.46 59.26Q292.25 61.46 287.99 61.46Q283.62 61.46 280.43 59.42Q277.25 57.36 275.58 53.56Q273.92 49.73 273.92 44.51Q273.92 36.7 277.64 32.27Q281.37 27.84 287.97 27.84Q292.58 27.84 295.67 29.88Q298.76 31.92 300.22 35.93L296.51 37.33Q295.5 34.47 293.27 32.97Q291.06 31.46 288.01 31.46ZM324.05 49.34L308.24 49.34Q308.24 53.65 309.81 55.99Q311.39 58.33 314.42 58.33Q316.82 58.33 318.25 57.24Q319.71 56.15 320.22 54.48L323.45 55.53Q321.47 61.46 314.42 61.46Q309.51 61.46 306.92 58.15Q304.36 54.83 304.36 48.29Q304.36 42.08 306.92 38.76Q309.51 35.45 314.28 35.45Q324.05 35.45 324.05 48.78L324.05 49.34ZM308.28 46.14L320.24 46.14Q319.93 42.17 318.46 40.36Q316.98 38.53 314.22 38.53Q311.53 38.53 309.96 40.57Q308.4 42.59 308.28 46.14ZM347.02 61L343.31 61L343.31 45.09Q343.31 42.61 342.88 41.24Q342.45 39.88 341.51 39.27Q340.57 38.67 338.75 38.67Q336.08 38.67 334.55 40.73Q333.01 42.8 333.01 46.46L333.01 61L329.32 61L329.32 41.27Q329.32 36.89 329.2 35.91L332.68 35.91Q332.7 36.03 332.72 36.54Q332.74 37.05 332.76 37.72Q332.81 38.37 332.85 40.2L332.91 40.2Q334.18 37.6 335.84 36.54Q337.52 35.45 339.99 35.45Q343.64 35.45 345.32 37.51Q347.02 39.55 347.02 44.28L347.02 61ZM361.59 57.73L361.59 60.81Q359.77 61.37 357.87 61.37Q353.44 61.37 353.44 55.69L353.44 38.95L350.88 38.95L350.88 35.91L353.59 35.91L354.67 30.3L357.13 30.3L357.13 35.91L361.23 35.91L361.23 38.95L357.13 38.95L357.13 54.79Q357.13 56.59 357.64 57.34Q358.17 58.06 359.46 58.06Q360.2 58.06 361.59 57.73ZM383.87 49.34L368.06 49.34Q368.06 53.65 369.64 55.99Q371.21 58.33 374.24 58.33Q376.64 58.33 378.07 57.24Q379.53 56.15 380.04 54.48L383.28 55.53Q381.29 61.46 374.24 61.46Q369.33 61.46 366.75 58.15Q364.19 54.83 364.19 48.29Q364.19 42.08 366.75 38.76Q369.33 35.45 374.1 35.45Q383.87 35.45 383.87 48.78L383.87 49.34ZM368.1 46.14L380.06 46.14Q379.75 42.17 378.28 40.36Q376.8 38.53 374.04 38.53Q371.36 38.53 369.78 40.57Q368.22 42.59 368.1 46.14ZM392.83 61L389.15 61L389.15 41.75Q389.15 39.11 389.02 35.91L392.51 35.91Q392.67 40.18 392.67 41.04L392.75 41.04Q393.63 37.81 394.78 36.63Q395.93 35.45 398.02 35.45Q398.75 35.45 399.51 35.68L399.51 39.51Q398.77 39.27 397.54 39.27Q395.25 39.27 394.04 41.52Q392.83 43.75 392.83 47.92L392.83 61Z" />
</svg>
