<svg id="svg548" xmlns="http://www.w3.org/2000/svg" width="745.84" height="745.84" viewBox="0 0 745.84 745.84"><title>logo</title><circle cx="372.92" cy="372.92" r="372.92" style="fill:red"/><g id="Lager_2" data-name="Lager 2"><path id="Border" d="M309.6,462.07H437.3v35.61H309.6Zm123.24,4.57L314,466.54v26.71l118.81.28Z" style="fill:#ff0"/><line x1="404.24" y1="465.07" x2="404.24" y2="495.37" style="fill:none;stroke:#ff0;stroke-miterlimit:10;stroke-width:7px"/><line x1="373.41" y1="465.04" x2="373.41" y2="494.42" style="fill:none;stroke:#ff0;stroke-miterlimit:10;stroke-width:7px"/><line x1="342.66" y1="465.01" x2="342.66" y2="494.35" style="fill:none;stroke:#ff0;stroke-miterlimit:10;stroke-width:7px"/><path d="M323.43,469.84c0-.49,7.4-.49,7.4,0,0,1.49-.94,3.08-1.78,4.49h0a.8.8,0,0,1-.68.39h-2.47a.8.8,0,0,1-.69-.39h0S323.43,471.32,323.43,469.84Zm-.19,13.43a9.27,9.27,0,0,1-2.49,3.44c-.37.26-4-4.49-3.62-4.75a10.18,10.18,0,0,1,4.21-1.19h0a.53.53,0,0,1,.47.17l1.31,1.51a.72.72,0,0,1,.11.81Zm9.07,6.53a11,11,0,0,1-2.37-4.43h0a.85.85,0,0,1,.26-.93l1.78-1.52a1.32,1.32,0,0,1,.66-.14,12.05,12.05,0,0,1,4.79,2.11c.42.4-4.75,5.31-5.12,4.94Zm-10.15-10.56c-1.57.16-3.35.34-4.71-.3-.59-.27,2.14-7.07,2.59-6.85,1.36.64,2.48,2.2,3.47,3.56h0a.88.88,0,0,1,.11.82l-.87,2.3a.72.72,0,0,1-.59.46h0Zm7.39,10.43c0,.51-7.42-.08-7.38-.59.15-1.48,1.23-3,2.2-4.33h0a.63.63,0,0,1,.52-.26l2.53,0c.35,0,2.27,3.61,2.12,5.11Zm8-13.89c-1,1-4.79,1.78-5,1.53l-1.42-1.78a.68.68,0,0,1-.12-.59h0a10.25,10.25,0,0,1,2-4.25c.34-.42,4.94,4.65,4.52,5.07Zm-8.24.59a10,10,0,0,1,1.82,4.46c0,1.26-2.55,2.25-3.67,2.56-1.12-.28-3.72-1.36-3.73-2.62,0-1.49.9-3,1.71-4.36l.74-.37h2.24l.89.34Zm7.64,6.75a8,8,0,0,1-3.56-1.37h0a.59.59,0,0,1-.27-.66l.41-1.74c0-.18.36-.41.36-.41a11.22,11.22,0,0,1,4-1.19c.46,0-.53,5.38-.94,5.34Z" style="fill:#ff0"/><path d="M413.61,471.09c-.11-.48,7.12-2.09,7.22-1.61.33,1.45-.24,3.21-.74,4.75h0a.8.8,0,0,1-.59.53l-2.43.55a.8.8,0,0,1-.76-.23h0S413.93,472.54,413.61,471.09Zm2.56,13.39a11,11,0,0,1-1.72,4.61c-.32.39-5.41-4.31-5.06-4.75,1-1.19,2.65-1.78,4.15-2.37h0a.55.55,0,0,1,.55.09l1.78,1.46a.94.94,0,0,1,.32.93Zm11.28,1.74a10.83,10.83,0,0,1-3.56-3.44h0a1,1,0,0,1-.11-1l1-2.07c.1-.21.52-.36.52-.36a10.26,10.26,0,0,1,4.83.37c.48.23-2.18,6.69-2.65,6.49ZM413.59,480a9.37,9.37,0,0,1-4.75-.07c-.59-.24,1.78-7.16,2.26-7a11,11,0,0,1,3.64,3.39h0a.88.88,0,0,1,.15.81l-.75,2.34a.72.72,0,0,1-.59.49h0ZM425,489c.06.51-7.26,1.54-7.32,1.05-.18-1.48.55-3.2,1.19-4.71h0a.63.63,0,0,1,.45-.37l2.49-.51C422.13,484.34,424.79,487.48,425,489Zm4.65-12.63c-1.13,1-5.1,1.69-5.29,1.41l-1.39-2a.73.73,0,0,1-.09-.66h0c.59-1.6,1.19-3.41,2.34-4.44.38-.34,4.88,5.27,4.42,5.7Zm-11.44,6.91c-1.12-1.19-2.37-2.54-2.7-4-.27-1.23,1.74-2.91,3.06-3.26s3.92.59,4.19,1.78c.33,1.45-.27,3.06-.78,4.61l-.39.35-3,.59-.45-.12Z" style="fill:#ff0"/><path d="M385.58,469.29c0-.49,8.25.12,8.22.59-.11,1.48-1.27,3-2.29,4.33h0a.91.91,0,0,1-.79.33l-2.77-.2a.91.91,0,0,1-.74-.45h0S385.47,470.78,385.58,469.29Zm-.31,14.58a11.06,11.06,0,0,1-2.65,4.15c-.4.31-4.38-5.34-4-5.69,1.19-.93,3-1.19,4.53-1.44h0a.55.55,0,0,1,.51.2l1.43,1.78a.94.94,0,0,1,.12,1Zm10.39,3.92a11,11,0,0,1-2.77-4.11h0a1,1,0,0,1,.1-1l1.39-1.78c.14-.18.59-.24.59-.24a10.25,10.25,0,0,1,4.65,1.38C400,482.34,396.07,488.1,395.66,487.79Zm-12.3-8.9c-1.62.09-3.46.19-4.75-.59-.53-.33,3.23-7.61,3.67-7.35,1.29.78,2.2,2.54,3,4.09h0a1,1,0,0,1,0,.91L384,478.4a.82.82,0,0,1-.68.47h0Zm9,10.54c0,.51-7.35.77-7.31.27a9.76,9.76,0,0,1,2.17-4.35h0a.63.63,0,0,1,.52-.27h2.53C390.63,485.11,392.51,487.94,392.36,489.43Zm7.27-10.59c-1.32.77-5.34.59-5.47.27l-.91-2.24a.73.73,0,0,1,.05-.66h0c.89-1.45,1.9-3.09,3.22-3.85.44-.26,3.69,6.17,3.14,6.49Zm-13.06,3.31a7.59,7.59,0,0,1-1.4-4c0-1.26,2.56-2.24,3.68-2.55,1.12.29,3.71,1.38,3.72,2.63a5.71,5.71,0,0,1-1,3.56L390.36,483l-3-.17-.43-.18Z" style="fill:#ff0"/><path d="M351.83,471c-.15-.47,6.87-2.8,7-2.33.47,1.41.08,3.22-.26,4.81h0a.8.8,0,0,1-.52.59l-2.37.79a.8.8,0,0,1-.78-.15h0S352.3,472.43,351.83,471Zm2,13.5a11.35,11.35,0,0,1-2.68,4.15c-.4.31-4.34-5.38-3.9-5.71a9.76,9.76,0,0,1,4.55-1.41h0a.55.55,0,0,1,.51.2l1.42,1.78a.94.94,0,0,1,.11,1Zm10.55,5.24a11,11,0,0,1-2.74-4.15h0a1,1,0,0,1,.11-1l1.4-1.78c.14-.18.59-.24.59-.24A10.36,10.36,0,0,1,368.4,484c.42.33-3.56,6.06-4,5.75ZM352,479.55c-1.57.16-3.35.34-4.71-.3-.59-.27,2.14-7.07,2.59-6.85,1.36.64,2.48,2.2,3.47,3.56h0a.88.88,0,0,1,.11.82l-.88,2.3a.72.72,0,0,1-.59.46h0Zm9.13,10.55c0,.51-7.42-.08-7.38-.59.15-1.48,1.23-3,2.2-4.33h0a.63.63,0,0,1,.52-.26l2.53,0c.37,0,2.29,3.66,2.14,5.14Zm8.44-8.84c-1.38.65-5.53.55-5.63.23l-.75-2.31a.73.73,0,0,1,.11-.66h0a43.78,43.78,0,0,1,3.56-3.56C367.3,474.73,370.14,481,369.57,481.26Zm-9.3-4.15c.75,1.45,1.59,3.09,1.5,4.58-.07,1.26-3,1-4.1,1.19-3.35-.51-3.6-.55-3.28-1.78a13.48,13.48,0,0,1,2-4.23l2.05-1.28,1.78,1.5Zm6.4-3.51a10.3,10.3,0,0,1-4.28,2h0a.85.85,0,0,1-.88-.27l-1.41-1.66A1.15,1.15,0,0,1,360,473a10.44,10.44,0,0,1,2.12-4.24c.37-.39,4.94,4.45,4.58,4.79Z" style="fill:#ff0"/><path id="Sun" d="M416.13,357.67c0,23.14-19.13,41.87-42.73,41.87s-42.73-18.75-42.73-41.87,19.13-41.87,42.73-41.87,42.73,18.75,42.73,41.87" style="fill:#fff"/><path id="Eagle" d="M334.35,462.09l1.32-38.3,7,5.56-.38,32.79Zm20.51-28,8.05,1-.31,27.06-7.9-.06Zm15.77-17.8h5.29l.59,15.89c0,.31-.17.59-.39.59H370.4c-.22,0-.4-.26-.39-.59Zm-9.26,15.86L364,415.64l5,.33-1.28,16.5Zm-35.17-7.5,3.25-7.67,4.75,5.67-.3,5.89Zm26.4,6.17,4.42-16,5.28.84-3.56,16.17Zm-33.46-9.43,4.31-9.5,5.13,4.15-3.65,8.09Zm17.73.44L343,409.9l5.06,2.37-5.69,14Zm-25.25-2.13,5.18-12.72,5.54,3.95-4.45,10.33Zm-142.36-2.3,25.82-26.27,12.37,1.73-17.71,23.68Zm40.32-24.15,13.54.64-15.43,22.39-15.78.38Zm.52,23,15.51-22.35h13.22l-15,21.92Zm82.31,1.29,8.69-17.8L307.4,402l-7,15.56Zm-65.87-1.69L241,394.2l11.76.34-13.26,21.2Zm64.53-18.24,8.13,1.44-8.86,18.32-9.77-.42ZM330.42,415l5.45-9.77,5.34,3.88-5.73,11.5Zm-6.63-5.74,6-9.65,4.79,4.15-5.29,9.57Zm40.39,4.35,2.23-11,3.93.3L369,414Zm7.51-10.44,3.73-.17.84,11.23-5.58-.11ZM351.05,411l4.84-11.36,3.78,1.38-4.12,11.28Zm-33.61-6.44,6.78-9.5,4.09,3.15-5.83,9.92Zm20.68-.48,6.47-10.87,4.46,3.09-5.86,11.28Zm-28.49-3.36,7.54-10.33,5.31,3.56-6.59,9.68Zm16.08-7,8.81-10.86,3.15,4.49-6.73,10.68Zm-34.42,1.36,8.64-11.79,7.71,2.11-8.07,11.12Zm-12.79-1.92-10.42-.28,9.8-12.77,9.74.86Zm40.95-4.35,11-12.8,3.12,5-9.33,11.17Zm-92.06,2.86,14.84-15.34,10.49.75-14,14.55ZM85.54,401.46,76.39,388l58.82-23,9.19,8Zm110.65-12.77,19.47-15.5,10.17,1.23-17.21,16.07Zm114.54-4.78,16.94-15.21,1.91,5.61-11.48,13.36Zm-132.81,1,24-14.45,11.17,1.94-19.49,15.77Zm123.24-3.85,15.14-15,9.05,2.37L308.87,383.1Zm-137.09-.78,24.81-13.22,10.3,2.62-23.85,14.42Zm124.59-1.15L304.36,363l9.53,2.53-15.09,15ZM72.58,371.86l53.48-16,7.12,7.71L75.93,386.07Zm202.87,5.61,18.24-16.75,8.56,1.55-15.83,16.26Zm-13.56-1.41,18.9-17.43,10.24,1.5L272.55,377Zm-13.06-1.58,19.92-17.71,9.41,1.3-18.88,17.31Zm-15.52-1.33,23.23-18.08,9,1.19-19.43,18Zm-95.86-8.63,25.79-7.24,8.76,4.5-24.81,10.28Zm82.9,7.3L244.09,354l9.2.79-22.95,18Zm-27.68-6.05,27.07-13.7,8.6.68L203.6,368.22ZM69.82,354.17l49.63-8.31,5.53,8.68L72.16,369.66Zm59.08,2.28L155,350.51l7,5.34-26.43,6.9Zm51.63,6,24.55-11.64,11.09.9-26.46,13.13Zm-11.6-4.69,26.39-9.27,7.43,1.67-24.51,11.62Zm-47.36-12,28.49-2.46,3.8,5.55-26.36,5.3Zm-45.1-8.54,40.65-1.35,1.64,8.43-48.9,8.07s-.35-7.86-.35-9.44,4.45-5.63,7-5.7M182,340.41l3.45,3.8-28.49,5-5-6.13ZM119,336l26.81-.71,2.63,6.22-27.74,2.27Zm31.73,5.18-3.09-6.2,32.4-.67,1.32,4.44ZM365.09,435l7.12.21v26.93h-7.47ZM345,430.84l7.71,2.78-.48,28.49h-7.61Zm-102.83-79c4.35.28,0,0,4.75.37,1.6.12,8.87,1,11.28,1.19,7.64.79,13.12,1.6,18.06,2.37,8.21,1.31,14.17,2.09,16.8,2.61,11.15,2.15,8.31,1.53,11.15,2.15,7.05,1.54,11.45,3,11.45,3,7.34,2.15,10,3.1,12.12,3.65a21.1,21.1,0,0,1-.28-2.77l-.07-3.32v-1.29c0-2.81,0-2.67.16-5.53,0,.08-.12,2.59.11-1a75.75,75.75,0,0,1,1.5-8.81,37.45,37.45,0,0,0-3.74-1.92c-3.65-1.53-5.83-2.3-5.83-2.3-8.65-2.63-11.57-3.15-11.57-3.15-4.15-.9-9.26-1.95-13.48-2.66-7.26-1.24-17.55-2.33-19.49-2.42-15.7-.74-15.71-.59-21.86-.82-10.31-.34-10.31-.34-17.72-.16-3.91.1-12.14.34-18.91.54,0,0-11.37.59-14.45.65A101.26,101.26,0,0,0,189,333.29c-7.25,1-7.09,1-7.09,1a15.46,15.46,0,0,0,3.63,7.34A22.19,22.19,0,0,0,196.92,347c10.13,2.2,10.62,2.09,17.12,2.55,3.7.26,7.51.74,9.12.87,3.84.3,14,1,14,1m43.06,44.48,8.53,1-10.15,19.68-10.81-.26Zm1-2.37L290,381.66l7.66.93L289,394.46Zm-25.77,22,12.46-20.07,10,.34-11.66,20.07Zm-13.83.11,13.94-21.12,10.2.4-12.82,20.71ZM211.31,391l16.9-16,11,1.22-14.84,15.43Zm44.42,1.51L267.44,379l7.88.75-10,13Zm-13.79-.68,13.49-14,9,.91-12,13.54Zm115.55,20.89L361,401.56l3.82.8-2.37,11.08Zm-215.19,7-35.61-.34,55.19-37.11,12,4.15Zm159.8-1.53L309,402.68l6.63,3.09L310,419.3Zm-.77-20.77,8.19-11.28,6.23,3.19-7.89,10.38Zm-152.21-24L174,362.82l12.18,3.48-24.33,13.26Zm57.2-4.08,25.86-16.41,9.21.59L217.66,371ZM344.6,408.53l5.67-11.45,4.21,1.95-5,11.59Zm-.34,19.29,5.69-15.15,5.1,1.67-4.56,16Zm-199.1-8.1,30.77-32.56,16.5,3.37-25.82,27Zm14.91-38.4-55.27,37.1-17.89-15.2,59-28.91Zm172.35,17.8,6.42-10.55,4.3,3.9L337,403Zm-173.1-48.07L187,345.61l5.23,2.12L167,356.64Z" style="fill:#ff0"/><path id="Eagle-2" d="M404.45,462.13l-.38-32.79,7-5.56,1.32,38.3ZM392,462.07l-7.9.06-.31-27.06,8.05-1Zm-15.33-29.94c0,.31-.17.59-.39.59H370.6c-.22,0-.4-.26-.39-.59l.59-15.89h5.29Zm2.37.34L377.8,416l5-.33,2.59,16.46Zm33.73-4-.3-5.89,4.75-5.67,3.28,7.66Zm-24.87,3.31-3.56-16.17,5.28-.84,4.47,16Zm33.83-7.71L418.12,416l5.13-4.15,4.31,9.5Zm-17.48,2.18-5.69-14,5.06-2.37,6.17,11.87Zm24.54-5.06-4.43-10.35,5.53-3.95,5.16,12.72ZM557,416.47,539.25,392.8l12.37-1.73,25.82,26.27Zm-2.15.12L539,416.21,523.6,393.82l13.56-.63Zm-31.89-.79-15-21.92h13.24l15.52,22.36Zm-76.56,1.74-7-15.53,6.32-2.24,8.69,17.8Zm60.79-1.78L493.9,394.54l11.81-.34,14.55,21.66Zm-41,1.19-9.77.41L447.55,399l8.18-1.43Zm-54.93,3.7-5.73-11.5,5.34-3.88,5.45,9.77Zm6.23-7.29-5.25-9.5,4.79-4.15,6,9.65Zm-39.73.59-1.32-11,3.93-.3,2.27,11Zm-1.61.23-5.58.11.84-11.23,3.73.17Zm15.07-1.82-4.12-11.28,3.78-1.38,4.84,11.36Zm33.09-4.15-5.83-9.92,4.09-3.15,6.78,9.5Zm-20.72-.5-5.86-11.28,4.46-3.09,6.47,10.87Zm27.3-3.94-6.59-9.68,5.34-3.56,7.54,10.33Zm-15-5.68-6.73-10.68,3.15-4.49L421,393.78Zm31.34-1.48-8.07-11.13,7.71-2.11,8.64,11.79Zm12-15.54,9.73-.94,9.8,12.72-10.42.28Zm-36.63,11.19L413.13,381l3.12-5,11,12.8Zm85.59-.56L494,377.1l10.5-.75,14.84,15.34ZM602.35,373l9.19-8,58.82,23-9.17,13.48ZM538.08,390.5l-17.21-16.07L531,373.19l19.47,15.5Zm-109.44-2.83-11.52-13.36L419,368.7l17,15.21Zm124.47.51L533.6,372.42l11.14-1.93,24,14.45ZM437.86,383.1l-16.49-14.62,9.05-2.37,15.14,15Zm133.53,1L547.53,369.7l10.33-2.63,24.8,13.2ZM447.9,380.48l-15.07-15,9.53-2.53,15.7,16.17Zm222.91,5.58-57.27-22.5,7.12-7.71,53.48,16Zm-210.49-7.52-15.83-16.26,8.56-1.55,18.24,16.75ZM474.16,377l-18.5-16.91,10.24-1.5,18.93,17.43Zm13.29-1.66L468.54,358.1l9.41-1.3,19.92,17.69Zm13.15-1.09-19.43-18,9-1.19,23.25,18.06Zm99-2.21-24.81-10.28,8.76-4.5,25.79,7.24Zm-83.14.72-23-18,9.2-.77,23.74,17.85Zm26.71-4.56-24.74-15.47,8.6-.68L554,365.79Zm131.47,1.47-52.82-15.12,5.53-8.68,49.63,8.31Zm-63.5-6.91-26.46-6.9,7-5.34,26.11,5.93ZM557,364.87l-26.46-13.13,11.09-.9,24.55,11.64Zm11.49-3.07L544,350.18l7.44-1.69,26.38,9.28Zm50.75-7.59-26.36-5.3,3.8-5.55,28.49,2.46Zm51-16.94c2.54.07,7,4.1,7,5.7s-.38,9.44-.38,9.44l-48.9-8.07,1.64-8.43,40.65,1.35m-75.5,5.85-5,6.13-28.49-5,3.45-3.8Zm31.29.72-27.73-2.27,2.65-6.21,26.81.71Zm-60.65-5,1.32-4.44,32.39.69L596,341.25ZM382,462.12h-7.48V435.2l7.12-.21Zm20.14,0h-7.65L394,433.64l7.71-2.78ZM509.54,351.45s10.14-.66,14-1c1.61-.12,5.43-.59,9.12-.87,6.53-.46,7-.35,17.12-2.55,3.08-.67,7.5-1.72,11.36-5.39a15.43,15.43,0,0,0,3.63-7.34s.16,0-7.09-1a101.26,101.26,0,0,0-13.13-1.12c-3.08-.06-14.45-.65-14.45-.65-6.77-.2-15-.45-18.91-.54-7.41-.18-7.41-.18-17.72.16-6.15.21-6.16.08-21.86.82-1.93.09-12.23,1.19-19.49,2.42-4.22.72-9.3,1.78-13.48,2.66,0,0-2.92.52-11.57,3.15,0,0-2.18.78-5.83,2.3a37.45,37.45,0,0,0-3.74,1.92,82.44,82.44,0,0,1,1.5,8.81c.24,3.56.12,1.07.11,1,.14,2.86.11,2.72.16,5.53V361l-.07,3.32a21.1,21.1,0,0,1-.28,2.77c2.13-.55,4.75-1.5,12.12-3.65,0,0,4.4-1.46,11.45-3,2.83-.59,0,0,11.15-2.15,2.63-.51,8.59-1.3,16.8-2.61,4.94-.78,10.42-1.6,18.06-2.37,2.43-.25,9.7-1.09,11.28-1.19,4.75-.37.42-.09,4.75-.37m-25.58,64.56-10.81.26L458,396.92l8.56-1Zm-21.2-21.9L449,382.57l7.66-.93,8.86,11.87Zm22.79,21.45-11.66-20.07,10-.34,12.46,20.07Zm13.32-.21L481,395l10.2-.4,13.92,21.13Zm28.49-24.09-14.84-15.43,11-1.22,16.9,16Zm-40.91,1.19-10-13,7.88-.75L491,392.5Zm12.83-.59-12-13.51,9-.92,13.48,14.05Zm-110,21.25-2.37-11.08,3.82-.8,3.52,11.12Zm188.55-27.07,12-4.15L640,419.32l-35.61.32ZM436.72,419.3l-5.66-13.54,6.63-3.09,6.93,15.43Zm2.15-19.69L431,389.23l6.23-3.16,8.19,11.28Zm146-20.07-24.33-13.26,12.2-3.46,24.83,10.51ZM529,371l-23.74-17.57,9.21-.59,25.86,16.39ZM397.24,410.62l-5-11.59,4.21-1.95,5.67,11.45Zm-1,19.67-4.56-16,5.1-1.67,5.66,15.15Zm183.88-12.77-25.82-27,16.5-3.37,30.77,32.56Zm6.53-36.2h0l14.15-7,59,28.91-17.89,15.2ZM409.7,403l-6.13-10.49,4.3-3.9,6.44,10.54Zm170-46.33-25.24-8.9,5.23-2.12,27.7,5.44Z" style="fill:#ff0"/></g></svg>