<?xml version="1.0" encoding="utf-8"?>
<!-- Generator: Adobe Illustrator 21.0.0, SVG Export Plug-In . SVG Version: 6.00 Build 0)  -->
<svg version="1.1" id="bb8a6def-7b5f-4977-9cdb-6ed5386a2dfe"
	 xmlns="http://www.w3.org/2000/svg" xmlns:xlink="http://www.w3.org/1999/xlink" x="0px" y="0px" viewBox="0 0 1050.9 704.4"
	 style="enable-background:new 0 0 1050.9 704.4;" xml:space="preserve">
<style type="text/css">
	.st0{fill:#EDEDED;}
	.st1{fill:#2F2E41;}
	.st2{fill:#E6E6E6;}
	.st3{fill:#FFFFFF;}
	.st4{fill:#FF000D;}
	.st5{fill:#FFC999;}
	.st6{fill:#FF0005;}
	.st7{fill:#FFF800;}
	.st8{fill:#3F3D56;}
	.st9{fill:#FFFF00;}
	.st10{fill:none;stroke:#FFFF00;stroke-miterlimit:10;}
</style>
<path class="st0" d="M1050.9,374.4c0,142.5-90.3,263.9-216.8,310c-19.2,7-39.1,12.3-59.3,15.6c-55.6,9.1-112.7,3.9-165.7-15.1
	c-127.3-45.8-218.2-167.6-218.2-310.6c0-182.2,147.8-329.9,330-329.9c68.9-0.1,136,21.4,192,61.6
	C996.4,165.8,1050.9,263.7,1050.9,374.4z"/>
<path class="st1" d="M834.1,684.4c-19.2,7-39.1,12.3-59.3,15.6c-55.6,9.1-112.7,3.9-165.7-15l15.2-61.2l0.9-3.7l31.1,0.1l156.2,0.6
	l2,5.9L834.1,684.4z"/>
<rect id="effaf695-3865-40c6-8918-ced0238239c2" class="st2" width="286.7" height="324.4"/>
<rect id="f33d627f-c769-4bde-9d74-ef156faf640e" x="5.1" y="6.9" class="st3" width="275.9" height="310.6"/>
<circle id="b5fd4af9-5b07-4da2-8ccf-5b3d4ac887f6" class="st2" cx="143.3" cy="291" r="15.5"/>
<rect id="f05405a0-af73-4807-bbd1-d761cdd06c65" x="51.9" y="116.8" class="st2" width="88.8" height="9.1"/>
<rect id="a05e4a04-50b7-46b0-b842-8db21044ae7a" x="51.9" y="144.1" class="st4" width="134.1" height="9.1"/>
<rect id="bdce3bac-3998-4a72-bc14-4aa79023038d" x="51.9" y="171.5" class="st2" width="120.9" height="9.1"/>
<rect id="e1177af0-2f80-4461-b67e-43945f3b6fee" x="51.9" y="198.1" class="st4" width="186.7" height="9.1"/>
<rect id="b290cdc3-2096-427b-bfd4-6b657da823ea" x="53.8" y="223.5" class="st2" width="152.2" height="9.1"/>
<rect x="694.2" y="279.9" class="st5" width="73" height="41.9"/>
<g id="b96c6486-fa38-4cba-8e5e-13dca7f44a0c">
	<path id="b0fbfc35-67c9-42b4-b2fe-33d0d7288754" class="st5" d="M407.6,527.8c1.1,1.1,2.1,2.3,3,3.6l140.1-3.4l16.3-29.9l48.3,18.8
		l-23.8,55.7c-3.9,9.2-13.5,14.8-23.5,13.6L409.8,567c-10.2,12.9-28.8,15-41.7,4.9c-12.9-10.2-15-28.8-4.9-41.7
		c10.2-12.9,28.8-15,41.7-4.9C405.8,526.1,406.7,526.9,407.6,527.8L407.6,527.8z"/>
	<path id="a6a8f1c9-3ab8-4f6f-ba9b-45acc2f7af89" class="st6" d="M596.2,357.2l65.6-21.5l27.4-21.4l12.1,7.4h49.1l24.3-6.8
		l13.8,30.8l50,23.6l-7.7,142.6l-13.1,133.5c-67.6-35-193.6-8.3-194.7-7.9L596.2,357.2z"/>
	<path id="fc06e97d-785e-4845-9aa0-60a5889f9ce3" class="st6" d="M610.2,550.3l-66.7-26.7l0.3-1.2c0.3-1.2,28.7-119.8,32.4-138.9
		c3.9-19.9,18.3-25.4,18.9-25.6l0.4-0.2l26.4,8l11.6,91.1L610.2,550.3z"/>
	<path id="b248559b-61d8-49e2-8eef-81cc9521c19e" class="st5" d="M754.2,639.6c1.6,0,3.1,0,4.7,0.3l92.7-105.1l-10.8-32.3l46.6-22.7
		l24.7,55.3c4.1,9.2,1.6,20-6,26.5l-121.7,103c2.5,16.2-8.6,31.4-24.7,33.9c-16.2,2.5-31.4-8.6-33.9-24.7
		c-2.5-16.2,8.6-31.4,24.7-33.9C751.8,639.7,753,639.6,754.2,639.6L754.2,639.6z"/>
	<path id="b0e9bc84-32e8-4599-bd8d-d35670d3692b" class="st6" d="M844.2,545l-38.7-91l15.1-63.4l16.3-20.5c2.4-1,5.1-1,7.5,0.1
		c6,2.4,11.1,9.8,15.2,22l36.3,103.3L844.2,545z"/>
	<path id="b58b0f1b-b11b-4f57-8de2-a939101b4938" d="M643.5,275.6V207c-0.2-50.8,40.9-92.1,91.6-92.2c50.8-0.2,92.1,40.9,92.2,91.6
		l0,0c0,0.2,0,0.4,0,0.6v68.6c0,6.8-5.5,12.3-12.3,12.4H655.9C649,288,643.5,282.4,643.5,275.6z"/>
	<path id="ba54abe3-4119-45e5-b5c1-150877d750f7" class="st5" d="M717.3,160.7c37.2,0,67.4,30.2,67.4,67.4s-34.4,50.2-67.4,67.4
		c-42.3,22-64.3-29-67.4-67.4C647,191.4,680.1,160.7,717.3,160.7z"/>
	<path id="b6bcc4bf-1738-426f-8fbf-3ee273a728b5" d="M633.5,212.5c0-40.1,30.2-72.7,67.3-72.7h12.7c37.2,0,67.3,32.6,67.3,72.7v1.4
		h-26.9l-9.2-27.7l-1.8,27.7H729l-4.6-14l-0.9,14h-90.1L633.5,212.5L633.5,212.5z"/>
	<path id="be96ad09-85ff-4345-abef-5a49918f7c18" d="M709.9,295.7c-2.8-3.8-3.2-8.8-1-12.9c14.5-27.7,34.9-78.8,7.9-110.3l-1.9-2.3
		h78.5V288l-71.3,12.6c-0.7,0.1-1.5,0.2-2.2,0.2C715.9,300.8,712.2,298.9,709.9,295.7L709.9,295.7z"/>
</g>
<circle class="st7" cx="143.1" cy="58.2" r="32.9"/>
<g id="b2dad932-78e1-44e1-9682-073c8202f887">
	<path id="e043db59-b600-449e-8c52-e1eb73379667" class="st6" d="M143.1,25.3c-18.2,0-32.9,14.7-32.9,32.9s14.7,32.9,32.9,32.9
		S176,76.4,176,58.2l0,0C176,40,161.2,25.3,143.1,25.3L143.1,25.3L143.1,25.3z M143.1,35.1c5.4,0,9.9,4.4,9.9,9.9s-4.4,9.9-9.9,9.9
		c-5.4,0-9.9-4.4-9.9-9.9l0,0C133.2,39.5,137.6,35.1,143.1,35.1z M143.1,82.6c-7.9,0-15.3-4-19.7-10.5c0.2-6.6,13.2-10.2,19.7-10.2
		s19.6,3.6,19.7,10.2C158.4,78.6,151,82.6,143.1,82.6L143.1,82.6z"/>
</g>
<path id="bcfa45dc-2c5a-4ac5-8376-9a2a23e225d0" class="st8" d="M143.5,296.9c13.5-24.8,46-40.6,72.6-26.4c12,6.4,21.5,17.7,24.5,31
	c3.5,15.5-3.9,30.3-11.5,43.3c-4.1,7.1-8.7,14-12.1,21.4c-3.5,7.7-6.1,16.6-3.4,25c2.4,7.6,8.4,13.1,15,17.1
	c7.3,4.3,15,7.7,23.1,10.3c16.6,5.5,34.1,7.8,51.5,6.7c8.7-0.6,17.3-2,25.7-4.1c8.9-2.3,17.7-5.2,26.7-7.4c15-3.7,32-5.6,46.2,1.9
	c13.8,7.3,19.9,22.4,21.9,37.2c3.5,27.2-7.3,55.5-26.8,74.6c-9.4,9.2-21.1,16.7-34,19.8c-11.2,2.7-25.6,2.5-34.5-5.8
	c-9.9-9.3-7.6-24.3,0.3-34.2c10.1-12.6,27.1-15.6,42.4-15.9c17.3-0.3,34.6,2.2,52,0.6c8.5-0.7,16.7-2.7,24.6-5.9
	c6.9-3,13.1-7.3,18.5-12.5c10.7-10.4,17.9-24.2,21.5-38.6c4.3-17.3,3.4-35.5,0-52.9c-1.8-9-4.1-17.8-6.9-26.5
	c-1.2-3.7-7-2.1-5.8,1.6c10.3,32.7,16.1,70.6-3.9,100.9c-8.3,12.9-21.1,22.1-35.9,25.9c-17.3,4.3-35.4,2.2-52.9,1.5
	c-16.7-0.6-35,0-49.3,9.8c-11.7,8-19.9,23.1-16.4,37.4c3.4,13.8,16.7,20.8,29.9,21.9c13.9,1.1,27.6-3.5,39.3-10.8
	c24.3-15.2,40.5-41.9,43.9-70.2c1.8-14.8,0-30.7-6.7-44.1c-3.5-7.3-9-13.4-15.8-17.7c-6.8-4.2-14.7-6.2-22.6-7
	c-17.9-1.7-35.2,4.5-52.2,9.2c-8.7,2.5-17.6,4.2-26.6,5.1c-8.8,0.7-17.6,0.6-26.3-0.4c-8.7-1-17.2-2.9-25.5-5.6
	c-8.1-2.5-15.9-6-23.1-10.4c-6.4-4.1-11.9-9.9-12.2-17.9c-0.3-8.6,4-16.7,8.2-24c8.2-14.4,18.3-28.5,20.4-45.3
	c1.9-14.7-4.1-29.3-14.3-39.8c-10.4-10.8-24.8-16.8-39.7-16.5c-15.2,0.4-29.7,7-40.9,17.2c-5.5,5-10.2,11-13.8,17.5
	C136.4,297.3,141.6,300.3,143.5,296.9L143.5,296.9z"/>
<g>
	<title>syriac_aramean_tell_halaf_flag</title>
	<g id="Lager_2_1_">
		<path id="Border_1_" class="st9" d="M690,454.1l36.3,2.9l-0.8,10.1l-36.3-2.9L690,454.1z M725,458.2l-33.8-2.8l-0.6,7.6l33.8,2.8
			L725,458.2z"/>
		<line class="st10" x1="716.9" y1="457.1" x2="716.2" y2="465.7"/>
		<line class="st10" x1="708.1" y1="456.4" x2="707.4" y2="464.7"/>
		<line class="st10" x1="699.4" y1="455.7" x2="698.7" y2="464"/>
		<path class="st9" d="M693.8,456.6c0-0.1,2.1,0,2.1,0.2c0,0.4-0.3,0.9-0.6,1.2l0,0c0,0.1-0.1,0.1-0.2,0.1l-0.7-0.1
			c-0.1,0-0.2-0.1-0.2-0.1l0,0C694.2,457.9,693.7,457,693.8,456.6z M693.4,460.4c-0.2,0.3-0.5,0.7-0.8,0.9c-0.1,0.1-1-1.4-0.9-1.4
			c0.3-0.2,0.8-0.2,1.2-0.2l0,0c0.1,0,0.1,0,0.1,0.1l0.3,0.5C693.5,460.2,693.5,460.3,693.4,460.4L693.4,460.4z M695.8,462.5
			c-0.3-0.3-0.5-0.9-0.6-1.3l0,0c0-0.1,0-0.2,0.1-0.3l0.5-0.4c0.1,0,0.1,0,0.2,0c0.5,0.2,1,0.4,1.3,0.7
			C697.5,461.3,695.9,462.6,695.8,462.5L695.8,462.5z M693.2,459.2c-0.5,0-1,0-1.3-0.2c-0.2-0.1,0.8-2,0.9-1.9
			c0.4,0.2,0.7,0.7,0.9,1.1l0,0c0,0.1,0,0.2,0,0.2l-0.3,0.6C693.4,459.2,693.3,459.2,693.2,459.2L693.2,459.2L693.2,459.2z
			 M695.1,462.4c0,0.1-2.1-0.2-2.1-0.3c0.1-0.4,0.4-0.8,0.7-1.2l0,0c0,0,0.1-0.1,0.2-0.1l0.7,0.1
			C694.7,460.9,695.1,461.9,695.1,462.4L695.1,462.4z M697.7,458.6c-0.3,0.3-1.4,0.4-1.5,0.3l-0.4-0.5c0-0.1,0-0.1,0-0.2l0,0
			c0.2-0.4,0.4-0.9,0.7-1.2C696.6,456.9,697.8,458.5,697.7,458.6L697.7,458.6z M695.3,458.6c0.2,0.4,0.4,0.9,0.4,1.3
			s-0.8,0.6-1.1,0.6c-0.3-0.1-1-0.5-1-0.8c0-0.4,0.3-0.8,0.6-1.2l0.2-0.1l0.6,0.1L695.3,458.6L695.3,458.6z M697.3,460.7
			c-0.4,0-0.7-0.3-1-0.5l0,0c-0.1,0-0.1-0.1-0.1-0.2l0.2-0.5l0.1-0.1c0.4-0.1,0.8-0.3,1.2-0.2C697.8,459.2,697.4,460.7,697.3,460.7
			L697.3,460.7z"/>
		<path class="st9" d="M719.4,459c0-0.1,2.1-0.4,2.1-0.3c0.1,0.4-0.1,0.9-0.3,1.3l0,0c0,0.1-0.1,0.1-0.2,0.1l-0.7,0.1
			c-0.1,0-0.2,0-0.2-0.1l0,0C720.1,460.2,719.5,459.4,719.4,459z M719.8,462.9c-0.1,0.5-0.3,1-0.6,1.3c-0.1,0.1-1.4-1.3-1.3-1.5
			c0.3-0.3,0.8-0.4,1.2-0.6l0,0c0.1,0,0.1,0,0.2,0l0.5,0.5C719.8,462.7,719.9,462.8,719.8,462.9L719.8,462.9z M723,463.6
			c-0.4-0.2-0.7-0.7-0.9-1.1l0,0c-0.1-0.1-0.1-0.2,0-0.3l0.3-0.6c0-0.1,0.2-0.1,0.2-0.1c0.5,0,1,0,1.4,0.2
			C724,461.9,723.1,463.7,723,463.6L723,463.6z M719.2,461.6c-0.4,0-1,0.1-1.3-0.1c-0.2-0.1,0.7-2,0.8-1.9c0.4,0.2,0.7,0.6,1,1l0,0
			c0,0.1,0.1,0.2,0,0.2l-0.3,0.6C719.3,461.5,719.3,461.6,719.2,461.6L719.2,461.6L719.2,461.6z M722.2,464.4c0,0.1-2.1,0.3-2.1,0.1
			c0-0.4,0.2-0.9,0.4-1.3l0,0c0-0.1,0.1-0.1,0.1-0.1l0.7-0.1C721.5,463,722.2,463.9,722.2,464.4z M723.9,460.9
			c-0.3,0.3-1.5,0.4-1.5,0.3l-0.3-0.6c0-0.1,0-0.1,0-0.2l0,0c0.2-0.4,0.4-0.9,0.8-1.2C722.8,459.1,724,460.8,723.9,460.9
			L723.9,460.9z M720.4,462.6c-0.3-0.4-0.6-0.8-0.7-1.2c0-0.4,0.6-0.8,0.9-0.9c0.3,0,1.1,0.3,1.2,0.6c0.1,0.4-0.1,0.9-0.3,1.3
			l-0.1,0.1l-0.9,0.1H720.4L720.4,462.6z"/>
		<path class="st9" d="M711.5,457.9c0-0.1,2.3,0.2,2.3,0.4c-0.1,0.4-0.4,0.8-0.8,1.2l0,0c-0.1,0.1-0.1,0.1-0.2,0.1l-0.8-0.1
			c-0.1,0-0.2-0.1-0.2-0.1l0,0C711.8,459.2,711.4,458.3,711.5,457.9z M711.1,462c-0.2,0.4-0.5,0.9-0.8,1.1c-0.1,0.1-1.1-1.6-1-1.7
			c0.4-0.2,0.9-0.3,1.3-0.3l0,0c0.1,0,0.1,0,0.1,0.1l0.4,0.5C711.1,461.8,711.1,461.9,711.1,462L711.1,462z M713.9,463.4
			c-0.3-0.3-0.5-0.8-0.7-1.2l0,0c0-0.1,0-0.2,0.1-0.3l0.4-0.5l0.2-0.1c0.4,0.1,1,0.2,1.3,0.5C715.3,461.9,714,463.5,713.9,463.4z
			 M710.6,460.5c-0.5,0-1,0-1.3-0.3c-0.1-0.1,1.1-2.1,1.2-2c0.3,0.3,0.6,0.8,0.8,1.2l0,0c0,0.1,0,0.2,0,0.3l-0.4,0.7
			C710.8,460.5,710.7,460.5,710.6,460.5L710.6,460.5L710.6,460.5z M712.9,463.8c0,0.1-2.1,0-2.1-0.1c0.1-0.4,0.4-0.8,0.7-1.2l0,0
			c0,0,0.1-0.1,0.2-0.1l0.7,0.1C712.5,462.5,713,463.3,712.9,463.8z M715.3,460.9c-0.4,0.2-1.5,0-1.6,0l-0.2-0.7c0-0.1,0-0.1,0-0.2
			l0,0c0.3-0.4,0.6-0.8,1-1C714.6,458.9,715.4,460.8,715.3,460.9L715.3,460.9z M711.5,461.5c-0.2-0.4-0.3-0.8-0.3-1.2
			c0-0.4,0.8-0.6,1.1-0.6c0.3,0.1,1,0.5,1,0.8c0,0.4-0.1,0.7-0.4,1l-0.4,0.3l-0.8-0.1L711.5,461.5L711.5,461.5z"/>
		<path class="st9" d="M701.8,457.6c0-0.1,2-0.6,2.1-0.5c0.1,0.4-0.1,0.9-0.2,1.4l0,0c0,0.1-0.1,0.1-0.2,0.2l-0.7,0.2
			c-0.1,0-0.2,0-0.2-0.1l0,0C702.6,458.7,701.9,458,701.8,457.6z M702.1,461.5c-0.2,0.4-0.5,0.9-0.9,1.1c-0.1,0.1-1.1-1.6-1-1.7
			c0.4-0.2,0.9-0.3,1.3-0.3l0,0c0.1,0,0.1,0,0.1,0.1l0.4,0.5C702.1,461.3,702.1,461.4,702.1,461.5L702.1,461.5z M705,463.2
			c-0.3-0.3-0.5-0.8-0.7-1.2l0,0c0-0.1,0-0.2,0.1-0.3l0.4-0.5l0.2-0.1c0.4,0.1,1,0.2,1.3,0.5C706.4,461.8,705.1,463.3,705,463.2
			L705,463.2z M701.7,460c-0.5,0-1,0-1.3-0.2c-0.2-0.1,0.8-2,0.9-1.9c0.4,0.2,0.7,0.7,0.9,1.1l0,0c0,0.1,0,0.2,0,0.2l-0.3,0.6
			C701.8,460,701.8,460,701.7,460L701.7,460L701.7,460z M704,463.2c0,0.1-2.1-0.2-2.1-0.3c0.1-0.4,0.4-0.8,0.7-1.2l0,0
			c0,0,0.1-0.1,0.2-0.1l0.7,0.1C703.7,461.7,704.1,462.8,704,463.2L704,463.2z M706.6,460.9c-0.4,0.2-1.6,0-1.6-0.1l-0.2-0.7
			c0-0.1,0-0.1,0-0.2l0,0c0.3-0.4,0.8-0.6,1.1-0.9C706.1,459,706.8,460.8,706.6,460.9z M704.1,459.5c0.2,0.4,0.4,0.9,0.3,1.3
			c0,0.4-0.9,0.2-1.2,0.2c-0.9-0.2-1-0.2-0.9-0.6c0.2-0.4,0.4-0.8,0.7-1.2l0.6-0.3L704.1,459.5L704.1,459.5z M706,458.7
			c-0.3,0.3-0.8,0.4-1.3,0.5l0,0c-0.1,0-0.2,0-0.2-0.1l-0.4-0.5c0-0.1,0-0.1,0-0.2c0.2-0.4,0.4-0.9,0.7-1.2
			C704.9,457.1,706.1,458.6,706,458.7L706,458.7z"/>
		<path id="Sun_1_" class="st3" d="M722.7,426.8c-0.5,6.6-6.4,11.5-13.1,10.9c-6.7-0.5-11.7-6.3-11.2-12.9s6.4-11.5,13.1-10.9
			S723.3,420.2,722.7,426.8"/>
		<path id="Eagle_1_" class="st9" d="M697.1,454.6l1.3-10.9l1.9,1.7l-0.9,9.3L697.1,454.6z M703.5,447.1l2.3,0.5l-0.7,7.7l-2.2-0.2
			L703.5,447.1z M708.4,442.4l1.5,0.1l-0.2,4.5c0,0.1-0.1,0.2-0.1,0.2l-1.6-0.1c-0.1,0-0.1-0.1-0.1-0.2L708.4,442.4z M705.4,446.7
			l1.1-4.6l1.4,0.2l-0.7,4.7L705.4,446.7z M695.6,443.8l1.1-2.1l1.2,1.7l-0.2,1.7L695.6,443.8z M703,446.2l1.6-4.4l1.5,0.4l-1.4,4.5
			L703,446.2z M693.7,442.7l1.4-2.6l1.4,1.3l-1.2,2.2L693.7,442.7z M698.7,443.2l2-3.2l1.4,0.8l-1.9,3.9L698.7,443.2z M691.6,442
			l1.8-3.5l1.5,1.2l-1.5,2.8L691.6,442z M651.1,438.1l7.9-6.9l3.5,0.8l-5.6,6.3L651.1,438.1z M663.1,432.2l3.8,0.5l-4.9,6l-4.5-0.3
			L663.1,432.2z M662.8,438.7l4.9-6l3.8,0.3l-4.8,5.9L662.8,438.7z M686.1,441l2.9-4.9l1.7,0.8l-2.4,4.3L686.1,441z M667.4,439
			l4.6-5.8l3.3,0.4l-4.3,5.7L667.4,439z M686.2,435.3l2.3,0.6l-2.9,5l-2.8-0.3L686.2,435.3z M697,441.2l1.8-2.7l1.4,1.2l-1.9,3.1
			L697,441.2z M695.3,439.4l1.9-2.6l1.3,1.3l-1.7,2.6L695.3,439.4z M706.7,441.5l0.9-3.1l1.1,0.2l-0.6,3.1L706.7,441.5z M709,438.7
			h1.1v3.2l-1.6-0.2L709,438.7z M703,440.5l1.6-3.1l1,0.5l-1.4,3.1L703,440.5z M693.6,437.9l2.1-2.5l1.1,1l-1.9,2.7L693.6,437.9z
			 M699.5,438.2l2.1-2.9l1.2,1l-1.9,3.1L699.5,438.2z M691.4,436.6l2.4-2.8l1.4,1.1l-2.1,2.6L691.4,436.6z M696.2,435l2.8-2.9
			l0.8,1.3l-2.2,2.9L696.2,435z M686.3,434.6l2.7-3.2l2.1,0.8l-2.5,3L686.3,434.6z M682.8,433.8l-3-0.3l3.1-3.4l2.8,0.5L682.8,433.8
			z M694.5,433.5l3.4-3.4l0.8,1.5l-2.9,3L694.5,433.5z M668.2,432.2l4.6-4l3,0.5l-4.3,3.8L668.2,432.2z M627.7,431.7l-2.3-4.1
			l17.3-5.2l2.4,2.5L627.7,431.7z M659.4,430.6l5.9-4l2.9,0.6l-5.3,4.2L659.4,430.6z M692.1,431.9l5.2-3.9l0.4,1.6l-3.6,3.5
			L692.1,431.9z M654.3,429.1l7.2-3.6l3.1,0.8l-5.9,4L654.3,429.1z M689.5,430.8l4.7-3.9l2.5,0.9l-5,3.8L689.5,430.8z M650.5,427.5
			l7.4-3.2l2.9,1l-7.1,3.6L650.5,427.5z M686,430l4.8-4.2l2.7,0.9l-4.6,3.9L686,430z M624.7,423l15.6-3.3l1.8,2.4l-16.8,5.1
			L624.7,423z M682.2,429.2l5.6-4.3l2.4,0.6l-4.9,4.3L682.2,429.2z M678.4,428.5l5.8-4.5l2.9,0.7l-5.6,4.4L678.4,428.5z
			 M674.7,427.8l6.1-4.6l2.6,0.6l-5.8,4.5L674.7,427.8z M670.4,427l7-4.6l2.5,0.5l-5.9,4.7L670.4,427z M643.3,422.4l7.5-1.5l2.4,1.5
			l-7.3,2.4L643.3,422.4z M666.7,426.3l7.2-4.5l2.6,0.4l-6.9,4.6L666.7,426.3z M659,424l8-3.3l2.4,0.4l-7.4,3.8L659,424z
			 M624.3,417.9l14.3-1.2l1.4,2.6l-15.4,3.1L624.3,417.9z M641,419.9l7.6-1.1l1.9,1.7l-7.7,1.4L641,419.9z M655.6,422.8l7.3-2.7
			l3.1,0.5l-7.8,3.1L655.6,422.8z M652.4,421.2l7.7-2l2.1,0.6l-7.2,2.7L652.4,421.2z M639.2,416.7h8.2l1,1.7l-7.6,0.9L639.2,416.7z
			 M626.6,413.2l11.6,0.5l0.3,2.4l-14.1,1.2c0,0,0.1-2.2,0.1-2.7C624.5,414.2,625.8,413.2,626.6,413.2 M656.5,416.5l0.9,1.2
			l-8.2,0.8l-1.3-1.9L656.5,416.5z M638.7,413.8l7.6,0.4l0.6,1.8H639L638.7,413.8z M647.6,416l-0.7-1.8l9.2,0.6l0.3,1.3L647.6,416z
			 M706.4,447.6l2,0.2l-0.6,7.7l-2.1-0.2L706.4,447.6z M700.8,446l2.1,1l-0.8,8.1l-2.2-0.2L700.8,446z M673.4,421.1
			c1.2,0.2,0,0,1.3,0.2c0.5,0.1,2.5,0.5,3.2,0.6c2.2,0.4,3.7,0.8,5.1,1.1c2.3,0.6,4,0.9,4.7,1.1c3.1,0.9,2.3,0.6,3.1,0.9
			c2,0.6,3.2,1.1,3.2,1.1c2,0.8,2.8,1.1,3.4,1.3c0-0.3,0-0.5,0-0.8l0.1-0.9v-0.4c0.1-0.8,0.1-0.8,0.2-1.6c0,0-0.1,0.7,0.1-0.3
			c0.2-0.8,0.4-1.7,0.6-2.5c-0.3-0.2-0.7-0.4-1-0.6c-1-0.5-1.6-0.8-1.6-0.8c-2.4-0.9-3.2-1.2-3.2-1.2c-1.2-0.4-2.6-0.8-3.8-1.1
			c-2-0.5-4.9-1.1-5.5-1.1c-4.5-0.6-4.5-0.5-6.2-0.7c-2.9-0.3-2.9-0.3-5-0.5c-1.1-0.1-3.5-0.2-5.4-0.3c0,0-3.2-0.1-4.1-0.1
			c-1.3-0.1-2.5-0.1-3.8,0c-2.1,0.1-2,0.1-2,0.1c0,0.6,0.5,1.7,0.9,2.2c1,1.1,2.3,1.5,3.1,1.8c2.8,0.9,3,0.8,4.8,1.1
			c1,0.2,2.1,0.4,2.6,0.5c1.1,0.2,4,0.6,4,0.6 M683.2,434.6l2.4,0.5l-3.3,5.4l-3.1-0.3L683.2,434.6z M683.5,433.9l2.8-3.2l2.2,0.4
			l-2.8,3.2L683.5,433.9z M675.7,439.6l4-5.4l2.8,0.3l-3.8,5.4L675.7,439.6z M671.7,439.3l4.5-5.7l2.9,0.3l-4.1,5.6L671.7,439.3z
			 M663.7,431.6l5.2-4.2l3.1,0.6l-4.6,4L663.7,431.6z M676.3,433l3.6-3.6l2.2,0.4l-3.1,3.5L676.3,433z M672.4,432.5l4.2-3.7l2.6,0.5
			l-3.7,3.6L672.4,432.5z M704.8,441.1l1.3-3.1l1.1,0.3l-0.9,3.1L704.8,441.1z M643.4,438.2l-10.1-0.9l16.6-9.3l3.3,1.5L643.4,438.2
			z M688.9,441.4l2.3-4.2l1.8,1l-1.9,3.7L688.9,441.4z M689.2,435.5l2.6-3l1.7,1.1l-2.5,2.8L689.2,435.5z M646.4,425.1l7.3-2.4
			l3.4,1.3l-7.2,3.2L646.4,425.1z M662.8,425.3l7.7-4.1l2.6,0.4L666,426L662.8,425.3z M701.2,439.6l1.9-3.1l1.2,0.7l-1.7,3.2
			L701.2,439.6z M700.7,445.1l2-4.2l1.4,0.6l-1.7,4.4L700.7,445.1z M644.2,438.2l9.5-8.6l4.6,1.3l-8,7.1L644.2,438.2z M649.3,427.7
			l-16.6,9.3l-4.7-4.7l17.5-6.9L649.3,427.7z M698,436.7l2.1-2.9l1.1,1.2l-2,2.8L698,436.7z M649.8,419l8-0.9l1.4,0.7l-7.4,2
			L649.8,419z"/>
		<path id="Eagle-2_1_" class="st9" d="M717,456.3l0.6-9.3l2.1-1.4l-0.5,10.9L717,456.3z M713.5,456l-2.3-0.2l0.5-7.7l2.3-0.1
			L713.5,456z M709.8,447.1c0,0.1-0.1,0.2-0.1,0.2l-1.6-0.1c-0.1,0-0.1-0.1-0.1-0.2l0.5-4.5l1.5,0.1L709.8,447.1z M710.5,447.2v-4.7
			h1.4l0.4,4.7H710.5z M720.2,446.9v-1.7l1.5-1.5l0.8,2.3L720.2,446.9z M713,447.3l-0.6-4.7l1.5-0.1l0.9,4.6L713,447.3z
			 M722.8,445.8l-0.9-2.4l1.6-1.1l1,2.8L722.8,445.8z M717.8,446.1l-1.3-4.1l1.5-0.6l1.5,3.5L717.8,446.1z M724.9,445.2l-1-3l1.7-1
			l1.2,3.7L724.9,445.2z M761.5,446.8l-4.5-7.1l3.6-0.2l6.7,8.1L761.5,446.8z M760.8,446.8l-4.5-0.5l-3.9-6.7l3.9,0.1L760.8,446.8z
			 M751.8,445.8l-3.8-6.6l3.8,0.3l3.9,6.7L751.8,445.8z M730,444.5l-1.6-4.6l1.8-0.5l2.1,5.3L730,444.5z M747.3,445.4l-3.3-6.3
			l3.4,0.2l3.6,6.5L747.3,445.4z M735.6,444.8l-2.8-0.1l-2.1-5.4l2.4-0.2L735.6,444.8z M719.9,444.6l-1.4-3.4l1.6-1l1.3,2.9
			L719.9,444.6z M721.8,442.7l-1.3-2.8l1.5-1.1l1.5,2.9L721.8,442.7z M710.5,441.9l-0.1-3.2h1.1l0.4,3.2H710.5z M710,442l-1.6-0.1
			l0.5-3.2l1.1,0.1V442z M714.4,441.8l-0.9-3.3l1.1-0.3l1.1,3.3L714.4,441.8z M723.9,441.4l-1.4-3l1.2-0.8l1.7,2.9L723.9,441.4z
			 M718,440.8l-1.4-3.3l1.3-0.8l1.6,3.2L718,440.8z M725.9,440.3l-1.7-2.9l1.6-0.9l1.9,3.1L725.9,440.3z M721.7,438.3l-1.7-3.2
			l1-1.2l2.3,3.3L721.7,438.3z M730.7,438.6l-2-3.4l2.2-0.4l2.2,3.6L730.7,438.6z M734.4,434.5h2.8l2.5,3.8l-3-0.2L734.4,434.5z
			 M723.7,436.8l-2.4-3.4l1-1.4l2.8,3.9L723.7,436.8z M748.1,438.6l-3.7-4.5h3l3.9,4.7L748.1,438.6z M775.4,435.4l2.8-2.1l16.2,7.9
			l-2.9,3.6L775.4,435.4z M756.7,439l-4.5-5l2.9-0.1l5.2,4.9L756.7,439z M725.6,435.6l-3-4.1l0.7-1.6l4.5,4.7L725.6,435.6z
			 M761,438.6l-5.2-4.9l3.2-0.3l6.5,4.7L761,438.6z M728.3,434.5L724,430l2.6-0.5l4,4.6L728.3,434.5z M766.3,437.9l-6.5-4.6l3-0.5
			l6.8,4.3L766.3,437.9z M731.2,434l-3.9-4.6l2.8-0.5l4.1,5L731.2,434z M794.5,440.7l-15.8-7.7l2.2-2l14.8,5.8L794.5,440.7z
			 M734.8,433.8l-4.1-5l2.5-0.2l4.8,5.2H734.8z M738.8,433.7l-4.9-5.2l2.9-0.2l5,5.4L738.8,433.7z M742.6,433.5l-5-5.4l2.7-0.2
			l5.3,5.5L742.6,433.5z M746.4,433.5l-5.1-5.6l2.6-0.1l6.2,5.7H746.4z M774.6,435.1l-6.8-3.5l2.6-1.1l7.2,2.7L774.6,435.1z
			 M750.9,433.4l-6.1-5.7h2.6l6.3,5.6L750.9,433.4z M758.6,432.7l-6.7-5h2.5l7.4,4.5L758.6,432.7z M796,436.2l-14.7-5.5l1.8-2.3
			l13.9,3.5L796,436.2z M778.1,432.7l-7.4-2.6l2.1-1.4l7.3,2.3L778.1,432.7z M762.6,432.1l-7.2-4.3h3.2l6.7,3.9L762.6,432.1z
			 M766,431.5l-6.7-3.9l2.2-0.3l7.3,3.2L766,431.5z M780.6,430.5l-7.4-2.1l1.2-1.5l8,1.4L780.6,430.5z M795.5,426.8
			c0.7,0.1,1.9,1.3,1.9,1.8s-0.3,2.7-0.3,2.7l-13.7-3.4l0.7-2.4L795.5,426.8 M773.9,426.8l-1.6,1.6l-8-2.1l1.1-1L773.9,426.8z
			 M782.8,427.7l-7.8-1.3l0.9-1.7l7.6,0.8L782.8,427.7z M765.6,424.9l0.5-1.2l9.2,0.9l-1,1.7L765.6,424.9z M710.6,455.7l-2.1-0.2
			l0.6-7.7l2,0.1L710.6,455.7z M716.3,456.2l-2.2-0.2l0.5-8.1l2.3-0.6L716.3,456.2z M749.5,427.2c0,0,2.9,0,4,0c0.5,0,1.6,0,2.6,0
			c1.9,0,2,0.1,4.9-0.3c0.9-0.1,2.2-0.3,3.4-1.3c0.5-0.4,1.1-1.4,1.2-2c0,0,0,0-2-0.5c-1.2-0.3-2.5-0.5-3.7-0.6
			c-0.9-0.1-4.1-0.5-4.1-0.5c-1.9-0.2-4.3-0.5-5.4-0.6c-2.1-0.2-2.1-0.2-5-0.4c-1.8-0.1-1.8-0.1-6.2-0.3c-0.6,0-3.5,0.1-5.6,0.2
			c-1.2,0.1-2.7,0.3-3.9,0.4c0,0-0.8,0.1-3.4,0.6c0,0-0.6,0.2-1.7,0.5c-0.4,0.1-0.7,0.3-1.1,0.5c0,0.4,0.2,1.8,0.2,2.5
			c0,1,0,0.3,0,0.3c0,0.8,0,0.8-0.1,1.6v0.4l-0.1,0.9c0,0.3-0.1,0.5-0.1,0.8c0.6-0.1,1.4-0.3,3.5-0.8c0,0,1.3-0.3,3.3-0.6
			c0.8-0.1,0,0,3.2-0.4c0.8-0.1,2.5-0.2,4.8-0.4c1.4-0.1,3-0.2,5.2-0.3c0.7,0,2.8-0.1,3.2-0.1c1.4,0,0.1,0,1.4,0 M739.3,444.9
			l-3.1-0.2l-2.4-5.8l2.5-0.1L739.3,444.9z M733.7,438.2l-2.2-3.6l2.2-0.1l2.2,3.6L733.7,438.2z M739.7,444.9l-2.9-6l2.9,0.1l3.1,6
			L739.7,444.9z M743.5,445.1l-3.2-6.2l2.9,0.1l3.5,6.3L743.5,445.1z M752.2,438.9l-3.9-4.7l3.2-0.1l4.4,4.9L752.2,438.9z
			 M740.5,438.3l-2.5-3.9h2.3l3,4.1L740.5,438.3z M744.2,438.4l-3.1-4.1l2.6-0.1l3.5,4.3L744.2,438.4z M712.4,441.9l-0.4-3.2
			l1.1-0.1l0.7,3.2L712.4,441.9z M766.7,438.6l3.5-0.9l14.9,11.8l-10.1-0.7L766.7,438.6z M727.2,444.8l-1.3-4l2-0.7l1.6,4.5
			L727.2,444.8z M728.2,439.3l-2-3.1l1.8-0.8l2.1,3.4L728.2,439.3z M770.2,436.9l-6.6-4.3l3.5-0.7l6.8,3.6L770.2,436.9z
			 M754.6,433.2l-6.4-5.5h2.6l7,5.3L754.6,433.2z M716.1,441.4L715,438l1.2-0.5l1.4,3.4L716.1,441.4z M715.4,447l-0.9-4.6l1.5-0.4
			l1.3,4.4L715.4,447z M768,447.6l-6.7-8.3l4.8-0.6l8,10L768,447.6z M770.7,437.5L770.7,437.5l4.2-1.7l16.1,9.6l-5.4,3.9
			L770.7,437.5z M719.9,439.6l-1.5-3.1l1.3-1l1.6,3.1L719.9,439.6z M769.3,430.3l-7-3.1l1.5-0.5l7.8,2.2L769.3,430.3z"/>
	</g>
</g>
</svg>
