<svg id="bb8a6def-7b5f-4977-9cdb-6ed5386a2dfe" xmlns="http://www.w3.org/2000/svg" width="1050.86" height="704.35" viewBox="0 0 1050.86 704.35"><title>personal_information</title><path d="M1050.86,374.35c0,142.47-90.3,263.86-216.78,310A326.34,326.34,0,0,1,774.76,700a332.23,332.23,0,0,1-165.72-15C481.76,639.11,390.8,517.31,390.86,374.28c0-182.18,147.75-329.93,330-329.93a328.56,328.56,0,0,1,192,61.6C996.42,165.81,1050.86,263.72,1050.86,374.35Z" style="fill:#e5e5e5"/><path d="M834.08,684.4A326.34,326.34,0,0,1,774.76,700a332.23,332.23,0,0,1-165.72-15l15.24-61.15.92-3.67,31.1.12,156.24.56,2,5.91Z" style="fill:#2f2e41"/><rect id="effaf695-3865-40c6-8918-ced0238239c2" width="286.65" height="324.36" style="fill:#e6e6e6"/><rect id="f33d627f-c769-4bde-9d74-ef156faf640e" x="5.11" y="6.86" width="275.93" height="310.63" style="fill:#fff"/><circle id="b5fd4af9-5b07-4da2-8ccf-5b3d4ac887f6" cx="143.33" cy="290.98" r="15.47" style="fill:#e6e6e6"/><rect id="f05405a0-af73-4807-bbd1-d761cdd06c65" x="51.88" y="116.82" width="88.84" height="9.09" style="fill:#e6e6e6"/><rect id="a05e4a04-50b7-46b0-b842-8db21044ae7a" x="51.88" y="144.05" width="134.08" height="9.09" style="fill:#ff0005"/><rect id="bdce3bac-3998-4a72-bc14-4aa79023038d" x="51.88" y="171.46" width="120.92" height="9.09" style="fill:#e6e6e6"/><rect id="e1177af0-2f80-4461-b67e-43945f3b6fee" x="51.88" y="198.14" width="186.72" height="9.09" style="fill:#ff0005"/><rect id="b290cdc3-2096-427b-bfd4-6b657da823ea" x="53.82" y="223.55" width="152.17" height="9.09" style="fill:#e6e6e6"/><g id="b96c6486-fa38-4cba-8e5e-13dca7f44a0c"><path id="b0fbfc35-67c9-42b4-b2fe-33d0d7288754" d="M407.61,527.79a29.76,29.76,0,0,1,3,3.6L550.71,528l16.34-29.87,48.3,18.78-23.8,55.69a22.61,22.61,0,0,1-23.5,13.56L409.75,567a29.67,29.67,0,1,1-2.15-39.21Z" style="fill:#9f616a"/><path id="a6a8f1c9-3ab8-4f6f-ba9b-45acc2f7af89" d="M596.19,357.24l65.57-21.49L681,309.34l93.72,5.55,13.76,30.82,50,23.61-7.68,142.62L817.64,645.42c-67.56-35-193.64-8.31-194.74-7.88Z" style="fill:#ff0005"/><path id="fc06e97d-785e-4845-9aa0-60a5889f9ce3" d="M610.21,550.29l-66.69-26.68.28-1.19c.29-1.2,28.67-119.82,32.44-138.88,3.93-19.86,18.27-25.35,18.88-25.57l.45-.16,26.39,8,11.59,91.08Z" style="fill:#ff0005"/><path id="b248559b-61d8-49e2-8eef-81cc9521c19e" d="M754.21,639.55a29.72,29.72,0,0,1,4.68.26l92.75-105.07-10.79-32.29,46.61-22.65,24.66,55.31a22.61,22.61,0,0,1-6,26.45L784.43,664.64a29.66,29.66,0,1,1-30.22-25.09Z" style="fill:#9f616a"/><path id="b0e9bc84-32e8-4599-bd8d-d35670d3692b" d="M844.23,545l-38.69-91,15.09-63.39L836.89,370a9.37,9.37,0,0,1,7.52.07c6,2.41,11.1,9.81,15.18,22l36.26,103.28Z" style="fill:#ff0005"/><path id="b58b0f1b-b11b-4f57-8de2-a939101b4938" d="M643.5,275.62V207a91.94,91.94,0,0,1,183.88-.61h0q0,.3,0,.61v68.61A12.36,12.36,0,0,1,815,288H655.85A12.36,12.36,0,0,1,643.5,275.62Z" style="fill:#2f2e41"/><circle id="ba54abe3-4119-45e5-b5c1-150877d750f7" cx="716.55" cy="218.97" r="67.4" style="fill:#9f616a"/><path id="b6bcc4bf-1738-426f-8fbf-3ee273a728b5" d="M621.75,212.5a72.81,72.81,0,0,1,72.73-72.73H708.2a72.81,72.81,0,0,1,72.73,72.73v1.37h-29L742,186.17l-2,27.7h-15l-5-14-1,14H621.75Z" style="fill:#2f2e41"/><path id="be96ad09-85ff-4345-abef-5a49918f7c18" d="M709.91,295.68a12.17,12.17,0,0,1-1-12.92c14.54-27.66,34.9-78.76,7.88-110.28l-1.94-2.26h78.46V288l-71.27,12.57a12.61,12.61,0,0,1-2.18.19,12.3,12.3,0,0,1-10-5.09Z" style="fill:#2f2e41"/></g><g id="b2dad932-78e1-44e1-9682-073c8202f887"><path id="e043db59-b600-449e-8c52-e1eb73379667" d="M143.08,25.26A32.89,32.89,0,1,0,176,58.15h0a32.89,32.89,0,0,0-32.89-32.89h0Zm0,9.87A9.87,9.87,0,1,1,133.21,45h0A9.87,9.87,0,0,1,143.08,35.13Zm0,47.5A24,24,0,0,1,123.34,72.1c.16-6.58,13.16-10.2,19.73-10.2s19.58,3.62,19.73,10.2a24,24,0,0,1-19.73,10.53Z" style="fill:#ff0005"/></g><path id="bcfa45dc-2c5a-4ac5-8376-9a2a23e225d0" d="M143.46,296.91c13.55-24.83,46-40.56,72.56-26.38,12,6.38,21.45,17.66,24.47,31C244,317,236.62,331.8,229,344.81c-4.13,7.07-8.66,14-12.08,21.44-3.54,7.72-6.07,16.64-3.41,25,2.4,7.56,8.42,13.06,15,17.11a111.83,111.83,0,0,0,23.06,10.3,135.74,135.74,0,0,0,51.49,6.66,140.8,140.8,0,0,0,25.66-4.15c8.94-2.28,17.72-5.17,26.68-7.4,15-3.71,32-5.56,46.19,1.9,13.78,7.25,19.94,22.42,21.85,37.17,3.52,27.25-7.28,55.52-26.79,74.6-9.36,9.15-21.13,16.72-34,19.81-11.19,2.7-25.56,2.53-34.47-5.84-9.94-9.34-7.6-24.31.29-34.16,10.08-12.57,27.14-15.59,42.37-15.89,17.33-.35,34.64,2.23,52,.63a79.8,79.8,0,0,0,24.57-5.93,62.26,62.26,0,0,0,18.52-12.53c10.69-10.39,17.9-24.22,21.48-38.61,4.32-17.3,3.38-35.48,0-52.86a238.36,238.36,0,0,0-6.89-26.51c-1.16-3.67-7-2.1-5.79,1.6,10.32,32.72,16.07,70.56-3.86,100.95A60.11,60.11,0,0,1,435,484c-17.26,4.29-35.36,2.17-52.91,1.53-16.68-.61-35,0-49.3,9.76-11.73,8-19.94,23.13-16.39,37.44,3.42,13.8,16.68,20.8,29.95,21.88,13.92,1.13,27.61-3.54,39.3-10.84,24.31-15.19,40.48-41.91,43.86-70.24,1.76-14.76,0-30.66-6.73-44.06a43.13,43.13,0,0,0-15.85-17.66c-6.81-4.17-14.68-6.23-22.58-7-17.95-1.65-35.19,4.51-52.22,9.22a144.8,144.8,0,0,1-26.63,5.08,133,133,0,0,1-26.27-.43,129.37,129.37,0,0,1-25.46-5.65,101.89,101.89,0,0,1-23.11-10.45c-6.39-4.08-11.91-9.93-12.22-17.9-.34-8.64,4-16.72,8.16-24,8.19-14.39,18.3-28.47,20.43-45.31,1.87-14.74-4.06-29.26-14.3-39.77A53.77,53.77,0,0,0,193,259.15c-15.19.43-29.74,7-40.92,17.19a67.36,67.36,0,0,0-13.8,17.53c-1.85,3.39,3.33,6.42,5.18,3Z" style="fill:#3f3d56"/><g id="Lager_2" data-name="Lager 2"><path id="Border" d="M694.17,455.85l43.08.93-.26,12-43.08-.93Zm41.55,2.44-40.09-.9-.2,9,40.08,1Z" style="fill:#ff0"/><line x1="726.07" y1="457.56" x2="725.85" y2="467.78" style="fill:none;stroke:#ff0;stroke-miterlimit:10"/><line x1="715.67" y1="457.32" x2="715.46" y2="467.23" style="fill:none;stroke:#ff0;stroke-miterlimit:10"/><line x1="705.3" y1="457.08" x2="705.08" y2="466.98" style="fill:none;stroke:#ff0;stroke-miterlimit:10"/><path d="M698.77,458.57a6.32,6.32,0,0,1,2.5.05,3.27,3.27,0,0,1-.63,1.5h0a.27.27,0,0,1-.23.13l-.83,0a.27.27,0,0,1-.23-.14h0A4.62,4.62,0,0,1,698.77,458.57Zm-.16,4.53a3.13,3.13,0,0,1-.86,1.14,4.41,4.41,0,0,1-1.19-1.63,3.44,3.44,0,0,1,1.43-.37h0a.18.18,0,0,1,.16.06l.43.52a.24.24,0,0,1,0,.28Zm3,2.27a3.7,3.7,0,0,1-.77-1.51h0a.29.29,0,0,1,.09-.31l.61-.5a.44.44,0,0,1,.23,0,4.07,4.07,0,0,1,1.6.75c.14.14-1.64,1.76-1.76,1.63Zm-3.35-3.64a3.12,3.12,0,0,1-1.59-.14,5.31,5.31,0,0,1,.93-2.29,3.66,3.66,0,0,1,1.15,1.23h0a.3.3,0,0,1,0,.28l-.31.77a.24.24,0,0,1-.2.15h0Zm2.42,3.57a6,6,0,0,1-2.48-.25,3.43,3.43,0,0,1,.77-1.45h0a.21.21,0,0,1,.18-.08l.85,0a3.32,3.32,0,0,1,.68,1.74Zm2.79-4.63a3.14,3.14,0,0,1-1.69.48l-.47-.61a.23.23,0,0,1,0-.2h0a3.46,3.46,0,0,1,.71-1.42c.12-.14,1.63,1.61,1.49,1.74Zm-2.78.14a3.37,3.37,0,0,1,.58,1.52c0,.42-.88.74-1.26.84-.38-.1-1.24-.49-1.24-.91a3.17,3.17,0,0,1,.61-1.46l.25-.12.76,0,.3.12Zm2.53,2.33a2.69,2.69,0,0,1-1.19-.49h0a.2.2,0,0,1-.09-.22l.15-.58c0-.06.12-.14.12-.14a3.79,3.79,0,0,1,1.37-.37,3.83,3.83,0,0,1-.36,1.8Z" style="fill:#ff0"/><path d="M729.19,459.66a6.33,6.33,0,0,1,2.45-.49,3.29,3.29,0,0,1-.28,1.6h0a.27.27,0,0,1-.2.18l-.82.17a.27.27,0,0,1-.25-.08h0A4.55,4.55,0,0,1,729.19,459.66Zm.77,4.54a3.7,3.7,0,0,1-.61,1.54c-.11.13-1.79-1.49-1.67-1.64a3.35,3.35,0,0,1,1.42-.77h0a.18.18,0,0,1,.18,0l.59.51a.32.32,0,0,1,.1.31Zm3.79.67a3.66,3.66,0,0,1-1.18-1.19h0a.32.32,0,0,1,0-.33l.35-.69c0-.07.18-.12.18-.12a3.46,3.46,0,0,1,1.63.16,5.38,5.38,0,0,1-.94,2.17Zm-4.63-2.2a3.16,3.16,0,0,1-1.6-.06,5.34,5.34,0,0,1,.81-2.34,3.71,3.71,0,0,1,1.2,1.17h0a.3.3,0,0,1,0,.28l-.27.78a.24.24,0,0,1-.2.16h0Zm3.78,3.1a6.16,6.16,0,0,1-2.48.3,3.42,3.42,0,0,1,.43-1.58h0a.21.21,0,0,1,.15-.12l.84-.15A3.45,3.45,0,0,1,732.9,465.77Zm1.66-4.23a3.28,3.28,0,0,1-1.8.44l-.45-.68a.25.25,0,0,1,0-.22h0a3.78,3.78,0,0,1,.82-1.48c.13-.11,1.61,1.81,1.45,2Zm-3.91,2.25a3.3,3.3,0,0,1-.88-1.37c-.08-.42.61-1,1.06-1.08s1.32.23,1.4.63a3.11,3.11,0,0,1-.3,1.55l-.13.12-1,.18-.15,0Z" style="fill:#ff0"/><path d="M719.75,458.84a7.94,7.94,0,0,1,2.77.26,3.18,3.18,0,0,1-.8,1.44h0a.31.31,0,0,1-.27.11l-.93-.09a.31.31,0,0,1-.24-.16h0A4.29,4.29,0,0,1,719.75,458.84Zm-.21,4.92a3.73,3.73,0,0,1-.92,1.38,5.2,5.2,0,0,1-1.29-1.95,3.4,3.4,0,0,1,1.54-.45h0a.18.18,0,0,1,.17.07l.47.61a.32.32,0,0,1,0,.33Zm3.48,1.4a3.7,3.7,0,0,1-.9-1.41h0a.32.32,0,0,1,0-.33l.48-.59c0-.06.2-.08.2-.08a3.46,3.46,0,0,1,1.56.5A5.44,5.44,0,0,1,723,465.16Zm-4.09-3.09a2.89,2.89,0,0,1-1.6-.23,6.8,6.8,0,0,1,1.29-2.45,3.47,3.47,0,0,1,1,1.4h0a.34.34,0,0,1,0,.31l-.43.82a.28.28,0,0,1-.23.15h0Zm3,3.62a6,6,0,0,1-2.47,0,3.3,3.3,0,0,1,.76-1.45h0a.21.21,0,0,1,.18-.09l.85,0A2.4,2.4,0,0,1,721.88,465.69Zm2.53-3.52a3.23,3.23,0,0,1-1.85.05l-.29-.76a.25.25,0,0,1,0-.22h0a3.74,3.74,0,0,1,1.11-1.28,5.18,5.18,0,0,1,1,2.21Zm-4.43,1a2.56,2.56,0,0,1-.44-1.37c0-.42.88-.74,1.26-.83.38.11,1.24.49,1.24.92a1.93,1.93,0,0,1-.35,1.19l-.43.39-1-.08-.14-.07Z" style="fill:#ff0"/><path d="M708.35,459.18a6.3,6.3,0,0,1,2.39-.74,3.31,3.31,0,0,1-.12,1.62h0a.27.27,0,0,1-.18.2l-.81.25a.27.27,0,0,1-.26-.06h0A4.64,4.64,0,0,1,708.35,459.18Zm.58,4.57a3.83,3.83,0,0,1-.94,1.38,5.21,5.21,0,0,1-1.28-2,3.29,3.29,0,0,1,1.54-.44h0a.18.18,0,0,1,.17.07l.47.61a.32.32,0,0,1,0,.33Zm3.52,1.85a3.71,3.71,0,0,1-.89-1.42h0a.32.32,0,0,1,0-.33l.49-.59c0-.06.2-.08.2-.08a3.5,3.5,0,0,1,1.55.51,5.25,5.25,0,0,1-1.39,1.91Zm-4.11-3.53a3.12,3.12,0,0,1-1.59-.14,5.31,5.31,0,0,1,.93-2.29,3.66,3.66,0,0,1,1.15,1.23h0a.3.3,0,0,1,0,.28l-.31.77a.24.24,0,0,1-.2.15h0Zm3,3.62a6,6,0,0,1-2.48-.25,3.43,3.43,0,0,1,.77-1.45h0a.21.21,0,0,1,.18-.08l.85,0a3.3,3.3,0,0,1,.69,1.75Zm2.91-2.92a3.81,3.81,0,0,1-1.9,0l-.24-.79a.25.25,0,0,1,0-.22h0a14.77,14.77,0,0,1,1.23-1.18A4.8,4.8,0,0,1,714.26,462.76Zm-3.11-1.47a3.28,3.28,0,0,1,.47,1.55c0,.42-1,.3-1.39.37-1.13-.2-1.21-.21-1.09-.62a4.55,4.55,0,0,1,.71-1.41l.7-.42.59.52Zm2.18-1.14a3.47,3.47,0,0,1-1.46.63h0a.29.29,0,0,1-.3-.1l-.46-.57a.39.39,0,0,1,0-.2,3.52,3.52,0,0,1,.75-1.42c.13-.13,1.63,1.54,1.51,1.65Z" style="fill:#ff0"/><path id="Sun" d="M730.87,421.41A14.42,14.42,0,1,1,716.76,407a14.27,14.27,0,0,1,14.11,14.44" style="fill:#fff"/><path id="Eagle" d="M702.51,456l.73-12.91,2.32,1.93-.37,11.06Zm7.12-9.31,2.71.41-.3,9.13-2.67-.08Zm5.45-5.89,1.78,0,.08,5.36c0,.11-.06.2-.13.2l-1.93,0c-.07,0-.13-.09-.13-.2Zm-3.24,5.28,1-5.53,1.67.15-.55,5.56ZM700,443.33l1.15-2.57,1.56,1.95-.15,2Zm8.86,2.27,1.61-5.36,1.78.32L711,446Zm-11.22-3.43L699.2,439l1.7,1.44-1.29,2.7Zm6,.28,2.17-4,1.69.84-2,4.69Zm-8.5-.9L697,437.3l1.84,1.37-1.58,3.45Zm-48-1.82,8.9-8.67,4.16.68-6.15,7.86Zm13.78-7.85,4.56.31-5.37,7.44h-5.33Zm0,7.78,5.4-7.43,4.46.1-5.22,7.29Zm27.76,1,3.06-5.94,2.12.8-2.49,5.2Zm-22.21-1.05,5.05-7.19,4,.2-4.63,7.06ZM688.38,434l2.73.55L688,440.62l-3.29-.21Zm13.16,6.17,1.91-3.26,1.77,1.35-2,3.84Zm-2.2-2,2.1-3.21,1.59,1.44-1.85,3.19Zm13.6,1.76.83-3.68,1.33.13-.53,3.69Zm2.61-3.47,1.26,0,.2,3.8-1.88-.08Zm-7,2.5,1.71-3.8,1.27.49L710,439.41Zm-11.29-2.42,2.36-3.15,1.36,1.09-2,3.31Zm7,0,2.26-3.62L708,434l-2.06,3.76Zm-9.59-1.34,2.62-3.43L699,433l-2.29,3.22Zm5.48-2.25,3.05-3.6,1,1.54-2.35,3.55Zm-11.62.21,3-3.91,2.59.77-2.8,3.69Zm-4.3-.74-3.51-.17,3.4-4.24,3.28.36ZM698,431.22l3.82-4.24,1,1.71-3.23,3.7Zm-31.08.29,5.12-5.07,3.53.33-4.84,4.8ZM619,433.77l-3-4.62,20-7.34,3,2.78Zm37.42-3.5,6.68-5.09,3.42.49-5.92,5.3Zm38.68-.78,5.83-5,.6,1.91-4,4.42Zm-44.81-.63,8.22-4.7,3.75.74-6.69,5.18Zm41.61-.4,5.22-4.94,3,.87-5.66,4.81Zm-46.24-1.27,8.47-4.28,3.45,1-8.15,4.69Zm42,.52,5.42-5.34,3.2.92-5.2,4.94Zm-72.85-4,18.16-5,2.35,2.65-19.48,7.18Zm68.4,3.38,6.28-5.52,2.88.59L687,427.5Zm-4.56-.57,6.5-5.74,3.44.58-6.36,5.57Zm-4.39-.63,6.85-5.83,3.16.51-6.5,5.7Zm-5.23-.56,8-5.93,3,.47-6.69,5.93Zm-32.28-3.61,8.75-2.25,2.92,1.58L640,424.3Zm27.92,3.07,8.14-5.85,3.1.33-7.87,5.91Zm-9.29-2.24,9.23-4.42,2.9.29-8.46,5Zm-41.36-4.81,16.81-2.44,1.8,3-17.93,4.72ZM634,418.9l8.85-1.81,2.34,1.85-9,2.13Zm17.38,2.41,8.37-3.75,3.74.38-9,4.24Zm-3.88-1.67,9-2.93,2.49.62-8.35,3.74Zm-15.89-4.39,9.63-.62,1.24,1.9-8.93,1.6ZM616.43,412l13.72-.16.49,2.86-16.56,2.37s-.06-2.65,0-3.19a3.45,3.45,0,0,1,2.4-1.87M652,413.87l1.14,1.31-9.65,1.49-1.64-2.1Zm-21.23-1.93,9,0,.84,2.12-9.37.56Zm10.67,2-1-2.11h10.93l.41,1.51Zm71.63,33.2,2.4.12-.2,9.08-2.52-.05Zm-6.75-1.55,2.58,1-.37,9.61-2.57-.06Zm-34.11-27.42c1.47.13,0,0,1.6.16.54.05,3,.39,3.8.48,2.57.32,4.42.63,6.08.93,2.76.5,4.76.81,5.65,1,3.75.81,2.79.58,3.75.81,2.37.57,3.84,1.1,3.84,1.1,2.46.78,3.35,1.12,4.06,1.32a7.12,7.12,0,0,1-.07-.94v-1.56c0-.95,0-.9.09-1.86,0,0-.06.87,0-.33a25.56,25.56,0,0,1,.57-3,12.64,12.64,0,0,0-1.25-.68c-1.22-.54-1.95-.82-1.95-.82-2.9-1-3.88-1.15-3.88-1.15-1.39-.33-3.11-.72-4.53-1-2.44-.47-5.91-.92-6.56-1-5.29-.37-5.3-.32-7.37-.44-3.48-.19-3.48-.19-6-.18l-6.38,0s-3.84.12-4.88.11a34.17,34.17,0,0,0-4.44.28l-2.4.29a5.22,5.22,0,0,0,1.17,2.5,7.49,7.49,0,0,0,3.79,1.9,27.59,27.59,0,0,0,5.76,1c1.25.12,2.53.31,3.07.36,1.29.13,4.71.43,4.71.43m14.2,15.32,2.87.41L684,440.3l-3.65-.17Zm.35-.79,3.08-3.94,2.58.37-3,3.94Zm-8.86,7.25,4.35-6.68,3.37.19L679.86,440Zm-4.67-.07,4.86-7,3.44.21-4.48,6.89Zm-10-8.56,5.82-5.28,3.72.49-5.12,5.1Zm15,.83,4-4.46,2.65.31-3.47,4.32Zm-4.65-.33L676.5,427l3,.37-4.14,4.48Zm38.83,7.89,1.27-3.73,1.28.3-.88,3.72Zm-72.65.78-12-.38,18.89-12.12,4,1.49ZM692,441l2.45-5.16,2.21,1.09-2,4.52Zm-.11-7,2.85-3.74,2.08,1.12L694,434.78Zm-51.18-9.22,8.46-3.36,4.08,1.26-8.31,4.3Zm19.33-1,8.85-5.35,3.1.27-8.14,5.75ZM706.36,438l2-3.82,1.41.69L708,438.78Zm-.26,6.5,2-5.07,1.71.6-1.66,5.35ZM639,440.36l10.62-10.76,5.54,1.26-8.91,8.92Zm5.31-12.85-18.92,12.11-5.92-5.26L639.58,425Zm58,7.27,2.24-3.51,1.42,1.35-2.14,3.49ZM644.27,417.3l9.39-1.63,1.75.76-8.58,2.82Z" style="fill:#ff0"/><path id="Eagle-2" d="M726.16,456.57l.11-11.06,2.4-1.82.17,12.93Zm-4.19-.11-2.67,0,.09-9.13,2.72-.29Zm-5-10.21c0,.11-.06.2-.13.2l-1.93,0c-.07,0-.13-.09-.13-.2l.32-5.36,1.78,0Zm.8.13-.31-5.58,1.67-.08.75,5.57Zm11.41-1.09-.06-2,1.64-1.88,1,2.61Zm-8.42.93-1.08-5.48,1.79-.25,1.39,5.42Zm11.47-2.36-1.17-2.76,1.76-1.36,1.38,3.24Zm-5.91.61-1.82-4.77,1.72-.76,2,4Zm8.32-1.53-1.42-3.52,1.89-1.29,1.65,4.33Zm43.26-.67-5.8-8.12,4.19-.49,8.52,9.05Zm-.73,0-5.32-.24-5-7.67,4.58-.12Zm-10.75-.5-4.91-7.51,4.47.1,5.07,7.66Zm-25.84,0-2.25-5.29,2.15-.71,2.8,6.07Zm20.52-.16-4.32-7.26,4,0,4.75,7.41Zm-13.85.1-3.3.07-2.84-6.25,2.77-.42Zm-18.56.85-1.85-3.92,1.83-1.27,1.77,3.34Zm2.16-2.42L729.2,437l1.65-1.37,2,3.3Zm-13.41-.09-.36-3.71,1.33-.07.69,3.72Zm-.54.06h-1.88l.36-3.78,1.26.09Zm5.1-.5-1.31-3.83,1.29-.44,1.55,3.87Zm11.19-1.16-1.9-3.39,1.4-1,2.22,3.25Zm-7-.32-1.89-3.85,1.53-1,2.1,3.72Zm9.24-1.13-2.15-3.31,1.83-1.16,2.47,3.54Zm-5-2-2.19-3.65,1.09-1.49,2.89,3.73Zm10.58-.27L738.41,431l2.62-.66,2.83,4Zm4.15-5.15,3.29-.25,3.21,4.36-3.52,0Zm-12.44,3.51-3.08-3.86,1.09-1.67,3.63,4.4Zm28.88.44-4.64-5,3.55-.18,4.89,5.28Zm31.94-5.62,3.16-2.64,19.68,8.2L813.23,438Zm-21.81,5.43-5.69-5.55,3.44-.34,6.45,5.37Zm-36.9-1.76L731.08,427l.68-1.88,5.61,5.26Zm42,1.08-6.47-5.46,3.77-.57,8,5.05ZM738,430.15l-5.46-5.05,3.07-.73,5,5.16Zm45,1.32-7.94-5,3.5-.81,8.27,4.64Zm-41.64-2.13-5-5.16,3.23-.78,5.18,5.57Zm75.16,3.51-19.16-8,2.46-2.55,17.92,5.8Zm-71-4.08-5.22-5.6,2.9-.46,6,5.78Zm4.68-.41-6.12-5.84,3.47-.43,6.26,6Zm4.5-.46-6.25-6,3.18-.37,6.59,6.11Zm4.44-.27-6.42-6.22,3-.33,7.71,6.26Zm33.4,0-8.3-3.65,3-1.45,8.65,2.63Zm-28.05-.36L757,421l3.11-.19L768,427Zm9-1.34-8.23-5.4,2.91-.17,9,4.82ZM818,427.36l-17.71-5.49L802.2,419l16.68,3.17Zm-21.37-2.79L787.73,422l2.41-1.75,8.77,2.19Zm-18.27.3-8.83-4.62,3.75-.22,8.2,4.11Zm3.9-1-8.18-4.1,2.52-.51,8.83,3.32Zm17.18-2.19-8.85-2,1.32-1.85,9.59,1Zm17.33-5.34c.86,0,2.33,1.43,2.32,2s-.2,3.18-.2,3.18l-16.44-3.08.62-2.83,13.7.75m-25.51,1.42-1.73,2-9.57-1.91,1.19-1.26Zm10.55.47-9.34-1,.94-2.08,9,.44Zm-20.42-2.15.48-1.49,10.92.47-1.08,2.08ZM718.59,456.4l-2.52-.05.2-9.08,2.4,0Zm6.79.15-2.58-.06,0-9.61,2.62-.88Zm37-36.55s3.42-.15,4.72-.23c.55,0,1.84-.16,3.08-.23a27.49,27.49,0,0,0,5.79-.74,7.55,7.55,0,0,0,3.87-1.73,5.21,5.21,0,0,0,1.28-2.45l-2.38-.4a34.17,34.17,0,0,0-4.42-.47c-1,0-4.87-.32-4.87-.32l-6.38-.32c-2.5-.12-2.5-.12-6-.08-2.08,0-2.08,0-7.38.12-.65,0-4.14.31-6.59.67-1.43.21-3.15.53-4.57.8,0,0-1,.15-3.93,1,0,0-.74.25-2,.73a12.64,12.64,0,0,0-1.28.62,27.82,27.82,0,0,1,.44,3c.05,1.2,0,.36,0,.33,0,1,0,.92,0,1.87v.44l0,1.12a7.12,7.12,0,0,1-.11.93c.72-.17,1.61-.47,4.12-1.14,0,0,1.5-.46,3.89-.93,1-.18,0,0,3.78-.64.89-.15,2.91-.38,5.69-.76,1.67-.23,3.53-.46,6.11-.67.82-.07,3.28-.3,3.81-.32,1.6-.09.14,0,1.6-.09m-9.1,21.59H748L744.7,435l2.9-.28Zm-7-7.55L741.78,430l2.59-.26,2.9,4.07Zm7.53,7.4-3.79-6.86,3.37,0,4.06,6.86Zm4.49,0-4.18-7.08,3.44-.06,4.54,7.23Zm9.79-7.92-4.89-5.31,3.73-.33,5.58,5.53Zm-13.81.1-3.28-4.46,2.66-.19,3.85,4.63Zm4.33-.11L753,429l3.06-.24,4.44,4.84ZM719.71,440l-.72-3.76,1.29-.24,1.11,3.78Zm63.81-7.75,4.08-1.31L806,443.84l-12-.15Zm-46.16,10.12-1.81-4.61,2.26-1L740,442Zm.87-6.63-2.59-3.56,2.12-1,2.68,3.86Zm49.42-5.7-8.11-4.65,4.14-1.08L792,428Zm-18.78-3.29-7.88-6.1,3.11-.13,8.61,5.72Zm-44.76,12.4-1.6-3.95,1.44-.63,1.83,3.9Zm-.48,6.63-1.42-5.42,1.73-.53,1.8,5.15Zm62.13-3-8.51-9.29,5.59-1L793,443.71Zm2.47-12.17h0l4.83-2.27,19.7,10.19-6.15,5Zm-59.86,6-2-3.58,1.48-1.29,2.1,3.6Zm57.7-14.39-8.45-3.19,1.78-.68,9.3,2Z" style="fill:#ff0"/></g></svg>